SplineFontDB: 3.0
FontName: DDZDalet-Bold
FullName: DDZ Dalet Bold
FamilyName: DDZDalet
Weight: Bold
Copyright: GPL
Version: 2.0
ItalicAngle: 0
UnderlinePosition: -51.2
UnderlineWidth: 51.2
Ascent: 778
Descent: 246
sfntRevision: 0x00020000
LayerCount: 2
Layer: 0 1 "Back"  1
Layer: 1 1 "Fore"  0
NeedsXUIDChange: 1
XUID: [1021 588 1133928653 13091363]
FSType: 2
OS2Version: 3
OS2_WeightWidthSlopeOnly: 0
OS2_UseTypoMetrics: 1
CreationTime: 1239168599
ModificationTime: 1360686613
PfmFamily: 17
TTFWeight: 400
TTFWidth: 5
LineGap: 48
VLineGap: 0
Panose: 2 0 5 5 5 0 0 2 0 4
OS2TypoAscent: 0
OS2TypoAOffset: 1
OS2TypoDescent: 0
OS2TypoDOffset: 1
OS2TypoLinegap: 48
OS2WinAscent: -41
OS2WinAOffset: 1
OS2WinDescent: 7
OS2WinDOffset: 1
HheadAscent: -184
HheadAOffset: 1
HheadDescent: -7
HheadDOffset: 1
OS2SubXSize: 717
OS2SubYSize: 666
OS2SubXOff: 0
OS2SubYOff: 143
OS2SupXSize: 717
OS2SupYSize: 666
OS2SupXOff: 0
OS2SupYOff: 488
OS2StrikeYSize: 51
OS2StrikeYPos: 256
OS2Vendor: 'shyf'
OS2CodePages: 20000011.00000000
OS2UnicodeRanges: a00002af.4000205b.00000000.00000000
MarkAttachClasses: 1
DEI: 91125
TtTable: prep
PUSHW_1
 0
CALL
SVTCA[y-axis]
PUSHW_3
 1
 3
 2
CALL
SVTCA[x-axis]
PUSHW_3
 4
 4
 2
CALL
SVTCA[x-axis]
PUSHW_8
 4
 27
 22
 17
 12
 10
 0
 8
CALL
PUSHW_8
 5
 110
 90
 70
 50
 30
 0
 8
CALL
PUSHW_8
 6
 44
 32
 25
 19
 10
 0
 8
CALL
PUSHW_8
 7
 38
 32
 25
 19
 10
 0
 8
CALL
SVTCA[y-axis]
PUSHW_8
 1
 37
 32
 25
 19
 10
 0
 8
CALL
PUSHW_8
 2
 61
 50
 39
 28
 15
 0
 8
CALL
PUSHW_8
 3
 48
 39
 31
 19
 15
 0
 8
CALL
SVTCA[y-axis]
PUSHW_3
 8
 4
 7
CALL
PUSHW_1
 0
DUP
RCVT
RDTG
ROUND[Black]
RTG
WCVTP
EndTTInstrs
TtTable: fpgm
PUSHW_1
 0
FDEF
MPPEM
PUSHW_1
 9
LT
IF
PUSHB_2
 1
 1
INSTCTRL
EIF
PUSHW_1
 511
SCANCTRL
PUSHW_1
 68
SCVTCI
PUSHW_2
 9
 3
SDS
SDB
ENDF
PUSHW_1
 1
FDEF
DUP
DUP
RCVT
ROUND[Black]
WCVTP
PUSHB_1
 1
ADD
ENDF
PUSHW_1
 2
FDEF
PUSHW_1
 1
LOOPCALL
POP
ENDF
PUSHW_1
 3
FDEF
DUP
GC[cur]
PUSHB_1
 3
CINDEX
GC[cur]
GT
IF
SWAP
EIF
DUP
ROLL
DUP
ROLL
MD[grid]
ABS
ROLL
DUP
GC[cur]

StartChar: .notdef
Encoding: 65536 -1 0
Width: 647
Flags: W
HStem: 20 21<57 590> 676 20<57 590>
VStem: 37 20<41 676> 590 20<41 676>
LayerCount: 2
Fore
SplineSet
37 696 m 1,0,-1
 610 696 l 1,1,-1
 610 20 l 1,2,-1
 37 20 l 1,3,-1
 37 696 l 1,0,-1
590 41 m 1,4,-1
 590 676 l 1,5,-1
 57 676 l 1,6,-1
 57 41 l 1,7,-1
 590 41 l 1,4,-1
EndSplineSet
EndChar

StartChar: dollar
Encoding: 36 36 2
Width: 643
Flags: W
HStem: 0 153.6<103.7 243 398 404> 299 119<237 404> 561 156<237 243 398 563.917>
VStem: 22 215<418 561> 243 155<-119 0 717 837> 404 216<156 299>
LayerCount: 2
Fore
SplineSet
103.7 153.6 m 1,0,-1
 404 156 l 1,1,-1
 404 299 l 1,2,-1
 93 299 l 2,3,4
 65 299 65 299 43.5 320 c 128,-1,5
 22 341 22 341 22 371 c 2,6,-1
 22 645 l 2,7,8
 22 674 22 674 44 695.5 c 128,-1,9
 66 717 66 717 93 717 c 2,10,-1
 243 717 l 1,11,-1
 243 837 l 1,12,-1
 398 837 l 1,13,-1
 398 717 l 1,14,-1
 620 717 l 1,15,-1
 563.917 561 l 5,16,-1
 237 561 l 1,17,-1
 237 418 l 1,18,-1
 548 418 l 2,19,20
 576 418 576 418 598 396.5 c 128,-1,21
 620 375 620 375 620 346 c 2,22,-1
 620 72 l 2,23,24
 620 42 620 42 597.5 21 c 128,-1,25
 575 0 575 0 548 0 c 2,26,-1
 398 0 l 1,27,-1
 398 -119 l 1,28,-1
 243 -119 l 1,29,-1
 243 0 l 1,30,-1
 31.4365 0 l 1,31,-1
 103.7 153.6 l 1,0,-1
EndSplineSet
EndChar

StartChar: percent
Encoding: 37 37 3
Width: 821
Flags: W
HStem: 0 78<634 687> 281 77<634 687> 358 78<134 187> 639 78<134 187>
VStem: 27 107<436 639> 187 108<436 639> 526 108<78 281> 687 108<78 281>
LayerCount: 2
Fore
SplineSet
523 717 m 1,0,-1
 646 717 l 1,1,-1
 298 0 l 1,2,-1
 175 0 l 1,3,-1
 523 717 l 1,0,-1
37 369 m 1,4,5
 27 380 27 380 27 394 c 2,6,-1
 27 681 l 2,7,8
 27 695 27 695 37.5 706 c 128,-1,9
 48 717 48 717 62 717 c 2,10,-1
 259 717 l 2,11,12
 273 717 273 717 284.5 706 c 128,-1,13
 296 695 296 695 298 681 c 1,14,-1
 295 394 l 2,15,16
 295 380 295 380 284 369 c 128,-1,17
 273 358 273 358 259 358 c 2,18,-1
 62 358 l 2,19,20
 48 359 48 359 37 369 c 1,4,5
187 436 m 1,21,-1
 187 639 l 1,22,-1
 134 639 l 1,23,-1
 134 436 l 1,24,-1
 187 436 l 1,21,-1
526 323 m 2,25,26
 526 337 526 337 537 347.5 c 128,-1,27
 548 358 548 358 562 358 c 2,28,-1
 759 358 l 2,29,30
 773 358 773 358 784 347.5 c 128,-1,31
 795 337 795 337 795 323 c 2,32,-1
 795 36 l 2,33,34
 795 22 795 22 784 11 c 128,-1,35
 773 0 773 0 759 0 c 2,36,-1
 562 0 l 2,37,38
 548 0 548 0 537 11 c 128,-1,39
 526 22 526 22 526 36 c 2,40,-1
 526 323 l 2,25,26
687 78 m 1,41,-1
 687 281 l 1,42,-1
 634 281 l 1,43,-1
 634 78 l 1,44,-1
 687 78 l 1,41,-1
EndSplineSet
EndChar

StartChar: ampersand
Encoding: 38 38 4
Width: 581
Flags: W
HStem: 0 156<374 564> 299 119<243 445> 561 156<374 564>
VStem: 28 215<156 299 418.037 561> 218 156<-119 0 717 837>
CounterMasks: 1 e0
LayerCount: 2
Fore
SplineSet
28 299 m 2,0,1
 28 323 28 323 48 339 c 128,-1,2
 68 355 68 355 96 358 c 1,3,4
 68 358 68 358 48 380 c 128,-1,5
 28 402 28 402 28 430 c 2,6,-1
 28 645 l 2,7,8
 28 674 28 674 49.5 695.5 c 128,-1,9
 71 717 71 717 99 717 c 2,10,-1
 218 717 l 1,11,-1
 218 837 l 1,12,-1
 374 837 l 1,13,-1
 374 717 l 1,14,-1
 564 717 l 1,15,-1
 564 561 l 1,16,-1
 243 561 l 1,17,-1
 243 418 l 1,18,-1
 445 418 l 1,19,-1
 445 299 l 1,20,-1
 243 299 l 1,21,-1
 243 156 l 1,22,-1
 564 156 l 1,23,-1
 564 0 l 1,24,-1
 374 0 l 1,25,-1
 374 -119 l 1,26,-1
 218 -119 l 1,27,-1
 218 0 l 1,28,-1
 99 0 l 2,29,30
 70 0 70 0 49 21.5 c 128,-1,31
 28 43 28 43 28 72 c 2,32,-1
 28 299 l 2,0,1
EndSplineSet
EndChar

StartChar: quotesingle
Encoding: 39 39 5
Width: 258
Flags: W
HStem: 412 274<81 177>
VStem: 22 215
LayerCount: 2
Fore
SplineSet
81 686 m 1,0,-1
 237 686 l 1,1,-1
 177 412 l 1,2,-1
 22 412 l 1,3,-1
 81 686 l 1,0,-1
EndSplineSet
EndChar

StartChar: parenleft
Encoding: 40 40 6
Width: 317
Flags: W
VStem: 22 154<145.302 572.029>
LayerCount: 2
Fore
SplineSet
50 109 m 0,0,1
 21 228 21 228 22 358 c 256,2,3
 22 489 22 489 51 608.5 c 128,-1,4
 80 728 80 728 141 837 c 1,5,-1
 296 837 l 1,6,7
 176 622 176 622 176 358 c 0,8,9
 176 96 176 96 296 -119 c 1,10,-1
 141 -119 l 1,11,12
 80 -10 80 -10 50 109 c 0,0,1
EndSplineSet
EndChar

StartChar: parenright
Encoding: 41 41 7
Width: 317
Flags: W
VStem: 141 155<138.32 570.078>
LayerCount: 2
Fore
SplineSet
22 -119 m 1,0,1
 142 96 142 96 141 358 c 0,2,3
 141 618 141 618 22 837 c 1,4,-1
 176 837 l 1,5,6
 237 727 237 727 266.5 608 c 128,-1,7
 296 489 296 489 296 358 c 256,8,9
 296 227 296 227 267 108.5 c 128,-1,10
 238 -10 238 -10 176 -119 c 1,11,-1
 22 -119 l 1,0,1
EndSplineSet
EndChar

StartChar: asterisk
Encoding: 42 42 8
Width: 540
Flags: W
HStem: 697 20G<219 322>
VStem: 219 103<184 354.24 545.864 717> 226 88<203.76 374 526 697.136>
LayerCount: 2
Fore
SplineSet
14 361 m 1,0,-1
 182 451 l 1,1,-1
 14 540 l 1,2,-1
 66 628 l 1,3,-1
 226 526 l 1,4,-1
 219 717 l 1,5,-1
 322 717 l 1,6,-1
 314 526 l 1,7,-1
 475 628 l 1,8,-1
 526 540 l 1,9,-1
 358 451 l 1,10,-1
 526 361 l 1,11,-1
 475 273 l 1,12,-1
 314 374 l 1,13,-1
 322 184 l 1,14,-1
 219 184 l 1,15,-1
 226 374 l 1,16,-1
 66 273 l 1,17,-1
 14 361 l 1,0,-1
EndSplineSet
EndChar

StartChar: plus
Encoding: 43 43 9
Width: 495
Flags: W
HStem: 307 103<7 197 299 488>
VStem: 197 102<118 307 410 599>
LayerCount: 2
Fore
SplineSet
197 307 m 1,0,-1
 7 307 l 1,1,-1
 7 410 l 1,2,-1
 197 410 l 1,3,-1
 197 599 l 1,4,-1
 299 599 l 1,5,-1
 299 410 l 1,6,-1
 488 410 l 1,7,-1
 488 307 l 1,8,-1
 299 307 l 1,9,-1
 299 118 l 1,10,-1
 197 118 l 1,11,-1
 197 307 l 1,0,-1
EndSplineSet
EndChar

StartChar: comma
Encoding: 44 44 10
Width: 258
Flags: W
HStem: -120 274<81 177>
VStem: 22 215
LayerCount: 2
Fore
SplineSet
81 154 m 1,0,-1
 237 154 l 1,1,-1
 177 -120 l 1,2,-1
 22 -120 l 1,3,-1
 81 154 l 1,0,-1
EndSplineSet
EndChar

StartChar: hyphen
Encoding: 45 45 11
Width: 556
Flags: W
HStem: 307 103<37 518>
LayerCount: 2
Fore
SplineSet
37 410 m 1,0,-1
 518 410 l 1,1,-1
 518 307 l 1,2,-1
 37 307 l 1,3,-1
 37 410 l 1,0,-1
EndSplineSet
EndChar

StartChar: period
Encoding: 46 46 12
Width: 231
Flags: W
HStem: 0 156<37 193>
VStem: 37 156<0 156>
LayerCount: 2
Fore
SplineSet
37 156 m 1,0,-1
 193 156 l 1,1,-1
 193 0 l 1,2,-1
 37 0 l 1,3,-1
 37 156 l 1,0,-1
EndSplineSet
EndChar

StartChar: slash
Encoding: 47 47 13
Width: 540
Flags: W
LayerCount: 2
Fore
SplineSet
355 837 m 1,0,-1
 535 837 l 1,1,-1
 186 -119 l 1,2,-1
 7 -119 l 1,3,-1
 355 837 l 1,0,-1
EndSplineSet
EndChar

StartChar: zero
Encoding: 48 48 14
Width: 868
Flags: W
HStem: 0 156<350 518> 561 156<350 518>
VStem: 135 215<156 561> 518 215<156 561>
LayerCount: 2
Fore
SplineSet
135 645 m 2,0,1
 135 674 135 674 157 695.5 c 128,-1,2
 179 717 179 717 207 717 c 2,3,-1
 662 717 l 2,4,5
 690 717 690 717 711.5 695.5 c 128,-1,6
 733 674 733 674 733 645 c 2,7,-1
 733 72 l 2,8,9
 733 42 733 42 711 21 c 128,-1,10
 689 0 689 0 662 0 c 2,11,-1
 207 0 l 2,12,13
 179 0 179 0 157 21 c 128,-1,14
 135 42 135 42 135 72 c 2,15,-1
 135 645 l 2,0,1
518 156 m 1,16,-1
 518 561 l 1,17,-1
 350 561 l 1,18,-1
 350 156 l 1,19,-1
 518 156 l 1,16,-1
EndSplineSet
EndChar

StartChar: one
Encoding: 49 49 15
Width: 580
Flags: W
HStem: 0 21G<229 444> 697 20G<172.897 444>
VStem: 229 215<0 561>
LayerCount: 2
Fore
SplineSet
229 561 m 1,0,-1
 111 561 l 1,1,-1
 182 717 l 1,2,-1
 444 717 l 1,3,-1
 444 0 l 1,4,-1
 229 0 l 1,5,-1
 229 561 l 1,0,-1
EndSplineSet
EndChar

StartChar: two
Encoding: 50 50 16
Width: 868
Flags: W
HStem: 0 156<350 733> 299 119<350 518> 561 156<135 518>
VStem: 135 215<156 299> 518 215<418 561>
CounterMasks: 1 e0
LayerCount: 2
Fore
SplineSet
135 346 m 2,0,1
 135 375 135 375 157 396.5 c 128,-1,2
 179 418 179 418 207 418 c 2,3,-1
 518 418 l 1,4,-1
 518 561 l 1,5,-1
 135 561 l 1,6,-1
 135 717 l 1,7,-1
 662 717 l 2,8,9
 690 717 690 717 711.5 695.5 c 128,-1,10
 733 674 733 674 733 645 c 2,11,-1
 733 371 l 2,12,13
 733 341 733 341 711 320 c 128,-1,14
 689 299 689 299 662 299 c 2,15,-1
 350 299 l 1,16,-1
 350 156 l 1,17,-1
 733 156 l 1,18,-1
 733 0 l 1,19,-1
 207 0 l 2,20,21
 179 0 179 0 157 21 c 128,-1,22
 135 42 135 42 135 72 c 2,23,-1
 135 346 l 2,0,1
EndSplineSet
EndChar

StartChar: three
Encoding: 51 51 17
Width: 868
Flags: W
HStem: 0 156<135 518> 299 119<255 518> 561 156<135 518>
VStem: 518 215<156 299 418.528 561>
CounterMasks: 1 e0
LayerCount: 2
Fore
SplineSet
135 156 m 1,0,-1
 518 156 l 1,1,-1
 518 299 l 1,2,-1
 255 299 l 1,3,-1
 255 418 l 1,4,-1
 518 418 l 1,5,-1
 518 561 l 1,6,-1
 135 561 l 1,7,-1
 135 717 l 1,8,-1
 662 717 l 2,9,10
 690 717 690 717 711.5 695.5 c 128,-1,11
 733 674 733 674 733 645 c 2,12,-1
 733 430 l 2,13,14
 733 401 733 401 711.5 379.5 c 128,-1,15
 690 358 690 358 664 358 c 1,16,17
 689 355 689 355 711 340 c 128,-1,18
 733 325 733 325 733 299 c 2,19,-1
 733 72 l 2,20,21
 733 42 733 42 711 21 c 128,-1,22
 689 0 689 0 662 0 c 2,23,-1
 135 0 l 1,24,-1
 135 156 l 1,0,-1
EndSplineSet
EndChar

StartChar: four
Encoding: 52 52 18
Width: 832
Flags: W
HStem: 0 21G<502 717> 179 120<334 502> 697 20G<119 334>
VStem: 119 215<299 717> 502 215<0 179 299 478>
LayerCount: 2
Fore
SplineSet
119 717 m 1,0,-1
 334 717 l 1,1,-1
 334 299 l 1,2,-1
 502 299 l 1,3,-1
 502 478 l 1,4,-1
 717 478 l 1,5,-1
 717 0 l 1,6,-1
 502 0 l 1,7,-1
 502 179 l 1,8,-1
 119 179 l 1,9,-1
 119 717 l 1,0,-1
EndSplineSet
EndChar

StartChar: five
Encoding: 53 53 19
Width: 866
Flags: W
HStem: 0 156<205 516> 299 119<348 516> 561 156<348 731>
VStem: 133 215<418 561> 516 215<156 299>
CounterMasks: 1 e0
LayerCount: 2
Fore
SplineSet
205 156 m 1,0,-1
 516 156 l 1,1,-1
 516 299 l 1,2,-1
 133 299 l 1,3,-1
 133 717 l 1,4,-1
 731 717 l 1,5,-1
 731 561 l 1,6,-1
 348 561 l 1,7,-1
 348 418 l 1,8,-1
 659 418 l 2,9,10
 687 418 687 418 709 396.5 c 128,-1,11
 731 375 731 375 731 346 c 2,12,-1
 731 72 l 2,13,14
 731 42 731 42 709 21 c 128,-1,15
 687 0 687 0 659 0 c 2,16,-1
 133 0 l 1,17,-1
 205 156 l 1,0,-1
EndSplineSet
EndChar

StartChar: six
Encoding: 54 54 20
Width: 866
Flags: W
HStem: 0 156<350 518> 346 120<350 518> 561 156<350 662>
VStem: 135 215<156 346 466 561> 518 215<156 346>
LayerCount: 2
Fore
SplineSet
135 645 m 2,0,1
 135 674 135 674 157 695.5 c 128,-1,2
 179 717 179 717 207 717 c 2,3,-1
 733 717 l 1,4,-1
 662 561 l 1,5,-1
 350 561 l 1,6,-1
 350 466 l 1,7,-1
 662 466 l 2,8,9
 690 466 690 466 711.5 444.5 c 128,-1,10
 733 423 733 423 733 394 c 2,11,-1
 733 72 l 2,12,13
 733 42 733 42 711 21 c 128,-1,14
 689 0 689 0 662 0 c 2,15,-1
 207 0 l 2,16,17
 179 0 179 0 157 21 c 128,-1,18
 135 42 135 42 135 72 c 2,19,-1
 135 645 l 2,0,1
518 156 m 1,20,-1
 518 346 l 1,21,-1
 350 346 l 1,22,-1
 350 156 l 1,23,-1
 518 156 l 1,20,-1
EndSplineSet
EndChar

StartChar: seven
Encoding: 55 55 21
Width: 831
Flags: W
HStem: 0 21G<263 484.695> 561 156<120 451>
LayerCount: 2
Fore
SplineSet
451 561 m 1,0,-1
 120 561 l 1,1,-1
 120 717 l 1,2,-1
 718 717 l 1,3,-1
 478 0 l 1,4,-1
 263 0 l 1,5,-1
 451 561 l 1,0,-1
EndSplineSet
EndChar

StartChar: eight
Encoding: 56 56 22
Width: 868
Flags: W
HStem: 0 156<350 518> 299 119<350 518> 561 156<350 518>
VStem: 135 215<156 299 418.365 561> 518 215<156 299 418.528 561>
CounterMasks: 1 e0
LayerCount: 2
Fore
SplineSet
135 299 m 2,0,1
 135 323 135 323 156 339 c 128,-1,2
 177 355 177 355 204 358 c 1,3,4
 191 358 191 358 178.5 364.5 c 128,-1,5
 166 371 166 371 156 380.5 c 128,-1,6
 146 390 146 390 140.5 403 c 128,-1,7
 135 416 135 416 135 430 c 2,8,-1
 135 645 l 2,9,10
 135 674 135 674 157 695.5 c 128,-1,11
 179 717 179 717 207 717 c 2,12,-1
 662 717 l 2,13,14
 690 717 690 717 711.5 695.5 c 128,-1,15
 733 674 733 674 733 645 c 2,16,-1
 733 430 l 2,17,18
 733 401 733 401 711.5 379.5 c 128,-1,19
 690 358 690 358 664 358 c 1,20,21
 689 355 689 355 711 340 c 128,-1,22
 733 325 733 325 733 299 c 2,23,-1
 733 72 l 2,24,25
 733 42 733 42 711 21 c 128,-1,26
 689 0 689 0 662 0 c 2,27,-1
 207 0 l 2,28,29
 179 0 179 0 157 21 c 128,-1,30
 135 42 135 42 135 72 c 2,31,-1
 135 299 l 2,0,1
518 418 m 1,32,-1
 518 561 l 1,33,-1
 350 561 l 1,34,-1
 350 418 l 1,35,-1
 518 418 l 1,32,-1
518 156 m 1,36,-1
 518 299 l 1,37,-1
 350 299 l 1,38,-1
 350 156 l 1,39,-1
 518 156 l 1,36,-1
EndSplineSet
EndChar

StartChar: nine
Encoding: 57 57 23
Width: 866
Flags: W
HStem: 0 156<205 516> 251 120<348 516> 561 156<348 516>
VStem: 133 215<371 561> 516 215<156 251 371 561>
LayerCount: 2
Fore
SplineSet
205 156 m 1,0,-1
 516 156 l 1,1,-1
 516 251 l 1,2,-1
 205 251 l 2,3,4
 177 251 177 251 155 272 c 128,-1,5
 133 293 133 293 133 323 c 2,6,-1
 133 645 l 2,7,8
 133 674 133 674 155 695.5 c 128,-1,9
 177 717 177 717 205 717 c 2,10,-1
 659 717 l 2,11,12
 687 717 687 717 709 695.5 c 128,-1,13
 731 674 731 674 731 645 c 2,14,-1
 731 72 l 2,15,16
 731 42 731 42 709 21 c 128,-1,17
 687 0 687 0 659 0 c 2,18,-1
 133 0 l 1,19,-1
 205 156 l 1,0,-1
516 371 m 1,20,-1
 516 561 l 1,21,-1
 348 561 l 1,22,-1
 348 371 l 1,23,-1
 516 371 l 1,20,-1
EndSplineSet
EndChar

StartChar: colon
Encoding: 58 58 24
Width: 206
Flags: W
HStem: 0 155<37 193> 383 155<37 193>
VStem: 37 156<0 155 383 538>
LayerCount: 2
Fore
SplineSet
37 538 m 1,0,-1
 193 538 l 1,1,-1
 193 383 l 1,2,-1
 37 383 l 1,3,-1
 37 538 l 1,0,-1
37 155 m 1,4,-1
 193 155 l 1,5,-1
 193 0 l 1,6,-1
 37 0 l 1,7,-1
 37 155 l 1,4,-1
EndSplineSet
EndChar

StartChar: semicolon
Encoding: 59 59 25
Width: 261
Flags: W
HStem: 381 156<79 234>
VStem: 79 155<121.266 154 381 537>
LayerCount: 2
Fore
SplineSet
79 537 m 1,0,-1
 234 537 l 1,1,-1
 234 381 l 1,2,-1
 79 381 l 1,3,-1
 79 537 l 1,0,-1
79 154 m 1,4,-1
 234 154 l 1,5,-1
 175 -120 l 1,6,-1
 19 -120 l 1,7,-1
 79 154 l 1,4,-1
EndSplineSet
EndChar

StartChar: less
Encoding: 60 60 26
Width: 579
Flags: W
LayerCount: 2
Fore
SplineSet
5 418 m 1,0,-1
 497 657 l 1,1,-1
 548 551 l 1,2,-1
 153 358 l 1,3,-1
 548 166 l 1,4,-1
 497 59 l 1,5,-1
 5 299 l 1,6,-1
 5 418 l 1,0,-1
EndSplineSet
EndChar

StartChar: equal
Encoding: 61 61 27
Width: 536
Flags: W
HStem: 205 102<37 518> 410 102<37 518>
LayerCount: 2
Fore
SplineSet
37 512 m 1,0,-1
 518 512 l 1,1,-1
 518 410 l 1,2,-1
 37 410 l 1,3,-1
 37 512 l 1,0,-1
37 307 m 1,4,-1
 518 307 l 1,5,-1
 518 205 l 1,6,-1
 37 205 l 1,7,-1
 37 307 l 1,4,-1
EndSplineSet
EndChar

StartChar: greater
Encoding: 62 62 28
Width: 578
Flags: W
LayerCount: 2
Fore
SplineSet
31 166 m 1,0,-1
 426 358 l 1,1,-1
 31 551 l 1,2,-1
 82 657 l 1,3,-1
 573 418 l 1,4,-1
 573 299 l 1,5,-1
 82 59 l 1,6,-1
 31 166 l 1,0,-1
EndSplineSet
EndChar

StartChar: question
Encoding: 63 63 29
Width: 596
Flags: W
HStem: 0 156<37 191>
VStem: 37 154<0 156 215 299 538 597> 431 155<418 597>
LayerCount: 2
Fore
SplineSet
37 346 m 2,0,1
 37 375 37 375 58.5 396.5 c 128,-1,2
 80 418 80 418 109 418 c 2,3,-1
 431 418 l 1,4,-1
 431 597 l 1,5,-1
 191 597 l 1,6,-1
 191 538 l 1,7,-1
 37 538 l 1,8,-1
 37 645 l 2,9,10
 37 674 37 674 58.5 695.5 c 128,-1,11
 80 717 80 717 109 717 c 2,12,-1
 514 717 l 2,13,14
 543 717 543 717 564.5 695.5 c 128,-1,15
 586 674 586 674 586 645 c 2,16,-1
 586 371 l 2,17,18
 586 342 586 342 564.5 320.5 c 128,-1,19
 543 299 543 299 514 299 c 2,20,-1
 191 299 l 1,21,-1
 191 215 l 1,22,-1
 37 215 l 1,23,-1
 37 346 l 2,0,1
37 156 m 1,24,-1
 191 156 l 1,25,-1
 191 0 l 1,26,-1
 37 0 l 1,27,-1
 37 156 l 1,24,-1
EndSplineSet
EndChar

StartChar: at
Encoding: 64 64 30
Width: 751
Flags: W
HStem: 54 86<157 716> 208 87<343 410 531 594> 323 65<343 410> 423 87<221 410> 575 88<157 594>
VStem: 37 120<140 575> 410 121<295 323 388 423> 594 122<295 575>
LayerCount: 2
Fore
SplineSet
48 66 m 0,0,1
 37 78 37 78 37 93 c 2,2,-1
 37 623 l 2,3,4
 37 639 37 639 48 651 c 128,-1,5
 59 663 59 663 76 663 c 2,6,-1
 675 663 l 2,7,8
 692 663 692 663 704 651.5 c 128,-1,9
 716 640 716 640 716 623 c 2,10,-1
 716 248 l 2,11,12
 716 208 716 208 675 208 c 2,13,-1
 262 208 l 2,14,15
 247 208 247 208 234 219.5 c 128,-1,16
 221 231 221 231 221 248 c 2,17,-1
 221 349 l 2,18,19
 221 365 221 365 234 376.5 c 128,-1,20
 247 388 247 388 262 388 c 2,21,-1
 410 388 l 1,22,-1
 410 423 l 1,23,-1
 221 423 l 1,24,-1
 221 510 l 1,25,-1
 490 510 l 2,26,27
 505 510 505 510 518 497 c 128,-1,28
 531 484 531 484 531 469 c 2,29,-1
 531 295 l 1,30,-1
 594 295 l 1,31,-1
 594 575 l 1,32,-1
 157 575 l 1,33,-1
 157 140 l 1,34,-1
 716 140 l 1,35,-1
 716 54 l 1,36,-1
 76 54 l 2,37,38
 59 55 59 55 48 66 c 0,0,1
410 295 m 1,39,-1
 410 323 l 1,40,-1
 343 323 l 1,41,-1
 343 295 l 1,42,-1
 410 295 l 1,39,-1
EndSplineSet
EndChar

StartChar: A
Encoding: 65 65 31
Width: 869
Flags: W
HStem: 0 153.6<431.1 549> 697 20G<305.715 562.312>
LayerCount: 2
Fore
SplineSet
314 717 m 1,0,-1
 554 717 l 1,1,-1
 852 0 l 1,2,-1
 375 0 l 1,3,-1
 431.1 153.6 l 1,4,-1
 549 156 l 1,5,-1
 434 430 l 1,6,-1
 255 0 l 1,7,-1
 17 0 l 1,8,-1
 314 717 l 1,0,-1
EndSplineSet
EndChar

StartChar: B
Encoding: 66 66 32
Width: 671
Flags: W
HStem: 0 156<252 420> 299 119<252 420> 561 156<252 420>
VStem: 37 215<156 299 418 561> 420 215<156 299 418.528 561>
CounterMasks: 1 e0
LayerCount: 2
Fore
SplineSet
37 717 m 1,0,-1
 563 717 l 2,1,2
 591 717 591 717 613 695.5 c 128,-1,3
 635 674 635 674 635 645 c 2,4,-1
 635 430 l 2,5,6
 635 401 635 401 613.5 379.5 c 128,-1,7
 592 358 592 358 565 358 c 1,8,9
 590 355 590 355 612.5 340 c 128,-1,10
 635 325 635 325 635 299 c 2,11,-1
 635 72 l 2,12,13
 635 42 635 42 613 21 c 128,-1,14
 591 0 591 0 563 0 c 2,15,-1
 37 0 l 1,16,-1
 37 717 l 1,0,-1
420 418 m 1,17,-1
 420 561 l 1,18,-1
 252 561 l 1,19,-1
 252 418 l 1,20,-1
 420 418 l 1,17,-1
420 156 m 1,21,-1
 420 299 l 1,22,-1
 252 299 l 1,23,-1
 252 156 l 1,24,-1
 420 156 l 1,21,-1
EndSplineSet
EndChar

StartChar: C
Encoding: 67 67 33
Width: 664
Flags: W
HStem: 0 156<252 563> 561 156<252 563>
VStem: 37 215<156 561>
LayerCount: 2
Fore
SplineSet
37 645 m 2,0,1
 37 674 37 674 59 695.5 c 128,-1,2
 81 717 81 717 109 717 c 2,3,-1
 635 717 l 1,4,-1
 563 561 l 1,5,-1
 252 561 l 1,6,-1
 252 156 l 1,7,-1
 635 156 l 1,8,-1
 563 0 l 1,9,-1
 109 0 l 2,10,11
 81 0 81 0 59 21 c 128,-1,12
 37 42 37 42 37 72 c 2,13,-1
 37 645 l 2,0,1
EndSplineSet
EndChar

StartChar: D
Encoding: 68 68 34
Width: 671
Flags: W
HStem: 0 156<252 420> 561 156<252 420>
VStem: 37 215<156 561> 420 215<156 561>
LayerCount: 2
Fore
SplineSet
37 717 m 1,0,-1
 563 717 l 2,1,2
 591 717 591 717 613 695.5 c 128,-1,3
 635 674 635 674 635 645 c 2,4,-1
 635 72 l 2,5,6
 635 42 635 42 613 21 c 128,-1,7
 591 0 591 0 563 0 c 2,8,-1
 37 0 l 1,9,-1
 37 717 l 1,0,-1
420 156 m 1,10,-1
 420 561 l 1,11,-1
 252 561 l 1,12,-1
 252 156 l 1,13,-1
 420 156 l 1,10,-1
EndSplineSet
EndChar

StartChar: E
Encoding: 69 69 35
Width: 664
Flags: W
HStem: 0 156<252 563> 299 119<252 563> 561 156<252 563>
VStem: 37 215<156 299 418 561>
CounterMasks: 1 e0
LayerCount: 2
Fore
SplineSet
37 717 m 1,0,-1
 635 717 l 1,1,-1
 563 561 l 1,2,-1
 252 561 l 1,3,-1
 252 418 l 1,4,-1
 563 418 l 1,5,-1
 563 299 l 1,6,-1
 252 299 l 1,7,-1
 252 156 l 1,8,-1
 635 156 l 1,9,-1
 563 0 l 1,10,-1
 37 0 l 1,11,-1
 37 717 l 1,0,-1
EndSplineSet
EndChar

StartChar: F
Encoding: 70 70 36
Width: 643
Flags: W
HStem: 0 21G<37 252> 299 119<252 563> 561 156<252 563>
VStem: 37 215<0 299 418 561>
LayerCount: 2
Fore
SplineSet
37 717 m 1,0,-1
 635 717 l 1,1,-1
 563 561 l 1,2,-1
 252 561 l 1,3,-1
 252 418 l 1,4,-1
 563 418 l 1,5,-1
 563 299 l 1,6,-1
 252 299 l 1,7,-1
 252 0 l 1,8,-1
 37 0 l 1,9,-1
 37 717 l 1,0,-1
EndSplineSet
EndChar

StartChar: G
Encoding: 71 71 37
Width: 670
Flags: W
HStem: 0 156<252 420> 299 119<319.1 420> 561 156<252 563>
VStem: 37 215<156 561> 420 215<156 299>
CounterMasks: 1 e0
LayerCount: 2
Fore
SplineSet
37 645 m 2,0,1
 37 674 37 674 59 695.5 c 128,-1,2
 81 717 81 717 109 717 c 2,3,-1
 635 717 l 1,4,-1
 563 561 l 1,5,-1
 252 561 l 1,6,-1
 252 156 l 1,7,-1
 420 156 l 1,8,-1
 420 299 l 1,9,-1
 319.1 299 l 5,10,-1
 319.1 418 l 5,11,-1
 635 418 l 1,12,-1
 635 0 l 1,13,-1
 109 0 l 2,14,15
 81 0 81 0 59 21 c 128,-1,16
 37 42 37 42 37 72 c 2,17,-1
 37 645 l 2,0,1
EndSplineSet
EndChar

StartChar: H
Encoding: 72 72 38
Width: 671
Flags: W
HStem: 0 21G<37 252 420 635> 299 119<252 420> 697 20G<37 252 420 635>
VStem: 37 215<0 299 418 717> 420 215<0 299 418 717>
LayerCount: 2
Fore
SplineSet
37 717 m 1,0,-1
 252 717 l 1,1,-1
 252 418 l 1,2,-1
 420 418 l 1,3,-1
 420 717 l 1,4,-1
 635 717 l 1,5,-1
 635 0 l 1,6,-1
 420 0 l 1,7,-1
 420 299 l 1,8,-1
 252 299 l 1,9,-1
 252 0 l 1,10,-1
 37 0 l 1,11,-1
 37 717 l 1,0,-1
EndSplineSet
EndChar

StartChar: I
Encoding: 73 73 39
Width: 289
Flags: W
HStem: 0 21G<37 252> 697 20G<37 252>
VStem: 37 215<0 717>
LayerCount: 2
Fore
SplineSet
37 717 m 1,0,-1
 252 717 l 1,1,-1
 252 0 l 1,2,-1
 37 0 l 1,3,-1
 37 717 l 1,0,-1
EndSplineSet
EndChar

StartChar: J
Encoding: 74 74 40
Width: 407
Flags: W
HStem: 0 21G<73.7692 312.5> 697 20G<155 370>
VStem: 155 215<156 717>
LayerCount: 2
Fore
SplineSet
11 156 m 1,0,-1
 155 156 l 1,1,-1
 155 717 l 1,2,-1
 370 717 l 1,3,-1
 370 72 l 2,4,5
 370 43 370 43 348.5 21.5 c 128,-1,6
 327 0 327 0 298 0 c 2,7,-1
 83 0 l 1,8,-1
 11 156 l 1,0,-1
EndSplineSet
EndChar

StartChar: K
Encoding: 75 75 41
Width: 665
Flags: W
HStem: 0 21G<37 252.099 371.094 635> 697 20G<37 252 369.333 635>
VStem: 37 215<0 203 537 717>
LayerCount: 2
Fore
SplineSet
37 717 m 1,0,-1
 252 717 l 1,1,-1
 252 537 l 1,2,-1
 384 717 l 1,3,-1
 635 717 l 1,4,-1
 388 383 l 1,5,-1
 635 0 l 1,6,-1
 384 0 l 1,7,-1
 253 203 l 1,8,-1
 252 0 l 1,9,-1
 37 0 l 1,10,-1
 37 717 l 1,0,-1
EndSplineSet
EndChar

StartChar: L
Encoding: 76 76 42
Width: 641
Flags: W
HStem: 0 156<252 563> 697 20G<37 252>
VStem: 37 215<156 717>
LayerCount: 2
Fore
SplineSet
37 717 m 1,0,-1
 252 717 l 1,1,-1
 252 156 l 1,2,-1
 563 156 l 1,3,-1
 635 0 l 1,4,-1
 37 0 l 1,5,-1
 37 717 l 1,0,-1
EndSplineSet
EndChar

StartChar: M
Encoding: 77 77 43
Width: 1052
Flags: W
HStem: 0 21G<37 252 419 634 801 1016> 561 156<252 419 634 801>
VStem: 37 215<0 561> 419 215<0 561> 801 215<0 561>
CounterMasks: 1 38
LayerCount: 2
Fore
SplineSet
37 717 m 1,0,-1
 944 717 l 2,1,2
 973 717 973 717 994.5 695.5 c 128,-1,3
 1016 674 1016 674 1016 645 c 2,4,-1
 1016 0 l 1,5,-1
 801 0 l 1,6,-1
 801 561 l 1,7,-1
 634 561 l 1,8,-1
 634 0 l 1,9,-1
 419 0 l 1,10,-1
 419 561 l 1,11,-1
 252 561 l 1,12,-1
 252 0 l 1,13,-1
 37 0 l 1,14,-1
 37 717 l 1,0,-1
EndSplineSet
EndChar

StartChar: N
Encoding: 78 78 44
Width: 671
Flags: W
HStem: 0 21G<37 252 420 635> 561 156<252 420>
VStem: 37 215<0 561> 420 215<0 561>
LayerCount: 2
Fore
SplineSet
37 717 m 1,0,-1
 563 717 l 2,1,2
 591 717 591 717 613 695.5 c 128,-1,3
 635 674 635 674 635 645 c 2,4,-1
 635 0 l 1,5,-1
 420 0 l 1,6,-1
 420 561 l 1,7,-1
 252 561 l 1,8,-1
 252 0 l 1,9,-1
 37 0 l 1,10,-1
 37 717 l 1,0,-1
EndSplineSet
EndChar

StartChar: O
Encoding: 79 79 45
Width: 671
Flags: W
HStem: 0 156<252 420> 561 156<252 420>
VStem: 37 215<156 561> 420 215<156 561>
LayerCount: 2
Fore
SplineSet
37 645 m 2,0,1
 37 674 37 674 59 695.5 c 128,-1,2
 81 717 81 717 109 717 c 2,3,-1
 563 717 l 2,4,5
 591 717 591 717 613 695.5 c 128,-1,6
 635 674 635 674 635 645 c 2,7,-1
 635 72 l 2,8,9
 635 42 635 42 613 21 c 128,-1,10
 591 0 591 0 563 0 c 2,11,-1
 109 0 l 2,12,13
 81 0 81 0 59 21 c 128,-1,14
 37 42 37 42 37 72 c 2,15,-1
 37 645 l 2,0,1
420 156 m 1,16,-1
 420 561 l 1,17,-1
 252 561 l 1,18,-1
 252 156 l 1,19,-1
 420 156 l 1,16,-1
EndSplineSet
EndChar

StartChar: P
Encoding: 80 80 46
Width: 650
Flags: W
HStem: 0 21G<37 252> 251 120<252 420> 561 156<252 420>
VStem: 37 215<0 251 371 561> 420 215<371 561>
LayerCount: 2
Fore
SplineSet
37 717 m 1,0,-1
 563 717 l 2,1,2
 591 717 591 717 613 695.5 c 128,-1,3
 635 674 635 674 635 645 c 2,4,-1
 635 323 l 2,5,6
 635 293 635 293 613 272 c 128,-1,7
 591 251 591 251 563 251 c 2,8,-1
 252 251 l 1,9,-1
 252 0 l 1,10,-1
 37 0 l 1,11,-1
 37 717 l 1,0,-1
420 371 m 1,12,-1
 420 561 l 1,13,-1
 252 561 l 1,14,-1
 252 371 l 1,15,-1
 420 371 l 1,12,-1
EndSplineSet
EndChar

StartChar: Q
Encoding: 81 81 47
Width: 734
Flags: W
HStem: 0 156<252 420> 561 156<252 420>
VStem: 37 215<156 561> 420 215<156 561>
LayerCount: 2
Fore
SplineSet
37 645 m 2,0,1
 37 674 37 674 59 695.5 c 128,-1,2
 81 717 81 717 109 717 c 2,3,-1
 563 717 l 2,4,5
 591 717 591 717 613 695.5 c 128,-1,6
 635 674 635 674 635 645 c 2,7,-1
 635 156 l 1,8,-1
 707 0 l 1,9,-1
 109 0 l 2,10,11
 81 0 81 0 59 21 c 128,-1,12
 37 42 37 42 37 72 c 2,13,-1
 37 645 l 2,0,1
420 156 m 1,14,-1
 420 561 l 1,15,-1
 252 561 l 1,16,-1
 252 156 l 1,17,-1
 420 156 l 1,14,-1
EndSplineSet
EndChar

StartChar: R
Encoding: 82 82 48
Width: 689
Flags: W
HStem: 0 21G<37 252 457.813 657> 561 156<252 419>
VStem: 37 215<0 561> 419 215<418 561>
LayerCount: 2
Fore
SplineSet
37 717 m 1,0,-1
 562 717 l 2,1,2
 591 717 591 717 612.5 695.5 c 128,-1,3
 634 674 634 674 634 645 c 2,4,-1
 634 371 l 2,5,6
 634 342 634 342 612.5 320.5 c 128,-1,7
 591 299 591 299 562 299 c 2,8,-1
 520 299 l 1,9,-1
 657 0 l 1,10,-1
 467 0 l 1,11,-1
 275 418 l 1,12,-1
 419 418 l 1,13,-1
 419 561 l 1,14,-1
 252 561 l 1,15,-1
 252 0 l 1,16,-1
 37 0 l 1,17,-1
 37 717 l 1,0,-1
EndSplineSet
EndChar

StartChar: S
Encoding: 83 83 49
Width: 668
Flags: W
HStem: 0 156<103 417> 299 119<249 417> 561 156<249 564>
VStem: 34 215<418 561> 417 215<156 299>
CounterMasks: 1 e0
LayerCount: 2
Fore
SplineSet
103 156 m 1,0,-1
 417 156 l 1,1,-1
 417 299 l 1,2,-1
 105 299 l 2,3,4
 77 299 77 299 55.5 320 c 128,-1,5
 34 341 34 341 34 371 c 2,6,-1
 34 645 l 2,7,8
 34 674 34 674 56 695.5 c 128,-1,9
 78 717 78 717 105 717 c 2,10,-1
 632 717 l 1,11,-1
 564 561 l 1,12,-1
 249 561 l 1,13,-1
 249 418 l 1,14,-1
 560 418 l 2,15,16
 588 418 588 418 610 396.5 c 128,-1,17
 632 375 632 375 632 346 c 2,18,-1
 632 72 l 2,19,20
 632 42 632 42 610 21 c 128,-1,21
 588 0 588 0 560 0 c 2,22,-1
 31 0 l 1,23,-1
 103 156 l 1,0,-1
EndSplineSet
EndChar

StartChar: T
Encoding: 84 84 50
Width: 636
Flags: W
HStem: 0 21G<211 426> 561 156<19 211 426 617>
VStem: 211 215<0 561>
LayerCount: 2
Fore
SplineSet
211 561 m 1,0,-1
 19 561 l 1,1,-1
 19 717 l 1,2,-1
 617 717 l 1,3,-1
 617 561 l 1,4,-1
 426 561 l 1,5,-1
 426 0 l 1,6,-1
 211 0 l 1,7,-1
 211 561 l 1,0,-1
EndSplineSet
EndChar

StartChar: U
Encoding: 85 85 51
Width: 671
Flags: W
HStem: 0 156<252 420> 697 20G<37 252 420 635>
VStem: 37 215<156 717> 420 215<156 717>
LayerCount: 2
Fore
SplineSet
37 717 m 1,0,-1
 252 717 l 1,1,-1
 252 156 l 1,2,-1
 420 156 l 1,3,-1
 420 717 l 1,4,-1
 635 717 l 1,5,-1
 635 0 l 1,6,-1
 109 0 l 2,7,8
 81 0 81 0 59 21 c 128,-1,9
 37 42 37 42 37 72 c 2,10,-1
 37 717 l 1,0,-1
EndSplineSet
EndChar

StartChar: V
Encoding: 86 86 52
Width: 869
Flags: W
HStem: 0 21G<305.715 562.312> 697 20G<17 263.326 604.674 852>
LayerCount: 2
Fore
SplineSet
17 717 m 1,0,-1
 255 717 l 1,1,-1
 434 287 l 1,2,-1
 613 717 l 1,3,-1
 852 717 l 1,4,-1
 554 0 l 1,5,-1
 314 0 l 1,6,-1
 17 717 l 1,0,-1
EndSplineSet
EndChar

StartChar: W
Encoding: 87 87 53
Width: 1052
Flags: W
HStem: 0 156<252 419 634 801> 697 20G<37 252 419 634 801 1016>
VStem: 37 215<156 717> 419 215<156 717> 801 215<156 717>
CounterMasks: 1 38
LayerCount: 2
Fore
SplineSet
37 717 m 1,0,-1
 252 717 l 1,1,-1
 252 156 l 1,2,-1
 419 156 l 1,3,-1
 419 717 l 1,4,-1
 634 717 l 1,5,-1
 634 156 l 1,6,-1
 801 156 l 1,7,-1
 801 717 l 1,8,-1
 1016 717 l 1,9,-1
 1016 72 l 2,10,11
 1016 43 1016 43 994.5 21.5 c 128,-1,12
 973 0 973 0 944 0 c 2,13,-1
 109 0 l 2,14,15
 80 0 80 0 58.5 21.5 c 128,-1,16
 37 43 37 43 37 72 c 2,17,-1
 37 717 l 1,0,-1
EndSplineSet
EndChar

StartChar: X
Encoding: 88 88 54
Width: 778
Flags: W
HStem: 0 21G<31 306.583 471.417 748> 697 20G<31 306.583 471.417 748>
LayerCount: 2
Fore
SplineSet
258 358 m 1,0,-1
 31 717 l 1,1,-1
 294 717 l 1,2,-1
 389 566 l 1,3,-1
 484 717 l 1,4,-1
 748 717 l 1,5,-1
 520 358 l 1,6,-1
 748 0 l 1,7,-1
 484 0 l 1,8,-1
 389 151 l 1,9,-1
 294 0 l 1,10,-1
 31 0 l 1,11,-1
 258 358 l 1,0,-1
EndSplineSet
EndChar

StartChar: Y
Encoding: 89 89 55
Width: 746
Flags: W
HStem: 0 21G<265 480> 697 20G<15 290.583 455.417 731>
VStem: 265 215<0 323>
LayerCount: 2
Fore
SplineSet
265 323 m 1,0,-1
 15 717 l 1,1,-1
 278 717 l 1,2,-1
 373 566 l 1,3,-1
 468 717 l 1,4,-1
 731 717 l 1,5,-1
 480 323 l 1,6,-1
 480 0 l 1,7,-1
 265 0 l 1,8,-1
 265 323 l 1,0,-1
EndSplineSet
EndChar

StartChar: Z
Encoding: 90 90 56
Width: 658
Flags: W
HStem: 0 156<312 635> 561 156<37 359>
LayerCount: 2
Fore
SplineSet
37 156 m 1,0,-1
 359 561 l 1,1,-1
 37 561 l 1,2,-1
 37 717 l 1,3,-1
 635 717 l 1,4,-1
 635 561 l 1,5,-1
 312 156 l 1,6,-1
 635 156 l 1,7,-1
 635 0 l 1,8,-1
 37 0 l 1,9,-1
 37 156 l 1,0,-1
EndSplineSet
EndChar

StartChar: bracketleft
Encoding: 91 91 57
Width: 323
Flags: W
HStem: -119 61<191 311> 776 61<191 311>
VStem: 37 154<-58 776>
LayerCount: 2
Fore
SplineSet
37 776 m 2,0,1
 37 800 37 800 55 818.5 c 128,-1,2
 73 837 73 837 96 837 c 2,3,-1
 311 837 l 1,4,-1
 311 776 l 1,5,-1
 191 776 l 1,6,-1
 191 -58 l 1,7,-1
 311 -58 l 1,8,-1
 311 -119 l 1,9,-1
 96 -119 l 2,10,11
 72 -119 72 -119 54.5 -100.5 c 128,-1,12
 37 -82 37 -82 37 -58 c 2,13,-1
 37 776 l 2,0,1
EndSplineSet
EndChar

StartChar: backslash
Encoding: 92 92 58
Width: 540
Flags: W
LayerCount: 2
Fore
SplineSet
6 837 m 1,0,-1
 185 837 l 1,1,-1
 534 -119 l 1,2,-1
 354 -119 l 1,3,-1
 6 837 l 1,0,-1
EndSplineSet
EndChar

StartChar: bracketright
Encoding: 93 93 59
Width: 324
Flags: W
HStem: -119 61<12 132> 776 61<12 132>
VStem: 132 155<-58 776>
LayerCount: 2
Fore
SplineSet
132 -58 m 1,0,-1
 132 776 l 1,1,-1
 12 776 l 1,2,-1
 12 837 l 1,3,-1
 227 837 l 2,4,5
 251 837 251 837 269 818.5 c 128,-1,6
 287 800 287 800 287 776 c 2,7,-1
 287 -58 l 2,8,9
 287 -82 287 -82 269 -100.5 c 128,-1,10
 251 -119 251 -119 227 -119 c 2,11,-1
 12 -119 l 1,12,-1
 12 -58 l 1,13,-1
 132 -58 l 1,0,-1
EndSplineSet
EndChar

StartChar: asciicircum
Encoding: 94 94 60
Width: 630
Flags: W
HStem: 697 20G<246.244 384.715>
LayerCount: 2
Fore
SplineSet
16 225 m 1,0,-1
 256 717 l 1,1,-1
 375 717 l 1,2,-1
 614 225 l 1,3,-1
 508 174 l 1,4,-1
 315 569 l 1,5,-1
 123 174 l 1,6,-1
 16 225 l 1,0,-1
EndSplineSet
EndChar

StartChar: underscore
Encoding: 95 95 61
Width: 430
Flags: W
HStem: -135 74<-10 440>
LayerCount: 2
Fore
SplineSet
440 -61 m 1,0,-1
 440 -135 l 1,1,-1
 -10 -135 l 1,2,-1
 -10 -61 l 1,3,-1
 440 -61 l 1,0,-1
EndSplineSet
EndChar

StartChar: grave
Encoding: 96 96 62
Width: 315
Flags: W
HStem: 599 145
VStem: 19 287<646 654>
LayerCount: 2
Fore
SplineSet
19 744 m 1,0,-1
 306 654 l 1,1,-1
 306 599 l 1,2,-1
 19 646 l 1,3,-1
 19 744 l 1,0,-1
EndSplineSet
EndChar

StartChar: a
Encoding: 97 97 63
Width: 622
Flags: W
HStem: 0 155<252 371> 203 119<252 371> 382 156<37 371>
VStem: 37 549<20.8334 155 203 301.167 382 517.167>
LayerCount: 2
Fore
SplineSet
37 251 m 2,0,1
 37 279 37 279 58.5 300.5 c 128,-1,2
 80 322 80 322 109 322 c 2,3,-1
 371 322 l 1,4,-1
 371 382 l 1,5,-1
 37 382 l 1,6,-1
 37 538 l 1,7,-1
 514 538 l 2,8,9
 543 538 543 538 564.5 516.5 c 128,-1,10
 586 495 586 495 586 466 c 2,11,-1
 586 0 l 1,12,-1
 109 0 l 2,13,14
 80 0 80 0 58.5 21.5 c 128,-1,15
 37 43 37 43 37 72 c 2,16,-1
 37 251 l 2,0,1
371 155 m 1,17,-1
 371 203 l 1,18,-1
 252 203 l 1,19,-1
 252 155 l 1,20,-1
 371 155 l 1,17,-1
EndSplineSet
EndChar

StartChar: b
Encoding: 98 98 64
Width: 607
Flags: W
HStem: 0 156<252 371> 382 156<252 371> 697 20G<37 252>
VStem: 37 215<156 382 538 717> 371 215<156 382>
LayerCount: 2
Fore
SplineSet
37 717 m 1,0,-1
 252 717 l 1,1,-1
 252 538 l 1,2,-1
 514 538 l 2,3,4
 543 538 543 538 564.5 516.5 c 128,-1,5
 586 495 586 495 586 466 c 2,6,-1
 586 72 l 2,7,8
 586 43 586 43 564.5 21.5 c 128,-1,9
 543 0 543 0 514 0 c 2,10,-1
 37 0 l 1,11,-1
 37 717 l 1,0,-1
371 156 m 1,12,-1
 371 382 l 1,13,-1
 252 382 l 1,14,-1
 252 156 l 1,15,-1
 371 156 l 1,12,-1
EndSplineSet
EndChar

StartChar: c
Encoding: 99 99 65
Width: 615
Flags: W
HStem: 0 155<252 514> 382 156<252 514>
VStem: 37 215<155 382>
LayerCount: 2
Fore
SplineSet
37 466 m 2,0,1
 37 495 37 495 58.5 516.5 c 128,-1,2
 80 538 80 538 109 538 c 2,3,-1
 586 538 l 1,4,-1
 514 382 l 1,5,-1
 252 382 l 1,6,-1
 252 155 l 1,7,-1
 586 155 l 1,8,-1
 514 0 l 1,9,-1
 109 0 l 2,10,11
 80 0 80 0 58.5 21.5 c 128,-1,12
 37 43 37 43 37 72 c 2,13,-1
 37 466 l 2,0,1
EndSplineSet
EndChar

StartChar: d
Encoding: 100 100 66
Width: 606
Flags: W
HStem: 0 156<236 354> 382 156<236 354> 697 20G<354 569>
VStem: 20 216<156 382> 354 215<156 382 538 717>
LayerCount: 2
Fore
SplineSet
20 466 m 2,0,1
 20 495 20 495 41.5 516.5 c 128,-1,2
 63 538 63 538 92 538 c 2,3,-1
 354 538 l 1,4,-1
 354 717 l 1,5,-1
 569 717 l 1,6,-1
 569 0 l 1,7,-1
 92 0 l 2,8,9
 63 0 63 0 41.5 21.5 c 128,-1,10
 20 43 20 43 20 72 c 2,11,-1
 20 466 l 2,0,1
354 156 m 1,12,-1
 354 382 l 1,13,-1
 236 382 l 1,14,-1
 236 156 l 1,15,-1
 354 156 l 1,12,-1
EndSplineSet
EndChar

StartChar: e
Encoding: 101 101 67
Width: 619
Flags: W
HStem: 0 155<252 514> 203 119<252 371> 382 156<252 371>
LayerCount: 2
Fore
SplineSet
37 466 m 2,0,1
 37 495 37 495 58.5 516.5 c 128,-1,2
 80 538 80 538 109 538 c 2,3,-1
 514 538 l 2,4,5
 543 538 543 538 564.5 516.5 c 128,-1,6
 586 495 586 495 586 466 c 2,7,-1
 586 274 l 2,8,9
 586 245 586 245 564.5 224 c 128,-1,10
 543 203 543 203 514 203 c 2,11,-1
 252 203 l 1,12,-1
 252 155 l 1,13,-1
 586 155 l 1,14,-1
 514 0 l 1,15,-1
 109 0 l 2,16,17
 80 0 80 0 58.5 21.5 c 128,-1,18
 37 43 37 43 37 72 c 2,19,-1
 37 466 l 2,0,1
371 322 m 1,20,-1
 371 382 l 1,21,-1
 252 382 l 1,22,-1
 252 322 l 1,23,-1
 371 322 l 1,20,-1
EndSplineSet
EndChar

StartChar: f
Encoding: 102 102 68
Width: 501
Flags: W
HStem: 0 21G<83 298> 299 119<24 83 298 417> 561 156<298 417>
VStem: 83 215<0 299 418 561>
LayerCount: 2
Fore
SplineSet
83 299 m 1,0,-1
 24 299 l 1,1,-1
 24 418 l 1,2,-1
 83 418 l 1,3,-1
 83 645 l 2,4,5
 83 674 83 674 104.5 695.5 c 128,-1,6
 126 717 126 717 155 717 c 2,7,-1
 488 717 l 1,8,-1
 417 561 l 1,9,-1
 298 561 l 1,10,-1
 298 418 l 1,11,-1
 417 418 l 1,12,-1
 417 299 l 1,13,-1
 298 299 l 1,14,-1
 298 0 l 1,15,-1
 83 0 l 1,16,-1
 83 299 l 1,0,-1
EndSplineSet
EndChar

StartChar: g
Encoding: 103 103 69
Width: 619
Flags: W
HStem: -238 156<105 368> 0 156<249 368> 382 156<249 368>
VStem: 34 215<156 382> 368 215<-82 0 156 382>
LayerCount: 2
Fore
SplineSet
34 466 m 2,0,1
 34 495 34 495 55.5 516.5 c 128,-1,2
 77 538 77 538 105 538 c 2,3,-1
 583 538 l 1,4,-1
 583 -166 l 2,5,6
 583 -195 583 -195 561.5 -216.5 c 128,-1,7
 540 -238 540 -238 511 -238 c 2,8,-1
 105 -238 l 1,9,-1
 34 -82 l 1,10,-1
 368 -82 l 1,11,-1
 368 0 l 1,12,-1
 105 0 l 2,13,14
 76 0 76 0 55 21.5 c 128,-1,15
 34 43 34 43 34 72 c 2,16,-1
 34 466 l 2,0,1
368 156 m 1,17,-1
 368 382 l 1,18,-1
 249 382 l 1,19,-1
 249 156 l 1,20,-1
 368 156 l 1,17,-1
EndSplineSet
EndChar

StartChar: h
Encoding: 104 104 70
Width: 607
Flags: W
HStem: 0 21G<37 252 371 586> 418 120<252 371> 697 20G<37 252>
VStem: 37 215<0 418 538 717> 371 215<0 418>
LayerCount: 2
Fore
SplineSet
37 717 m 1,0,-1
 252 717 l 1,1,-1
 252 538 l 1,2,-1
 514 538 l 2,3,4
 543 538 543 538 564.5 516.5 c 128,-1,5
 586 495 586 495 586 466 c 2,6,-1
 586 0 l 1,7,-1
 371 0 l 1,8,-1
 371 418 l 1,9,-1
 252 418 l 1,10,-1
 252 0 l 1,11,-1
 37 0 l 1,12,-1
 37 717 l 1,0,-1
EndSplineSet
EndChar

StartChar: i
Encoding: 105 105 71
Width: 289
Flags: W
HStem: 0 21G<37 252> 518 20G<37 252> 597 120<37 252>
VStem: 37 215<0 538 597 717>
LayerCount: 2
Fore
SplineSet
37 717 m 1,0,-1
 252 717 l 1,1,-1
 252 597 l 1,2,-1
 37 597 l 1,3,-1
 37 717 l 1,0,-1
37 538 m 1,4,-1
 252 538 l 1,5,-1
 252 0 l 1,6,-1
 37 0 l 1,7,-1
 37 538 l 1,4,-1
EndSplineSet
EndChar

StartChar: j
Encoding: 106 106 72
Width: 401
Flags: W
HStem: -238 21G<70.7692 308.5> 518 20G<151 366> 597 120<151 366>
VStem: 151 215<-82 538 597 717>
LayerCount: 2
Fore
SplineSet
151 717 m 1,0,-1
 366 717 l 1,1,-1
 366 597 l 1,2,-1
 151 597 l 1,3,-1
 151 717 l 1,0,-1
151 -82 m 1,4,-1
 151 538 l 1,5,-1
 366 538 l 1,6,-1
 366 -166 l 2,7,8
 366 -194 366 -194 344.5 -216 c 128,-1,9
 323 -238 323 -238 294 -238 c 2,10,-1
 80 -238 l 1,11,-1
 8 -82 l 1,12,-1
 151 -82 l 1,4,-1
EndSplineSet
EndChar

StartChar: k
Encoding: 107 107 73
Width: 645
Flags: W
HStem: 0 21G<37 252 365.337 635> 518 20G<364.452 635> 697 20G<37 252>
VStem: 37 215<0 199 352 717>
LayerCount: 2
Fore
SplineSet
37 717 m 1,0,-1
 252 717 l 1,1,-1
 252 352 l 1,2,-1
 378 538 l 1,3,-1
 635 538 l 1,4,-1
 444 269 l 1,5,-1
 635 0 l 1,6,-1
 378 0 l 1,7,-1
 252 199 l 1,8,-1
 252 0 l 1,9,-1
 37 0 l 1,10,-1
 37 717 l 1,0,-1
EndSplineSet
EndChar

StartChar: l
Encoding: 108 108 74
Width: 289
Flags: W
HStem: 0 21G<37 252> 697 20G<37 252>
VStem: 37 215<0 717>
LayerCount: 2
Fore
SplineSet
37 717 m 1,0,-1
 252 717 l 1,1,-1
 252 0 l 1,2,-1
 37 0 l 1,3,-1
 37 717 l 1,0,-1
EndSplineSet
EndChar

StartChar: m
Encoding: 109 109 75
Width: 958
Flags: W
HStem: 0 21G<37 252 372 587 707 922> 382 156<252 372 587 707>
VStem: 37 215<0 382> 372 215<0 382> 707 215<0 382>
CounterMasks: 1 38
LayerCount: 2
Fore
SplineSet
37 538 m 1,0,-1
 850 538 l 2,1,2
 878 538 878 538 900 516.5 c 128,-1,3
 922 495 922 495 922 466 c 2,4,-1
 922 0 l 1,5,-1
 707 0 l 1,6,-1
 707 382 l 1,7,-1
 587 382 l 1,8,-1
 587 0 l 1,9,-1
 372 0 l 1,10,-1
 372 382 l 1,11,-1
 252 382 l 1,12,-1
 252 0 l 1,13,-1
 37 0 l 1,14,-1
 37 538 l 1,0,-1
EndSplineSet
EndChar

StartChar: n
Encoding: 110 110 76
Width: 622
Flags: W
HStem: 0 21G<37 252 371 586> 382 156<252 371>
VStem: 37 215<0 382> 371 215<0 382>
LayerCount: 2
Fore
SplineSet
37 538 m 1,0,-1
 514 538 l 2,1,2
 543 538 543 538 564.5 516.5 c 128,-1,3
 586 495 586 495 586 466 c 2,4,-1
 586 0 l 1,5,-1
 371 0 l 1,6,-1
 371 382 l 1,7,-1
 252 382 l 1,8,-1
 252 0 l 1,9,-1
 37 0 l 1,10,-1
 37 538 l 1,0,-1
EndSplineSet
EndChar

StartChar: o
Encoding: 111 111 77
Width: 622
Flags: W
HStem: 0 155<252 371> 382 156<252 371>
VStem: 37 215<155 382> 371 215<155 382>
LayerCount: 2
Fore
SplineSet
37 466 m 2,0,1
 37 495 37 495 58.5 516.5 c 128,-1,2
 80 538 80 538 109 538 c 2,3,-1
 514 538 l 2,4,5
 543 538 543 538 564.5 516.5 c 128,-1,6
 586 495 586 495 586 466 c 2,7,-1
 586 72 l 2,8,9
 586 43 586 43 564.5 21.5 c 128,-1,10
 543 0 543 0 514 0 c 2,11,-1
 109 0 l 2,12,13
 80 0 80 0 58.5 21.5 c 128,-1,14
 37 43 37 43 37 72 c 2,15,-1
 37 466 l 2,0,1
371 155 m 1,16,-1
 371 382 l 1,17,-1
 252 382 l 1,18,-1
 252 155 l 1,19,-1
 371 155 l 1,16,-1
EndSplineSet
EndChar

StartChar: p
Encoding: 112 112 78
Width: 604
Flags: W
HStem: -239 21G<37 252> 0 156<252 371> 382 156<252 371>
VStem: 37 215<-239 0 156 382> 371 215<156 382>
LayerCount: 2
Fore
SplineSet
37 538 m 1,0,-1
 514 538 l 2,1,2
 543 538 543 538 564.5 516.5 c 128,-1,3
 586 495 586 495 586 466 c 2,4,-1
 586 72 l 2,5,6
 586 43 586 43 564.5 21.5 c 128,-1,7
 543 0 543 0 514 0 c 2,8,-1
 252 0 l 1,9,-1
 252 -239 l 1,10,-1
 37 -239 l 1,11,-1
 37 538 l 1,0,-1
371 156 m 1,12,-1
 371 382 l 1,13,-1
 252 382 l 1,14,-1
 252 156 l 1,15,-1
 371 156 l 1,12,-1
EndSplineSet
EndChar

StartChar: q
Encoding: 113 113 79
Width: 604
Flags: W
HStem: -239 21G<352 567> 0 156<233 352> 382 156<233 352>
VStem: 18 215<156 382> 352 215<-239 0 156 382>
LayerCount: 2
Fore
SplineSet
18 466 m 2,0,1
 18 495 18 495 39.5 516.5 c 128,-1,2
 61 538 61 538 90 538 c 2,3,-1
 567 538 l 1,4,-1
 567 -239 l 1,5,-1
 352 -239 l 1,6,-1
 352 0 l 1,7,-1
 90 0 l 2,8,9
 61 0 61 0 39.5 21.5 c 128,-1,10
 18 43 18 43 18 72 c 2,11,-1
 18 466 l 2,0,1
352 156 m 1,12,-1
 352 382 l 1,13,-1
 233 382 l 1,14,-1
 233 156 l 1,15,-1
 352 156 l 1,12,-1
EndSplineSet
EndChar

StartChar: r
Encoding: 114 114 80
Width: 534
Flags: W
HStem: 0 21G<37 252> 382 156<252 455>
VStem: 37 215<0 382>
LayerCount: 2
Fore
SplineSet
37 466 m 2,0,1
 37 495 37 495 58.5 516.5 c 128,-1,2
 80 538 80 538 109 538 c 2,3,-1
 526 538 l 1,4,-1
 455 382 l 1,5,-1
 252 382 l 1,6,-1
 252 0 l 1,7,-1
 37 0 l 1,8,-1
 37 466 l 2,0,1
EndSplineSet
EndChar

StartChar: s
Encoding: 115 115 81
Width: 618
Flags: W
HStem: 0 155<104 367> 203 119<248 367> 382 156<248 582>
LayerCount: 2
Fore
SplineSet
33 155 m 1,0,-1
 367 155 l 1,1,-1
 367 203 l 1,2,-1
 104 203 l 2,3,4
 75 203 75 203 54 224.5 c 128,-1,5
 33 246 33 246 33 274 c 2,6,-1
 33 466 l 2,7,8
 33 495 33 495 54.5 516.5 c 128,-1,9
 76 538 76 538 104 538 c 2,10,-1
 582 538 l 1,11,-1
 582 382 l 1,12,-1
 248 382 l 1,13,-1
 248 322 l 1,14,-1
 510 322 l 2,15,16
 539 322 539 322 560.5 300.5 c 128,-1,17
 582 279 582 279 582 251 c 2,18,-1
 582 72 l 2,19,20
 582 43 582 43 560.5 21.5 c 128,-1,21
 539 0 539 0 510 0 c 2,22,-1
 104 0 l 1,23,-1
 33 155 l 1,0,-1
EndSplineSet
EndChar

StartChar: t
Encoding: 116 116 82
Width: 502
Flags: W
HStem: 0 156<298 417> 418 120<24 83 298 417> 697 20G<83 298>
VStem: 83 215<156 418 538 717>
LayerCount: 2
Fore
SplineSet
83 418 m 1,0,-1
 24 418 l 1,1,-1
 24 538 l 1,2,-1
 83 538 l 1,3,-1
 83 717 l 1,4,-1
 298 717 l 1,5,-1
 298 538 l 1,6,-1
 417 538 l 1,7,-1
 417 418 l 1,8,-1
 298 418 l 1,9,-1
 298 156 l 1,10,-1
 417 156 l 1,11,-1
 488 0 l 1,12,-1
 155 0 l 2,13,14
 126 0 126 0 104.5 21.5 c 128,-1,15
 83 43 83 43 83 72 c 2,16,-1
 83 418 l 1,0,-1
EndSplineSet
EndChar

StartChar: u
Encoding: 117 117 83
Width: 622
Flags: W
HStem: 0 155<252 371> 518 20G<37 252 371 586>
VStem: 37 215<155 538> 371 215<155 538>
LayerCount: 2
Fore
SplineSet
37 538 m 1,0,-1
 252 538 l 1,1,-1
 252 155 l 1,2,-1
 371 155 l 1,3,-1
 371 538 l 1,4,-1
 586 538 l 1,5,-1
 586 0 l 1,6,-1
 109 0 l 2,7,8
 80 0 80 0 58.5 21.5 c 128,-1,9
 37 43 37 43 37 72 c 2,10,-1
 37 538 l 1,0,-1
EndSplineSet
EndChar

StartChar: v
Encoding: 118 118 84
Width: 722
Flags: W
HStem: 0 21G<232.71 487.401> 518 20G<18 263.333 455.746 705>
LayerCount: 2
Fore
SplineSet
18 538 m 1,0,-1
 255 538 l 1,1,-1
 360 286 l 1,2,-1
 464 538 l 1,3,-1
 705 538 l 1,4,-1
 479 0 l 1,5,-1
 241 0 l 1,6,-1
 18 538 l 1,0,-1
EndSplineSet
EndChar

StartChar: w
Encoding: 119 119 85
Width: 958
Flags: W
HStem: 0 155<252 372 587 707> 518 20G<37 252 372 587 707 922>
VStem: 37 215<155 538> 372 215<155 538> 707 215<155 538>
CounterMasks: 1 38
LayerCount: 2
Fore
SplineSet
37 538 m 1,0,-1
 252 538 l 1,1,-1
 252 155 l 1,2,-1
 372 155 l 1,3,-1
 372 538 l 1,4,-1
 587 538 l 1,5,-1
 587 155 l 1,6,-1
 707 155 l 1,7,-1
 707 538 l 1,8,-1
 922 538 l 1,9,-1
 922 72 l 2,10,11
 922 42 922 42 900 21 c 128,-1,12
 878 0 878 0 850 0 c 2,13,-1
 109 0 l 2,14,15
 81 0 81 0 59 21 c 128,-1,16
 37 42 37 42 37 72 c 2,17,-1
 37 538 l 1,0,-1
EndSplineSet
EndChar

StartChar: x
Encoding: 120 120 86
Width: 659
Flags: W
HStem: 0 21G<31 283.483 375.742 629> 518 20G<31 283.187 376.033 629>
LayerCount: 2
Fore
SplineSet
210 268 m 1,0,-1
 31 538 l 1,1,-1
 270 538 l 1,2,-1
 330 447 l 1,3,-1
 389 538 l 1,4,-1
 629 538 l 1,5,-1
 450 268 l 1,6,-1
 629 0 l 1,7,-1
 389 0 l 1,8,-1
 330 89 l 1,9,-1
 270 0 l 1,10,-1
 31 0 l 1,11,-1
 210 268 l 1,0,-1
EndSplineSet
EndChar

StartChar: y
Encoding: 121 121 87
Width: 620
Flags: W
HStem: -239 156<106 369> 0 156<250 369> 518 20G<35 250 369 584>
VStem: 35 215<156 538> 369 215<-83 0 156 538>
LayerCount: 2
Fore
SplineSet
35 538 m 1,0,-1
 250 538 l 1,1,-1
 250 156 l 1,2,-1
 369 156 l 1,3,-1
 369 538 l 1,4,-1
 584 538 l 1,5,-1
 584 -167 l 2,6,7
 584 -196 584 -196 562.5 -217.5 c 128,-1,8
 541 -239 541 -239 512 -239 c 2,9,-1
 106 -239 l 1,10,-1
 35 -83 l 1,11,-1
 369 -83 l 1,12,-1
 369 0 l 1,13,-1
 106 0 l 2,14,15
 77 0 77 0 56 21.5 c 128,-1,16
 35 43 35 43 35 72 c 2,17,-1
 35 538 l 1,0,-1
EndSplineSet
EndChar

StartChar: z
Encoding: 122 122 88
Width: 613
Flags: W
HStem: 0 155<335 586> 382 156<37 288>
LayerCount: 2
Fore
SplineSet
37 155 m 1,0,-1
 288 382 l 1,1,-1
 37 382 l 1,2,-1
 37 538 l 1,3,-1
 586 538 l 1,4,-1
 586 382 l 1,5,-1
 335 155 l 1,6,-1
 586 155 l 1,7,-1
 586 0 l 1,8,-1
 37 0 l 1,9,-1
 37 155 l 1,0,-1
EndSplineSet
EndChar

StartChar: braceleft
Encoding: 123 123 89
Width: 368
Flags: W
HStem: -119 61<233 352> 329 59<18 63.4531> 776 61<233 352>
VStem: 78 155<-58 314.552 402.872 776>
LayerCount: 2
Fore
SplineSet
78 268 m 2,0,1
 78 295 78 295 59 312 c 128,-1,2
 40 329 40 329 18 329 c 1,3,-1
 18 388 l 1,4,5
 40 388 40 388 59 405.5 c 128,-1,6
 78 423 78 423 78 447 c 2,7,-1
 78 776 l 2,8,9
 78 799 78 799 96 818 c 128,-1,10
 114 837 114 837 137 837 c 2,11,-1
 352 837 l 1,12,-1
 352 776 l 1,13,-1
 233 776 l 1,14,-1
 233 418 l 2,15,16
 233 396 233 396 217.5 378 c 128,-1,17
 202 360 202 360 179 358 c 1,18,19
 199 356 199 356 216 338.5 c 128,-1,20
 233 321 233 321 233 299 c 2,21,-1
 233 -58 l 1,22,-1
 352 -58 l 1,23,-1
 352 -119 l 1,24,-1
 137 -119 l 2,25,26
 113 -119 113 -119 95.5 -100 c 128,-1,27
 78 -81 78 -81 78 -58 c 2,28,-1
 78 268 l 2,0,1
EndSplineSet
EndChar

StartChar: bar
Encoding: 124 124 90
Width: 231
Flags: W
VStem: 37 156<-119 837>
LayerCount: 2
Fore
SplineSet
37 837 m 1,0,-1
 193 837 l 1,1,-1
 193 -119 l 1,2,-1
 37 -119 l 1,3,-1
 37 837 l 1,0,-1
EndSplineSet
EndChar

StartChar: braceright
Encoding: 125 125 91
Width: 368
Flags: W
HStem: -119 61<16 135> 329 59<310.079 350> 776 61<16 135>
VStem: 135 156<-58 311.466 402.062 776>
LayerCount: 2
Fore
SplineSet
135 -58 m 1,0,-1
 135 299 l 2,1,2
 135 321 135 321 151.5 338.5 c 128,-1,3
 168 356 168 356 188 358 c 1,4,5
 166 360 166 360 150.5 378 c 128,-1,6
 135 396 135 396 135 418 c 2,7,-1
 135 776 l 1,8,-1
 16 776 l 1,9,-1
 16 837 l 1,10,-1
 231 837 l 2,11,12
 255 837 255 837 273 818 c 128,-1,13
 291 799 291 799 291 776 c 2,14,-1
 291 447 l 2,15,16
 291 422 291 422 309.5 405 c 128,-1,17
 328 388 328 388 350 388 c 1,18,-1
 350 329 l 1,19,20
 328 329 328 329 309.5 312 c 128,-1,21
 291 295 291 295 291 268 c 2,22,-1
 291 -58 l 2,23,24
 291 -81 291 -81 273 -100 c 128,-1,25
 255 -119 255 -119 231 -119 c 2,26,-1
 16 -119 l 1,27,-1
 16 -58 l 1,28,-1
 135 -58 l 1,0,-1
EndSplineSet
EndChar

StartChar: asciitilde
Encoding: 126 126 92
Width: 546
Flags: W
HStem: 240 138<333.257 470.278> 339 138<80.241 230.132>
LayerCount: 2
Fore
SplineSet
30 401 m 1,0,1
 60 444 60 444 89.5 460.5 c 128,-1,2
 119 477 119 477 148 477 c 0,3,4
 182 477 182 477 215.5 461.5 c 128,-1,5
 249 446 249 446 282 427.5 c 128,-1,6
 315 409 315 409 347.5 393.5 c 128,-1,7
 380 378 380 378 411 378 c 0,8,9
 439 378 439 378 464.5 395.5 c 128,-1,10
 490 413 490 413 515 459 c 1,11,-1
 515 321 l 1,12,13
 490 275 490 275 464 257.5 c 128,-1,14
 438 240 438 240 411 240 c 0,15,16
 380 240 380 240 347.5 255 c 128,-1,17
 315 270 315 270 282 289 c 128,-1,18
 249 308 249 308 215.5 323.5 c 128,-1,19
 182 339 182 339 148 339 c 0,20,21
 118 339 118 339 88.5 322 c 128,-1,22
 59 305 59 305 30 263 c 1,23,-1
 30 401 l 1,0,1
EndSplineSet
EndChar

StartChar: exclamdown
Encoding: 161 161 93
Width: 231
Flags: W
HStem: 0 21G<37 193> 561 156<37 193>
VStem: 37 156<0 502 561 717>
LayerCount: 2
Fore
SplineSet
37 717 m 1,0,-1
 193 717 l 1,1,-1
 193 561 l 1,2,-1
 37 561 l 1,3,-1
 37 717 l 1,0,-1
37 502 m 1,4,-1
 193 502 l 1,5,-1
 193 0 l 1,6,-1
 37 0 l 1,7,-1
 37 502 l 1,4,-1
EndSplineSet
EndChar

StartChar: cent
Encoding: 162 162 94
Width: 631
Flags: W
HStem: 0 21G<243 398> 120 154<237 243 398 548> 442 155<237 243 398 548> 697 20G<243 398>
VStem: 22 215<274 442> 243 155<0 120 597 717>
LayerCount: 2
Fore
SplineSet
43 140 m 1,0,1
 21 162 21 162 22 191 c 2,2,-1
 22 525 l 2,3,4
 22 554 22 554 44 575.5 c 128,-1,5
 66 597 66 597 93 597 c 2,6,-1
 243 597 l 1,7,-1
 243 717 l 1,8,-1
 398 717 l 1,9,-1
 398 597 l 1,10,-1
 620 597 l 1,11,-1
 548 442 l 1,12,-1
 237 442 l 1,13,-1
 237 274 l 1,14,-1
 620 274 l 1,15,-1
 548 120 l 1,16,-1
 398 120 l 1,17,-1
 398 0 l 1,18,-1
 243 0 l 1,19,-1
 243 120 l 1,20,-1
 93 120 l 2,21,22
 66 120 66 120 43 140 c 1,0,1
EndSplineSet
EndChar

StartChar: sterling
Encoding: 163 163 95
Width: 693
Flags: W
HStem: 0 156<29 106.707 312 647> 307 103<76 139 353.693 537> 561 156<316.007 589>
VStem: 98 218<483.443 614.5> 144 213<217.103 307 410 472.141>
CounterMasks: 1 e0
LayerCount: 2
Fore
SplineSet
29 156 m 1,0,-1
 97 156 l 1,1,2
 113 191 113 191 126 227.5 c 128,-1,3
 139 264 139 264 144 307 c 1,4,-1
 76 307 l 1,5,-1
 76 410 l 1,6,-1
 139 410 l 1,7,8
 134 429 134 429 127 453 c 128,-1,9
 120 477 120 477 114 502 c 128,-1,10
 108 527 108 527 103 553 c 128,-1,11
 98 579 98 579 98 602 c 0,12,13
 98 627 98 627 104 648 c 128,-1,14
 110 669 110 669 124 684 c 128,-1,15
 138 699 138 699 161 708 c 128,-1,16
 184 717 184 717 220 717 c 2,17,-1
 660 717 l 1,18,-1
 589 561 l 1,19,-1
 343 561 l 2,20,21
 316 561 316 561 316 544 c 0,22,23
 316 538 316 538 319 531 c 0,24,25
 348 470 348 470 356 410 c 1,26,-1
 537 410 l 1,27,-1
 537 307 l 1,28,-1
 357 307 l 1,29,30
 347 231 347 231 312 156 c 1,31,-1
 647 156 l 1,32,-1
 647 0 l 1,33,-1
 29 0 l 1,34,-1
 29 156 l 1,0,-1
EndSplineSet
EndChar

StartChar: currency
Encoding: 164 164 96
Width: 774
Flags: W
HStem: 113 134<307 467> 469 135<307 467>
VStem: 113 194<248.009 468.619> 467 195<247.533 468.619>
LayerCount: 2
Fore
SplineSet
121 208 m 1,0,1
 113 239 113 239 113 276 c 2,2,-1
 113 440 l 2,3,4
 113 478 113 478 121 509 c 1,5,-1
 31 599 l 1,6,-1
 118 686 l 1,7,-1
 208 596 l 1,8,9
 239 604 239 604 276 604 c 2,10,-1
 498 604 l 2,11,12
 536 604 536 604 566 596 c 1,13,-1
 656 686 l 1,14,-1
 743 599 l 1,15,-1
 653 509 l 1,16,17
 661 478 661 478 662 440 c 2,18,-1
 662 276 l 2,19,20
 662 238 662 238 653 208 c 1,21,-1
 743 118 l 1,22,-1
 656 31 l 1,23,-1
 566 121 l 1,24,25
 535 113 535 113 498 113 c 2,26,-1
 276 113 l 2,27,28
 238 113 238 113 208 121 c 1,29,-1
 118 31 l 1,30,-1
 31 118 l 1,31,-1
 121 208 l 1,0,1
467 247 m 1,32,-1
 467 469 l 1,33,-1
 307 469 l 1,34,-1
 307 247 l 1,35,-1
 467 247 l 1,32,-1
EndSplineSet
EndChar

StartChar: yen
Encoding: 165 165 97
Width: 754
Flags: W
HStem: 0 21G<269 484> 120 75<54 269 484 699> 259 76<54 262 492 699> 697 20G<19 294.583 459.417 735>
VStem: 269 215<0 120 195 259>
LayerCount: 2
Fore
SplineSet
54 195 m 1,0,-1
 269 195 l 1,1,-1
 269 259 l 1,2,-1
 54 259 l 1,3,-1
 54 335 l 1,4,-1
 262 335 l 1,5,-1
 19 717 l 1,6,-1
 282 717 l 1,7,-1
 377 566 l 1,8,-1
 472 717 l 1,9,-1
 735 717 l 1,10,-1
 492 335 l 1,11,-1
 699 335 l 1,12,-1
 699 259 l 1,13,-1
 484 259 l 1,14,-1
 484 195 l 1,15,-1
 699 195 l 1,16,-1
 699 120 l 1,17,-1
 484 120 l 1,18,-1
 484 0 l 1,19,-1
 269 0 l 1,20,-1
 269 120 l 1,21,-1
 54 120 l 1,22,-1
 54 195 l 1,0,-1
EndSplineSet
EndChar

StartChar: section
Encoding: 167 167 98
Width: 612
Flags: W
HStem: -61 154<103.117 366> 184 119<247 366> 400 119<247 366> 623 155<247 514>
VStem: 32 215<303 380.98 519 623> 366 215<93 184 316.302 400>
LayerCount: 2
Fore
SplineSet
366 93 m 1,0,-1
 366 184 l 1,1,-1
 103 184 l 2,2,3
 74 184 74 184 53 205.5 c 128,-1,4
 32 227 32 227 32 256 c 2,5,-1
 32 329 l 2,6,7
 32 365 32 365 47 381.5 c 128,-1,8
 62 398 62 398 97 400 c 1,9,10
 70 402 70 402 51 423 c 128,-1,11
 32 444 32 444 32 472 c 2,12,-1
 32 707 l 2,13,14
 32 735 32 735 53 756.5 c 128,-1,15
 73.9999 778 73.9999 778 103 778 c 2,16,-1
 580 778 l 1,17,-1
 514 623 l 5,18,-1
 247 623 l 1,19,-1
 247 519 l 1,20,-1
 509 519 l 2,21,22
 538 519 538 519 559.5 497.5 c 128,-1,23
 581 476 581 476 581 449 c 2,24,-1
 581 375 l 2,25,26
 581 304 581 304 514 303 c 1,27,28
 542 300 542 300 561.5 279.5 c 128,-1,29
 581 259 581 259 581 232 c 2,30,-1
 581 10 l 2,31,32
 581 -19 581 -19 559.5 -40 c 128,-1,33
 538 -61 538 -61 509 -61 c 2,34,-1
 31.4365 -61 l 1,35,-1
 103.117 93 l 1,36,-1
 366 93 l 1,0,-1
366 303 m 1,37,-1
 366 400 l 1,38,-1
 247 400 l 1,39,-1
 247 303 l 1,40,-1
 366 303 l 1,37,-1
EndSplineSet
EndChar

StartChar: dieresis
Encoding: 168 168 99
Width: 452
Flags: W
HStem: 589 150<52.1455 163.721 287.675 399.793>
VStem: 33 151<613.235 714.765> 268 152<613.235 714.765>
LayerCount: 2
Fore
SplineSet
287 612 m 256,0,1
 269 636 269 636 268 665 c 0,2,3
 268 693 268 693 286.5 716 c 128,-1,4
 305 739 305 739 343 739 c 0,5,6
 382 739 382 739 401 715.5 c 128,-1,7
 420 692 420 692 420 664 c 128,-1,8
 420 636 420 636 401 612.5 c 128,-1,9
 382 589 382 589 343 589 c 0,10,11
 305 588 305 588 287 612 c 256,0,1
51 612 m 256,12,13
 33 636 33 636 33 665 c 0,14,15
 33 693 33 693 51.5 716 c 128,-1,16
 70 739 70 739 108 739 c 0,17,18
 147 739 147 739 165.5 715.5 c 128,-1,19
 184 692 184 692 184 664 c 128,-1,20
 184 636 184 636 165 612.5 c 128,-1,21
 146 589 146 589 108 589 c 0,22,23
 69 588 69 588 51 612 c 256,12,13
EndSplineSet
EndChar

StartChar: copyright
Encoding: 169 169 100
Width: 548
Flags: W
HStem: 122 57<117 431> 224 59<243 359> 435 59<243 359> 538 58<117 431>
VStem: 37 80<179 538> 162 81<283 435> 431 80<179 538>
LayerCount: 2
Fore
SplineSet
37 569 m 2,0,1
 37 596 37 596 63 596 c 2,2,-1
 484 596 l 2,3,4
 511 596 511 596 511 569 c 2,5,-1
 511 148 l 2,6,7
 511 121 511 121 484 122 c 2,8,-1
 63 122 l 2,9,10
 36 122 36 122 37 148 c 2,11,-1
 37 569 l 2,0,1
431 179 m 1,12,-1
 431 538 l 1,13,-1
 117 538 l 1,14,-1
 117 179 l 1,15,-1
 431 179 l 1,12,-1
162 466 m 2,16,17
 162 494 162 494 188 494 c 2,18,-1
 386 494 l 1,19,-1
 359 435 l 1,20,-1
 243 435 l 1,21,-1
 243 283 l 1,22,-1
 386 283 l 1,23,-1
 359 224 l 1,24,-1
 188 224 l 2,25,26
 161 224 161 224 162 251 c 2,27,-1
 162 466 l 2,16,17
EndSplineSet
EndChar

StartChar: ordfeminine
Encoding: 170 170 101
Width: 403
Flags: W
HStem: 394 93<165 237> 516 71<165 237> 624 93<36 237>
VStem: 36 330<407.407 487 516 581.987 624 711.401> 237 129<487 516 587 624>
LayerCount: 2
Fore
SplineSet
48 407 m 1,0,1
 36 420 36 420 36 437 c 2,2,-1
 36 545 l 2,3,4
 36 560 36 560 48 573.5 c 128,-1,5
 60 587 60 587 79 587 c 2,6,-1
 237 587 l 1,7,-1
 237 624 l 1,8,-1
 36 624 l 1,9,-1
 36 717 l 1,10,-1
 323 717 l 2,11,12
 340 717 340 717 353 704 c 128,-1,13
 366 691 366 691 366 674 c 2,14,-1
 366 394 l 1,15,-1
 79 394 l 2,16,17
 61 395 61 395 48 407 c 1,0,1
237 487 m 1,18,-1
 237 516 l 1,19,-1
 165 516 l 1,20,-1
 165 487 l 1,21,-1
 237 487 l 1,18,-1
EndSplineSet
EndChar

StartChar: guillemotleft
Encoding: 171 171 102
Width: 593
Flags: W
LayerCount: 2
Fore
SplineSet
474 670 m 1,0,-1
 563 618 l 1,1,-1
 414 358 l 1,2,-1
 563 98 l 1,3,-1
 474 47 l 1,4,-1
 295 358 l 1,5,-1
 474 670 l 1,0,-1
18 358 m 1,6,-1
 198 670 l 1,7,-1
 287 618 l 1,8,-1
 137 358 l 1,9,-1
 287 98 l 1,10,-1
 198 47 l 1,11,-1
 18 358 l 1,6,-1
EndSplineSet
EndChar

StartChar: logicalnot
Encoding: 172 172 103
Width: 524
Flags: W
HStem: 307 103<5 383 485 486>
VStem: 383 102<133 307>
LayerCount: 2
Fore
SplineSet
5 410 m 1,0,-1
 486 410 l 1,1,-1
 486 307 l 1,2,-1
 485 307 l 1,3,-1
 485 133 l 1,4,-1
 383 133 l 1,5,-1
 383 307 l 1,6,-1
 5 307 l 1,7,-1
 5 410 l 1,0,-1
EndSplineSet
EndChar

StartChar: registered
Encoding: 174 174 104
Width: 548
Flags: W
HStem: 122 57<117 431> 435 59<243 305> 538 58<117 431>
VStem: 37 80<179 538> 162 81<224 435> 305 81<381 435> 431 80<179 538>
LayerCount: 2
Fore
SplineSet
37 569 m 2,0,1
 37 596 37 596 63 596 c 2,2,-1
 484 596 l 2,3,4
 511 596 511 596 511 569 c 2,5,-1
 511 148 l 2,6,7
 511 121 511 121 484 122 c 2,8,-1
 63 122 l 2,9,10
 36 122 36 122 37 148 c 2,11,-1
 37 569 l 2,0,1
431 179 m 1,12,-1
 431 538 l 1,13,-1
 117 538 l 1,14,-1
 117 179 l 1,15,-1
 431 179 l 1,12,-1
162 494 m 1,16,-1
 359 494 l 2,17,18
 386 494 386 494 386 466 c 2,19,-1
 386 364 l 2,20,21
 386 337 386 337 343 337 c 1,22,-1
 395 224 l 1,23,-1
 324 224 l 1,24,-1
 252 381 l 1,25,-1
 305 381 l 1,26,-1
 305 435 l 1,27,-1
 243 435 l 1,28,-1
 243 224 l 1,29,-1
 162 224 l 1,30,-1
 162 494 l 1,16,-1
EndSplineSet
EndChar

StartChar: macron
Encoding: 175 175 105
Width: 457
Flags: W
HStem: 599 74<37 420>
LayerCount: 2
Fore
SplineSet
37 673 m 1,0,-1
 420 673 l 1,1,-1
 420 599 l 1,2,-1
 37 599 l 1,3,-1
 37 673 l 1,0,-1
EndSplineSet
EndChar

StartChar: degree
Encoding: 176 176 106
Width: 307
Flags: W
HStem: 522 62<105.431 202.061> 717 61<105.558 201.342>
VStem: 26 61<601.939 698.442> 220 62<602.308 698.442>
LayerCount: 2
Fore
SplineSet
103 532 m 0,0,1
 80 542 80 542 63 560 c 128,-1,2
 46 578 46 578 36 601 c 128,-1,3
 26 624 26 624 26 650 c 256,4,5
 26 677 26 677 36 700 c 128,-1,6
 46 723 46 723 63.5 740.5 c 128,-1,7
 81 758 81 758 104 768 c 128,-1,8
 127 778 127 778 154 778 c 256,9,10
 181 778 181 778 203.5 768 c 128,-1,11
 226 758 226 758 243.5 740.5 c 128,-1,12
 261 723 261 723 271.5 700 c 128,-1,13
 282 677 282 677 282 650 c 256,14,15
 282 623 282 623 271.5 600.5 c 128,-1,16
 261 578 261 578 243.5 560.5 c 128,-1,17
 226 543 226 543 203 532.5 c 128,-1,18
 180 522 180 522 154 522 c 256,19,20
 127 522 127 522 103 532 c 0,0,1
154 584 m 256,21,22
 182 584 182 584 201 603.5 c 128,-1,23
 220 623 220 623 220 650 c 256,24,25
 220 678 220 678 200.5 697.5 c 128,-1,26
 181 717 181 717 154 717 c 256,27,28
 126 717 126 717 106.5 697.5 c 128,-1,29
 87 678 87 678 87 650 c 256,30,31
 87 622 87 622 106.5 603 c 128,-1,32
 126 584 126 584 154 584 c 256,21,22
EndSplineSet
EndChar

StartChar: plusminus
Encoding: 177 177 107
Width: 591
Flags: W
HStem: 0 125<22 570> 400 155<57 218 374 535> 697 20G<218 374>
VStem: 218 156<239 400 555 717>
LayerCount: 2
Fore
SplineSet
218 400 m 1,0,-1
 57 400 l 1,1,-1
 57 555 l 1,2,-1
 218 555 l 1,3,-1
 218 717 l 1,4,-1
 374 717 l 1,5,-1
 374 555 l 1,6,-1
 535 555 l 1,7,-1
 535 400 l 1,8,-1
 374 400 l 1,9,-1
 374 239 l 1,10,-1
 218 239 l 1,11,-1
 218 400 l 1,0,-1
22 125 m 1,12,-1
 570 125 l 1,13,-1
 570 0 l 1,14,-1
 22 0 l 1,15,-1
 22 125 l 1,12,-1
EndSplineSet
EndChar

StartChar: acute
Encoding: 180 180 108
Width: 315
Flags: W
HStem: 599 145
VStem: 9 287<591 599>
LayerCount: 2
Fore
SplineSet
9 654 m 1,0,-1
 296 744 l 1,1,-1
 296 646 l 1,2,-1
 9 599 l 1,3,-1
 9 654 l 1,0,-1
EndSplineSet
EndChar

StartChar: mu
Encoding: 181 181 109
Width: 604
Flags: W
HStem: -239 21G<37 252> 0 156<252 371> 518 20G<37 252 371 586>
VStem: 37 215<-239 0 156 538> 371 215<156 538>
LayerCount: 2
Fore
SplineSet
37 538 m 1,0,-1
 252 538 l 1,1,-1
 252 156 l 1,2,-1
 371 156 l 1,3,-1
 371 538 l 1,4,-1
 586 538 l 1,5,-1
 586 72 l 2,6,7
 586 43 586 43 564.5 21.5 c 128,-1,8
 543 0 543 0 514 0 c 2,9,-1
 252 0 l 1,10,-1
 252 -239 l 1,11,-1
 37 -239 l 1,12,-1
 37 538 l 1,0,-1
EndSplineSet
EndChar

StartChar: paragraph
Encoding: 182 182 110
Width: 655
Flags: W
HStem: 0 21G<182 302 445 564> 561 156<302 445 564 625>
VStem: 27 275<271.349 561> 182 120<0 251> 445 119<0 561>
LayerCount: 2
Fore
SplineSet
182 251 m 1,0,-1
 98 251 l 2,1,2
 70 251 70 251 48.5 272 c 128,-1,3
 27 293 27 293 27 323 c 2,4,-1
 27 645 l 2,5,6
 27 674 27 674 49 695.5 c 128,-1,7
 71 717 71 717 98 717 c 2,8,-1
 625 717 l 1,9,-1
 625 561 l 1,10,-1
 564 561 l 1,11,-1
 564 0 l 1,12,-1
 445 0 l 1,13,-1
 445 561 l 1,14,-1
 302 561 l 1,15,-1
 302 0 l 1,16,-1
 182 0 l 1,17,-1
 182 251 l 1,0,-1
EndSplineSet
EndChar

StartChar: periodcentered
Encoding: 183 183 111
Width: 231
Flags: W
HStem: 281 155<37 193>
VStem: 37 156<281 436>
LayerCount: 2
Fore
SplineSet
37 436 m 1,0,-1
 193 436 l 1,1,-1
 193 281 l 1,2,-1
 37 281 l 1,3,-1
 37 436 l 1,0,-1
EndSplineSet
EndChar

StartChar: cedilla
Encoding: 184 184 112
Width: 348
Flags: W
HStem: -219 66<52.657 204.682> -60 65<89.3146 198.859>
VStem: 220 102<-134.918 -67.802>
LayerCount: 2
Fore
SplineSet
55 -11 m 1,0,1
 74 -4 74 -4 100.5 0.5 c 128,-1,2
 127 5 127 5 156 5 c 0,3,4
 186 5 186 5 215.5 -0.5 c 128,-1,5
 245 -6 245 -6 268.5 -19.5 c 128,-1,6
 292 -33 292 -33 307 -54 c 128,-1,7
 322 -75 322 -75 322 -106 c 0,8,9
 322 -139 322 -139 306.5 -161 c 128,-1,10
 291 -183 291 -183 266.5 -196 c 128,-1,11
 242 -209 242 -209 211 -214 c 128,-1,12
 180 -219 180 -219 148 -219 c 0,13,14
 121 -219 121 -219 97 -216 c 128,-1,15
 73 -213 73 -213 52 -209 c 1,16,-1
 25 -139 l 1,17,18
 36 -144 36 -144 60 -148.5 c 128,-1,19
 84 -153 84 -153 112 -153 c 0,20,21
 131 -153 131 -153 150.5 -150 c 128,-1,22
 170 -147 170 -147 185.5 -141 c 128,-1,23
 201 -135 201 -135 210.5 -125.5 c 128,-1,24
 220 -116 220 -116 220 -100 c 0,25,26
 220 -76 220 -76 199.5 -68 c 128,-1,27
 179 -60 179 -60 155 -60 c 0,28,29
 136 -60 136 -60 117.5 -64 c 128,-1,30
 99 -68 99 -68 89 -71 c 1,31,-1
 55 -11 l 1,0,1
EndSplineSet
EndChar

StartChar: ordmasculine
Encoding: 186 186 113
Width: 403
Flags: W
HStem: 394 93<166 238> 624 93<166 238>
VStem: 37 129<487 624> 238 129<487 624>
LayerCount: 2
Fore
SplineSet
49 407 m 1,0,1
 37 420 37 420 37 437 c 2,2,-1
 37 674 l 2,3,4
 37 691 37 691 49.5 704 c 128,-1,5
 62 717 62 717 80 717 c 2,6,-1
 324 717 l 2,7,8
 341 717 341 717 354 704 c 128,-1,9
 367 691 367 691 367 674 c 2,10,-1
 367 437 l 2,11,12
 367 420 367 420 354 407 c 128,-1,13
 341 394 341 394 324 394 c 2,14,-1
 80 394 l 2,15,16
 62 395 62 395 49 407 c 1,0,1
238 487 m 1,17,-1
 238 624 l 1,18,-1
 166 624 l 1,19,-1
 166 487 l 1,20,-1
 238 487 l 1,17,-1
EndSplineSet
EndChar

StartChar: guillemotright
Encoding: 187 187 114
Width: 593
Flags: W
LayerCount: 2
Fore
SplineSet
457 358 m 1,0,-1
 307 618 l 1,1,-1
 396 670 l 1,2,-1
 575 358 l 1,3,-1
 396 47 l 1,4,-1
 307 98 l 1,5,-1
 457 358 l 1,0,-1
180 358 m 1,6,-1
 31 618 l 1,7,-1
 120 670 l 1,8,-1
 299 358 l 1,9,-1
 120 47 l 1,10,-1
 31 98 l 1,11,-1
 180 358 l 1,6,-1
EndSplineSet
EndChar

StartChar: questiondown
Encoding: 191 191 115
Width: 596
Flags: W
HStem: 561 156<406 560>
VStem: 11 155<120 299> 406 154<120 179 418 502 561 717>
LayerCount: 2
Fore
SplineSet
406 717 m 1,0,-1
 560 717 l 1,1,-1
 560 561 l 1,2,-1
 406 561 l 1,3,-1
 406 717 l 1,0,-1
11 346 m 2,4,5
 11 375 11 375 32.5 396.5 c 128,-1,6
 54 418 54 418 83 418 c 2,7,-1
 406 418 l 1,8,-1
 406 502 l 1,9,-1
 560 502 l 1,10,-1
 560 371 l 2,11,12
 560 342 560 342 538.5 320.5 c 128,-1,13
 517 299 517 299 488 299 c 2,14,-1
 166 299 l 1,15,-1
 166 120 l 1,16,-1
 406 120 l 1,17,-1
 406 179 l 1,18,-1
 560 179 l 1,19,-1
 560 72 l 2,20,21
 560 43 560 43 538.5 21.5 c 128,-1,22
 517 0 517 0 488 0 c 2,23,-1
 83 0 l 2,24,25
 54 0 54 0 32.5 21.5 c 128,-1,26
 11 43 11 43 11 72 c 2,27,-1
 11 346 l 2,4,5
EndSplineSet
EndChar

StartChar: Agrave
Encoding: 192 192 116
Width: 862
Flags: W
HStem: 0 156<372 546> 697 20G<302.715 559.312>
LayerCount: 2
Fore
SplineSet
288 924 m 1,0,-1
 574 834 l 1,1,-1
 574 778 l 1,2,-1
 288 825 l 1,3,-1
 288 924 l 1,0,-1
311 717 m 1,4,-1
 551 717 l 1,5,-1
 849 0 l 1,6,-1
 372 0 l 1,7,-1
 372 156 l 1,8,-1
 546 156 l 1,9,-1
 431 430 l 1,10,-1
 252 0 l 1,11,-1
 14 0 l 1,12,-1
 311 717 l 1,4,-1
EndSplineSet
EndChar

StartChar: Aacute
Encoding: 193 193 117
Width: 862
Flags: W
HStem: 0 156<371 545> 697 20G<301.715 558.312>
LayerCount: 2
Fore
SplineSet
287 834 m 1,0,-1
 573 924 l 1,1,-1
 573 825 l 1,2,-1
 287 778 l 1,3,-1
 287 834 l 1,0,-1
310 717 m 1,4,-1
 550 717 l 1,5,-1
 848 0 l 1,6,-1
 371 0 l 1,7,-1
 371 156 l 1,8,-1
 545 156 l 1,9,-1
 430 430 l 1,10,-1
 251 0 l 1,11,-1
 13 0 l 1,12,-1
 310 717 l 1,4,-1
EndSplineSet
EndChar

StartChar: Acircumflex
Encoding: 194 194 118
Width: 867
Flags: W
HStem: 0 156<374 548> 697 20G<304.715 561.312>
LayerCount: 2
Fore
SplineSet
228 834 m 1,0,-1
 433 924 l 1,1,-1
 638 834 l 1,2,-1
 638 778 l 1,3,-1
 433 825 l 1,4,-1
 228 778 l 1,5,-1
 228 834 l 1,0,-1
313 717 m 1,6,-1
 553 717 l 1,7,-1
 851 0 l 1,8,-1
 374 0 l 1,9,-1
 374 156 l 1,10,-1
 548 156 l 1,11,-1
 433 430 l 1,12,-1
 254 0 l 1,13,-1
 16 0 l 1,14,-1
 313 717 l 1,6,-1
EndSplineSet
EndChar

StartChar: Atilde
Encoding: 195 195 119
Width: 871
Flags: W
HStem: 0 156<376 550> 697 20G<306.715 563.312> 758 91<466.692 608.201> 823 91<266.293 421.085>
LayerCount: 2
Fore
SplineSet
237 864 m 1,0,1
 261 892 261 892 285 903 c 128,-1,2
 309 914 309 914 334 914 c 0,3,4
 362 914 362 914 389.5 904 c 128,-1,5
 417 894 417 894 444 881.5 c 128,-1,6
 471 869 471 869 497.5 859 c 128,-1,7
 524 849 524 849 549 849 c 0,8,9
 573 849 573 849 593.5 860.5 c 128,-1,10
 614 872 614 872 635 902 c 1,11,-1
 635 811 l 1,12,13
 615 781 615 781 593.5 769.5 c 128,-1,14
 572 758 572 758 549 758 c 0,15,16
 524 758 524 758 497.5 768 c 128,-1,17
 471 778 471 778 444 790.5 c 128,-1,18
 417 803 417 803 389 813 c 128,-1,19
 361 823 361 823 334 823 c 0,20,21
 309 823 309 823 284.5 812 c 128,-1,22
 260 801 260 801 237 773 c 1,23,-1
 237 864 l 1,0,1
315 717 m 1,24,-1
 555 717 l 1,25,-1
 853 0 l 1,26,-1
 376 0 l 1,27,-1
 376 156 l 1,28,-1
 550 156 l 1,29,-1
 435 430 l 1,30,-1
 256 0 l 1,31,-1
 18 0 l 1,32,-1
 315 717 l 1,24,-1
EndSplineSet
EndChar

StartChar: Adieresis
Encoding: 196 196 120
Width: 871
Flags: W
HStem: 0 156<376 550> 697 20G<306.715 563.312> 768 151<261.731 372.793 497.277 608.793>
VStem: 242 151<792.751 894.249> 477 152<792.751 894.249>
LayerCount: 2
Fore
SplineSet
496 792 m 256,0,1
 478 816 478 816 477 844 c 0,2,3
 477 872 477 872 495.5 895.5 c 128,-1,4
 514 919 514 919 552 919 c 0,5,6
 591 919 591 919 610 895 c 128,-1,7
 629 871 629 871 629 843 c 128,-1,8
 629 815 629 815 610 791.5 c 128,-1,9
 591 768 591 768 552 768 c 0,10,11
 514 768 514 768 496 792 c 256,0,1
260 792 m 256,12,13
 242 816 242 816 242 844 c 128,-1,14
 242 872 242 872 260.5 895.5 c 128,-1,15
 279 919 279 919 316 919 c 0,16,17
 355 919 355 919 374 895 c 128,-1,18
 393 871 393 871 393 843 c 128,-1,19
 393 815 393 815 374 791.5 c 128,-1,20
 355 768 355 768 316 768 c 0,21,22
 278 768 278 768 260 792 c 256,12,13
315 717 m 1,23,-1
 555 717 l 1,24,-1
 853 0 l 1,25,-1
 376 0 l 1,26,-1
 376 156 l 1,27,-1
 550 156 l 1,28,-1
 435 430 l 1,29,-1
 256 0 l 1,30,-1
 18 0 l 1,31,-1
 315 717 l 1,23,-1
EndSplineSet
EndChar

StartChar: Aring
Encoding: 197 197 121
Width: 863
Flags: W
HStem: 0 156<372 546> 697 20G<302.715 559.312> 768 51<392.291 469.679> 911 52<391.692 470.129>
VStem: 334 51<826.278 904.124> 477 51<826.277 904.251>
LayerCount: 2
Fore
SplineSet
362 797 m 256,0,1
 349 810 349 810 341.5 828 c 128,-1,2
 334 846 334 846 334 865 c 256,3,4
 334 884 334 884 341.5 902.5 c 128,-1,5
 349 921 349 921 362.5 934 c 128,-1,6
 376 947 376 947 394 955 c 128,-1,7
 412 963 412 963 431 963 c 256,8,9
 450 963 450 963 468 955 c 128,-1,10
 486 947 486 947 499.5 934 c 128,-1,11
 513 921 513 921 520.5 903 c 128,-1,12
 528 885 528 885 528 865 c 256,13,14
 528 846 528 846 520.5 828 c 128,-1,15
 513 810 513 810 499.5 796.5 c 128,-1,16
 486 783 486 783 468.5 775.5 c 128,-1,17
 451 768 451 768 431 768 c 256,18,19
 412 768 412 768 393.5 776 c 128,-1,20
 375 784 375 784 362 797 c 256,0,1
431 819 m 256,21,22
 449 819 449 819 463 833 c 128,-1,23
 477 847 477 847 477 865 c 256,24,25
 477 883 477 883 463.5 897 c 128,-1,26
 450 911 450 911 431 911 c 256,27,28
 413 911 413 911 399 897.5 c 128,-1,29
 385 884 385 884 385 865 c 256,30,31
 385 847 385 847 399 833 c 128,-1,32
 413 819 413 819 431 819 c 256,21,22
311 717 m 1,33,-1
 551 717 l 1,34,-1
 849 0 l 1,35,-1
 372 0 l 1,36,-1
 372 156 l 1,37,-1
 546 156 l 1,38,-1
 431 430 l 1,39,-1
 252 0 l 1,40,-1
 14 0 l 1,41,-1
 311 717 l 1,33,-1
EndSplineSet
EndChar

StartChar: AE
Encoding: 198 198 122
Width: 1239
Flags: W
HStem: 0 156<434 608 823 1134> 299 119<823 1134> 561 156<823 1134>
VStem: 608 215<156 299 418 430>
CounterMasks: 1 e0
LayerCount: 2
Fore
SplineSet
608 717 m 1,0,-1
 1205 717 l 1,1,-1
 1134 561 l 1,2,-1
 823 561 l 1,3,-1
 823 418 l 1,4,-1
 1134 418 l 1,5,-1
 1134 299 l 1,6,-1
 823 299 l 1,7,-1
 823 156 l 1,8,-1
 1205 156 l 1,9,-1
 1134 0 l 1,10,-1
 434 0 l 1,11,-1
 434 156 l 1,12,-1
 608 156 l 1,13,-1
 608 430 l 1,14,-1
 250 0 l 1,15,-1
 12 0 l 1,16,-1
 608 717 l 1,0,-1
EndSplineSet
EndChar

StartChar: Ccedilla
Encoding: 199 199 123
Width: 645
Flags: W
HStem: -219 66<202.626 353.94> 0 156<243 246 361 554> 561 156<243 554>
VStem: 28 215<156 561> 370 101<-134.563 -67.8408>
LayerCount: 2
Fore
SplineSet
28 645 m 2,0,1
 28 674 28 674 50 695.5 c 128,-1,2
 72 717 72 717 99 717 c 2,3,-1
 626 717 l 1,4,-1
 554 561 l 1,5,-1
 243 561 l 1,6,-1
 243 156 l 1,7,-1
 626 156 l 1,8,-1
 554 0 l 1,9,-1
 361 0 l 1,10,11
 384 -4 384 -4 404 -12 c 128,-1,12
 424 -20 424 -20 439 -33 c 128,-1,13
 454 -46 454 -46 462.5 -64 c 128,-1,14
 471 -82 471 -82 471 -106 c 0,15,16
 471 -139 471 -139 455.5 -161 c 128,-1,17
 440 -183 440 -183 415.5 -196 c 128,-1,18
 391 -209 391 -209 360.5 -214 c 128,-1,19
 330 -219 330 -219 298 -219 c 0,20,21
 271 -219 271 -219 246.5 -216 c 128,-1,22
 222 -213 222 -213 202 -209 c 1,23,-1
 174 -139 l 1,24,25
 185 -144 185 -144 209 -148.5 c 128,-1,26
 233 -153 233 -153 261 -153 c 0,27,28
 280 -153 280 -153 299.5 -150 c 128,-1,29
 319 -147 319 -147 334.5 -141 c 128,-1,30
 350 -135 350 -135 360 -125.5 c 128,-1,31
 370 -116 370 -116 370 -100 c 0,32,33
 370 -76 370 -76 349.5 -68 c 128,-1,34
 329 -60 329 -60 304 -60 c 0,35,36
 285 -60 285 -60 267 -64 c 128,-1,37
 249 -68 249 -68 239 -71 c 1,38,-1
 205 -11 l 1,39,40
 213 -7 213 -7 223.5 -4.5 c 128,-1,41
 234 -2 234 -2 246 0 c 1,42,-1
 99 0 l 2,43,44
 71 0 71 0 49.5 21 c 128,-1,45
 28 42 28 42 28 72 c 2,46,-1
 28 645 l 2,0,1
EndSplineSet
EndChar

StartChar: Egrave
Encoding: 200 200 124
Width: 644
Flags: W
HStem: 0 156<244 555> 299 119<244 555> 561 156<244 555>
VStem: 29 215<156 299 418 561>
CounterMasks: 1 e0
LayerCount: 2
Fore
SplineSet
180 924 m 1,0,-1
 467 834 l 1,1,-1
 467 778 l 1,2,-1
 180 825 l 1,3,-1
 180 924 l 1,0,-1
29 717 m 1,4,-1
 627 717 l 1,5,-1
 555 561 l 1,6,-1
 244 561 l 1,7,-1
 244 418 l 1,8,-1
 555 418 l 1,9,-1
 555 299 l 1,10,-1
 244 299 l 1,11,-1
 244 156 l 1,12,-1
 627 156 l 1,13,-1
 555 0 l 1,14,-1
 29 0 l 1,15,-1
 29 717 l 1,4,-1
EndSplineSet
EndChar

StartChar: Eacute
Encoding: 201 201 125
Width: 645
Flags: W
HStem: 0 156<243 554> 299 119<243 554> 561 156<243 554>
VStem: 28 215<156 299 418 561>
CounterMasks: 1 e0
LayerCount: 2
Fore
SplineSet
179 834 m 1,0,-1
 466 924 l 1,1,-1
 466 825 l 1,2,-1
 179 778 l 1,3,-1
 179 834 l 1,0,-1
28 717 m 1,4,-1
 626 717 l 1,5,-1
 554 561 l 1,6,-1
 243 561 l 1,7,-1
 243 418 l 1,8,-1
 554 418 l 1,9,-1
 554 299 l 1,10,-1
 243 299 l 1,11,-1
 243 156 l 1,12,-1
 626 156 l 1,13,-1
 554 0 l 1,14,-1
 28 0 l 1,15,-1
 28 717 l 1,4,-1
EndSplineSet
EndChar

StartChar: Ecircumflex
Encoding: 202 202 126
Width: 650
Flags: W
HStem: 0 156<246 557> 299 119<246 557> 561 156<246 557>
VStem: 31 215<156 299 418 561>
CounterMasks: 1 e0
LayerCount: 2
Fore
SplineSet
121 834 m 1,0,-1
 326 924 l 1,1,-1
 530 834 l 1,2,-1
 530 778 l 1,3,-1
 326 825 l 1,4,-1
 121 778 l 1,5,-1
 121 834 l 1,0,-1
31 717 m 1,6,-1
 629 717 l 1,7,-1
 557 561 l 1,8,-1
 246 561 l 1,9,-1
 246 418 l 1,10,-1
 557 418 l 1,11,-1
 557 299 l 1,12,-1
 246 299 l 1,13,-1
 246 156 l 1,14,-1
 629 156 l 1,15,-1
 557 0 l 1,16,-1
 31 0 l 1,17,-1
 31 717 l 1,6,-1
EndSplineSet
EndChar

StartChar: Edieresis
Encoding: 203 203 127
Width: 653
Flags: W
HStem: 0 156<247 558> 299 119<247 558> 561 156<247 558> 768 151<153.277 264.793 388.731 499.793>
VStem: 32 215<156 299 418 561> 133 152<792.751 894.249> 369 151<792.751 894.249>
LayerCount: 2
Fore
SplineSet
387 792 m 256,0,1
 369 816 369 816 369 844 c 128,-1,2
 369 872 369 872 387.5 895.5 c 128,-1,3
 406 919 406 919 443 919 c 0,4,5
 482 919 482 919 501 895 c 128,-1,6
 520 871 520 871 520 843 c 128,-1,7
 520 815 520 815 501 791.5 c 128,-1,8
 482 768 482 768 443 768 c 0,9,10
 405 768 405 768 387 792 c 256,0,1
152 792 m 256,11,12
 134 816 134 816 133 844 c 0,13,14
 133 872 133 872 151.5 895.5 c 128,-1,15
 170 919 170 919 208 919 c 0,16,17
 247 919 247 919 266 895 c 128,-1,18
 285 871 285 871 285 843 c 128,-1,19
 285 815 285 815 266 791.5 c 128,-1,20
 247 768 247 768 208 768 c 0,21,22
 170 768 170 768 152 792 c 256,11,12
32 717 m 1,23,-1
 630 717 l 1,24,-1
 558 561 l 1,25,-1
 247 561 l 1,26,-1
 247 418 l 1,27,-1
 558 418 l 1,28,-1
 558 299 l 1,29,-1
 247 299 l 1,30,-1
 247 156 l 1,31,-1
 630 156 l 1,32,-1
 558 0 l 1,33,-1
 32 0 l 1,34,-1
 32 717 l 1,23,-1
EndSplineSet
EndChar

StartChar: Igrave
Encoding: 204 204 128
Width: 289
Flags: W
HStem: 0 21G<37 252> 697 20G<37 252>
VStem: 37 215<0 717>
LayerCount: 2
Fore
SplineSet
2 924 m 1,0,-1
 289 834 l 1,1,-1
 289 778 l 1,2,-1
 2 825 l 1,3,-1
 2 924 l 1,0,-1
37 717 m 1,4,-1
 252 717 l 1,5,-1
 252 0 l 1,6,-1
 37 0 l 1,7,-1
 37 717 l 1,4,-1
EndSplineSet
EndChar

StartChar: Iacute
Encoding: 205 205 129
Width: 289
Flags: W
HStem: 0 21G<37 252> 697 20G<37 252>
VStem: 37 215<0 717>
LayerCount: 2
Fore
SplineSet
2 834 m 1,0,-1
 289 924 l 1,1,-1
 289 825 l 1,2,-1
 2 778 l 1,3,-1
 2 834 l 1,0,-1
37 717 m 1,4,-1
 252 717 l 1,5,-1
 252 0 l 1,6,-1
 37 0 l 1,7,-1
 37 717 l 1,4,-1
EndSplineSet
EndChar

StartChar: Icircumflex
Encoding: 206 206 130
Width: 289
Flags: W
HStem: 0 21G<37 252> 697 20G<37 252>
VStem: 37 215<0 717>
LayerCount: 2
Fore
SplineSet
-59 834 m 1,0,-1
 145 924 l 1,1,-1
 350 834 l 1,2,-1
 350 778 l 1,3,-1
 145 825 l 1,4,-1
 -59 778 l 1,5,-1
 -59 834 l 1,0,-1
37 717 m 1,6,-1
 252 717 l 1,7,-1
 252 0 l 1,8,-1
 37 0 l 1,9,-1
 37 717 l 1,6,-1
EndSplineSet
EndChar

StartChar: Idieresis
Encoding: 207 207 131
Width: 289
Flags: W
HStem: 0 21G<37 252> 697 20G<37 252> 768 151<-28.2664 83.3237 207.277 318.793>
VStem: -48 151<792.751 894.249> 37 215<0 717> 187 152<792.751 894.249>
LayerCount: 2
Fore
SplineSet
206 792 m 256,0,1
 188 816 188 816 187 844 c 0,2,3
 187 872 187 872 205.5 895.5 c 128,-1,4
 224 919 224 919 262 919 c 0,5,6
 301 919 301 919 320 895 c 128,-1,7
 339 871 339 871 339 843 c 128,-1,8
 339 815 339 815 320 791.5 c 128,-1,9
 301 768 301 768 262 768 c 0,10,11
 224 768 224 768 206 792 c 256,0,1
-30 792 m 256,12,13
 -48 816 -48 816 -48 844 c 128,-1,14
 -48 872 -48 872 -29.5 895.5 c 128,-1,15
 -11 919 -11 919 27 919 c 0,16,17
 66 919 66 919 84.5 895 c 128,-1,18
 103 871 103 871 103 843 c 128,-1,19
 103 815 103 815 84.5 791.5 c 128,-1,20
 66 768 66 768 27 768 c 128,-1,21
 -12 768 -12 768 -30 792 c 256,12,13
37 717 m 1,22,-1
 252 717 l 1,23,-1
 252 0 l 1,24,-1
 37 0 l 1,25,-1
 37 717 l 1,22,-1
EndSplineSet
EndChar

StartChar: Ntilde
Encoding: 209 209 132
Width: 661
Flags: W
HStem: 0 21G<32 247 415 630> 561 156<247 415> 758 91<361.481 502.965> 823 91<160.343 315.297>
VStem: 32 215<0 561> 415 215<0 561>
LayerCount: 2
Fore
SplineSet
131 864 m 1,0,1
 155 892 155 892 179.5 903 c 128,-1,2
 204 914 204 914 228 914 c 0,3,4
 256 914 256 914 283.5 904 c 128,-1,5
 311 894 311 894 338.5 881.5 c 128,-1,6
 366 869 366 869 392.5 859 c 128,-1,7
 419 849 419 849 443 849 c 128,-1,8
 467 849 467 849 488 860.5 c 128,-1,9
 509 872 509 872 529 902 c 1,10,-1
 529 811 l 1,11,12
 509 781 509 781 488 769.5 c 128,-1,13
 467 758 467 758 443 758 c 0,14,15
 418 758 418 758 392 768 c 128,-1,16
 366 778 366 778 338.5 790.5 c 128,-1,17
 311 803 311 803 283.5 813 c 128,-1,18
 256 823 256 823 228 823 c 0,19,20
 203 823 203 823 179 812 c 128,-1,21
 155 801 155 801 131 773 c 1,22,-1
 131 864 l 1,0,1
32 717 m 1,23,-1
 558 717 l 2,24,25
 586 717 586 717 608 695.5 c 128,-1,26
 630 674 630 674 630 645 c 2,27,-1
 630 0 l 1,28,-1
 415 0 l 1,29,-1
 415 561 l 1,30,-1
 247 561 l 1,31,-1
 247 0 l 1,32,-1
 32 0 l 1,33,-1
 32 717 l 1,23,-1
EndSplineSet
EndChar

StartChar: Ograve
Encoding: 210 210 133
Width: 654
Flags: W
HStem: 0 156<244 412> 561 156<244 412>
VStem: 29 215<156 561> 412 215<156 561>
LayerCount: 2
Fore
SplineSet
184 924 m 1,0,-1
 471 834 l 1,1,-1
 471 778 l 1,2,-1
 184 825 l 1,3,-1
 184 924 l 1,0,-1
29 645 m 2,4,5
 29 674 29 674 51 695.5 c 128,-1,6
 73 717 73 717 100 717 c 2,7,-1
 555 717 l 2,8,9
 583 717 583 717 605 695.5 c 128,-1,10
 627 674 627 674 627 645 c 2,11,-1
 627 72 l 2,12,13
 627 42 627 42 605 21 c 128,-1,14
 583 0 583 0 555 0 c 2,15,-1
 100 0 l 2,16,17
 72 0 72 0 50.5 21 c 128,-1,18
 29 42 29 42 29 72 c 2,19,-1
 29 645 l 2,4,5
412 156 m 1,20,-1
 412 561 l 1,21,-1
 244 561 l 1,22,-1
 244 156 l 1,23,-1
 412 156 l 1,20,-1
EndSplineSet
EndChar

StartChar: Oacute
Encoding: 211 211 134
Width: 653
Flags: W
HStem: 0 156<242 410> 561 156<242 410>
VStem: 27 215<156 561> 410 215<156 561>
LayerCount: 2
Fore
SplineSet
182 834 m 1,0,-1
 469 924 l 1,1,-1
 469 825 l 1,2,-1
 182 778 l 1,3,-1
 182 834 l 1,0,-1
27 645 m 2,4,5
 27 674 27 674 49 695.5 c 128,-1,6
 71 717 71 717 98 717 c 2,7,-1
 553 717 l 2,8,9
 581 717 581 717 603 695.5 c 128,-1,10
 625 674 625 674 625 645 c 2,11,-1
 625 72 l 2,12,13
 625 42 625 42 603 21 c 128,-1,14
 581 0 581 0 553 0 c 2,15,-1
 98 0 l 2,16,17
 70 0 70 0 48.5 21 c 128,-1,18
 27 42 27 42 27 72 c 2,19,-1
 27 645 l 2,4,5
410 156 m 1,20,-1
 410 561 l 1,21,-1
 242 561 l 1,22,-1
 242 156 l 1,23,-1
 410 156 l 1,20,-1
EndSplineSet
EndChar

StartChar: Ocircumflex
Encoding: 212 212 135
Width: 658
Flags: W
HStem: 0 156<245 413> 561 156<245 413>
VStem: 30 215<156 561> 413 215<156 561>
LayerCount: 2
Fore
SplineSet
124 834 m 1,0,-1
 329 924 l 1,1,-1
 534 834 l 1,2,-1
 534 778 l 1,3,-1
 329 825 l 1,4,-1
 124 778 l 1,5,-1
 124 834 l 1,0,-1
30 645 m 2,6,7
 30 674 30 674 52 695.5 c 128,-1,8
 74 717 74 717 101 717 c 2,9,-1
 556 717 l 2,10,11
 584 717 584 717 606 695.5 c 128,-1,12
 628 674 628 674 628 645 c 2,13,-1
 628 72 l 2,14,15
 628 42 628 42 606 21 c 128,-1,16
 584 0 584 0 556 0 c 2,17,-1
 101 0 l 2,18,19
 73 0 73 0 51.5 21 c 128,-1,20
 30 42 30 42 30 72 c 2,21,-1
 30 645 l 2,6,7
413 156 m 1,22,-1
 413 561 l 1,23,-1
 245 561 l 1,24,-1
 245 156 l 1,25,-1
 413 156 l 1,22,-1
EndSplineSet
EndChar

StartChar: Otilde
Encoding: 213 213 136
Width: 661
Flags: W
HStem: 0 156<247 415> 561 156<247 415> 758 91<361.481 502.965> 823 91<160.343 315.297>
VStem: 32 215<156 561> 415 215<156 561>
LayerCount: 2
Fore
SplineSet
131 864 m 1,0,1
 155 892 155 892 179.5 903 c 128,-1,2
 204 914 204 914 228 914 c 0,3,4
 256 914 256 914 283.5 904 c 128,-1,5
 311 894 311 894 338.5 881.5 c 128,-1,6
 366 869 366 869 392.5 859 c 128,-1,7
 419 849 419 849 443 849 c 128,-1,8
 467 849 467 849 488 860.5 c 128,-1,9
 509 872 509 872 529 902 c 1,10,-1
 529 811 l 1,11,12
 509 781 509 781 488 769.5 c 128,-1,13
 467 758 467 758 443 758 c 0,14,15
 418 758 418 758 392 768 c 128,-1,16
 366 778 366 778 338.5 790.5 c 128,-1,17
 311 803 311 803 283.5 813 c 128,-1,18
 256 823 256 823 228 823 c 0,19,20
 203 823 203 823 179 812 c 128,-1,21
 155 801 155 801 131 773 c 1,22,-1
 131 864 l 1,0,1
32 645 m 2,23,24
 32 674 32 674 54 695.5 c 128,-1,25
 76 717 76 717 103 717 c 2,26,-1
 558 717 l 2,27,28
 586 717 586 717 608 695.5 c 128,-1,29
 630 674 630 674 630 645 c 2,30,-1
 630 72 l 2,31,32
 630 42 630 42 608 21 c 128,-1,33
 586 0 586 0 558 0 c 2,34,-1
 103 0 l 2,35,36
 75 0 75 0 53.5 21 c 128,-1,37
 32 42 32 42 32 72 c 2,38,-1
 32 645 l 2,23,24
415 156 m 1,39,-1
 415 561 l 1,40,-1
 247 561 l 1,41,-1
 247 156 l 1,42,-1
 415 156 l 1,39,-1
EndSplineSet
EndChar

StartChar: Odieresis
Encoding: 214 214 137
Width: 661
Flags: W
HStem: 0 156<247 415> 561 156<247 415> 768 151<157.277 268.793 392.731 503.793>
VStem: 32 215<156 561> 137 152<792.751 894.249> 373 151<792.751 894.249> 415 215<156 561>
LayerCount: 2
Fore
SplineSet
391 792 m 256,0,1
 373 816 373 816 373 844 c 128,-1,2
 373 872 373 872 391.5 895.5 c 128,-1,3
 410 919 410 919 447 919 c 0,4,5
 486 919 486 919 505 895 c 128,-1,6
 524 871 524 871 524 843 c 128,-1,7
 524 815 524 815 505 791.5 c 128,-1,8
 486 768 486 768 447 768 c 0,9,10
 409 768 409 768 391 792 c 256,0,1
156 792 m 256,11,12
 138 816 138 816 137 844 c 0,13,14
 137 872 137 872 155.5 895.5 c 128,-1,15
 174 919 174 919 212 919 c 0,16,17
 251 919 251 919 270 895 c 128,-1,18
 289 871 289 871 289 843 c 128,-1,19
 289 815 289 815 270 791.5 c 128,-1,20
 251 768 251 768 212 768 c 0,21,22
 174 768 174 768 156 792 c 256,11,12
32 645 m 2,23,24
 32 674 32 674 54 695.5 c 128,-1,25
 76 717 76 717 103 717 c 2,26,-1
 558 717 l 2,27,28
 586 717 586 717 608 695.5 c 128,-1,29
 630 674 630 674 630 645 c 2,30,-1
 630 72 l 2,31,32
 630 42 630 42 608 21 c 128,-1,33
 586 0 586 0 558 0 c 2,34,-1
 103 0 l 2,35,36
 75 0 75 0 53.5 21 c 128,-1,37
 32 42 32 42 32 72 c 2,38,-1
 32 645 l 2,23,24
415 156 m 1,39,-1
 415 561 l 1,40,-1
 247 561 l 1,41,-1
 247 156 l 1,42,-1
 415 156 l 1,39,-1
EndSplineSet
EndChar

StartChar: Oslash
Encoding: 216 216 138
Width: 728
Flags: W
HStem: 1 155<281 449> 562 156<281 449>
VStem: 66 215<156 174 327 562> 449 215<156 380 532 562>
LayerCount: 2
Fore
SplineSet
68 65 m 1,0,1
 66 69 66 69 66 73 c 2,2,-1
 66 646 l 2,3,4
 66 675 66 675 87.5 696.5 c 128,-1,5
 109 718 109 718 137 718 c 2,6,-1
 597 718 l 1,7,-1
 623 748 l 1,8,-1
 699 688 l 1,9,-1
 664 643 l 1,10,-1
 664 73 l 2,11,12
 664 43 664 43 642 22 c 128,-1,13
 620 1 620 1 592 1 c 2,14,-1
 140 1 l 1,15,-1
 106 -40 l 1,16,-1
 30 18 l 1,17,-1
 68 65 l 1,0,1
449 532 m 1,18,-1
 449 562 l 1,19,-1
 281 562 l 1,20,-1
 281 327 l 1,21,-1
 449 532 l 1,18,-1
449 156 m 1,22,-1
 449 380 l 1,23,-1
 281 174 l 1,24,-1
 281 156 l 1,25,-1
 449 156 l 1,22,-1
EndSplineSet
EndChar

StartChar: Ugrave
Encoding: 217 217 139
Width: 654
Flags: W
HStem: 0 156<244 412> 697 20G<29 244 412 627>
VStem: 29 215<156 717> 412 215<156 717>
LayerCount: 2
Fore
SplineSet
184 924 m 1,0,-1
 471 834 l 1,1,-1
 471 778 l 1,2,-1
 184 825 l 1,3,-1
 184 924 l 1,0,-1
29 717 m 1,4,-1
 244 717 l 1,5,-1
 244 156 l 1,6,-1
 412 156 l 1,7,-1
 412 717 l 1,8,-1
 627 717 l 1,9,-1
 627 0 l 1,10,-1
 100 0 l 2,11,12
 72 0 72 0 50.5 21 c 128,-1,13
 29 42 29 42 29 72 c 2,14,-1
 29 717 l 1,4,-1
EndSplineSet
EndChar

StartChar: Uacute
Encoding: 218 218 140
Width: 655
Flags: W
HStem: 0 156<243 411> 697 20G<28 243 411 626>
VStem: 28 215<156 717> 411 215<156 717>
LayerCount: 2
Fore
SplineSet
183 834 m 1,0,-1
 470 924 l 1,1,-1
 470 825 l 1,2,-1
 183 778 l 1,3,-1
 183 834 l 1,0,-1
28 717 m 1,4,-1
 243 717 l 1,5,-1
 243 156 l 1,6,-1
 411 156 l 1,7,-1
 411 717 l 1,8,-1
 626 717 l 1,9,-1
 626 0 l 1,10,-1
 99 0 l 2,11,12
 71 0 71 0 49.5 21 c 128,-1,13
 28 42 28 42 28 72 c 2,14,-1
 28 717 l 1,4,-1
EndSplineSet
EndChar

StartChar: Ucircumflex
Encoding: 219 219 141
Width: 659
Flags: W
HStem: 0 156<246 414> 697 20G<31 246 414 629>
VStem: 31 215<156 717> 414 215<156 717>
LayerCount: 2
Fore
SplineSet
125 834 m 1,0,-1
 330 924 l 1,1,-1
 535 834 l 1,2,-1
 535 778 l 1,3,-1
 330 825 l 1,4,-1
 125 778 l 1,5,-1
 125 834 l 1,0,-1
31 717 m 1,6,-1
 246 717 l 1,7,-1
 246 156 l 1,8,-1
 414 156 l 1,9,-1
 414 717 l 1,10,-1
 629 717 l 1,11,-1
 629 0 l 1,12,-1
 102 0 l 2,13,14
 74 0 74 0 52.5 21 c 128,-1,15
 31 42 31 42 31 72 c 2,16,-1
 31 717 l 1,6,-1
EndSplineSet
EndChar

StartChar: Udieresis
Encoding: 220 220 142
Width: 662
Flags: W
HStem: 0 156<247 415> 697 20G<32 247 415 630> 768 151<157.277 268.793 392.731 503.793>
VStem: 32 215<156 717> 137 152<792.751 894.249> 373 151<792.751 894.249> 415 215<156 717>
LayerCount: 2
Fore
SplineSet
391 792 m 256,0,1
 373 816 373 816 373 844 c 128,-1,2
 373 872 373 872 391.5 895.5 c 128,-1,3
 410 919 410 919 447 919 c 0,4,5
 486 919 486 919 505 895 c 128,-1,6
 524 871 524 871 524 843 c 128,-1,7
 524 815 524 815 505 791.5 c 128,-1,8
 486 768 486 768 447 768 c 0,9,10
 409 768 409 768 391 792 c 256,0,1
156 792 m 256,11,12
 138 816 138 816 137 844 c 0,13,14
 137 872 137 872 155.5 895.5 c 128,-1,15
 174 919 174 919 212 919 c 0,16,17
 251 919 251 919 270 895 c 128,-1,18
 289 871 289 871 289 843 c 128,-1,19
 289 815 289 815 270 791.5 c 128,-1,20
 251 768 251 768 212 768 c 0,21,22
 174 768 174 768 156 792 c 256,11,12
32 717 m 1,23,-1
 247 717 l 1,24,-1
 247 156 l 1,25,-1
 415 156 l 1,26,-1
 415 717 l 1,27,-1
 630 717 l 1,28,-1
 630 0 l 1,29,-1
 103 0 l 2,30,31
 75 0 75 0 53.5 21 c 128,-1,32
 32 42 32 42 32 72 c 2,33,-1
 32 717 l 1,23,-1
EndSplineSet
EndChar

StartChar: germandbls
Encoding: 223 223 143
Width: 669
Flags: W
HStem: 0 156<316 418> 299 119<357 418> 561 156<264.442 418>
VStem: 35 215<0 546.043> 418 215<156 299 418.528 561>
CounterMasks: 1 e0
LayerCount: 2
Fore
SplineSet
35 492 m 2,0,1
 35 611 35 611 88 664 c 128,-1,2
 141 717 141 717 260 717 c 2,3,-1
 561 717 l 2,4,5
 589 717 589 717 611 695.5 c 128,-1,6
 633 674 633 674 633 645 c 2,7,-1
 633 430 l 2,8,9
 633 401 633 401 611.5 379.5 c 128,-1,10
 590 358 590 358 563 358 c 1,11,12
 588 355 588 355 610.5 340 c 128,-1,13
 633 325 633 325 633 299 c 2,14,-1
 633 72 l 2,15,16
 633 42 633 42 611 21 c 128,-1,17
 589 0 589 0 561 0 c 2,18,-1
 316 0 l 1,19,-1
 316 156 l 1,20,-1
 418 156 l 1,21,-1
 418 299 l 1,22,-1
 357 299 l 1,23,-1
 357 418 l 1,24,-1
 418 418 l 1,25,-1
 418 561 l 1,26,-1
 311 561 l 2,27,28
 278 561 278 561 264 546.5 c 128,-1,29
 250 532 250 532 250 500 c 2,30,-1
 250 0 l 1,31,-1
 35 0 l 1,32,-1
 35 492 l 2,0,1
EndSplineSet
EndChar

StartChar: agrave
Encoding: 224 224 144
Width: 602
Flags: W
HStem: 0 155<243 361> 203 119<243 361> 382 156<28 361>
VStem: 28 549<20.1772 155 203 301.167 382 517.167>
LayerCount: 2
Fore
SplineSet
159 744 m 1,0,-1
 445 654 l 1,1,-1
 445 599 l 1,2,-1
 159 646 l 1,3,-1
 159 744 l 1,0,-1
28 251 m 2,4,5
 28 279 28 279 49.5 300.5 c 128,-1,6
 71 322 71 322 99 322 c 2,7,-1
 361 322 l 1,8,-1
 361 382 l 1,9,-1
 28 382 l 1,10,-1
 28 538 l 1,11,-1
 505 538 l 2,12,13
 534 538 534 538 555.5 516.5 c 128,-1,14
 577 495 577 495 577 466 c 2,15,-1
 577 0 l 1,16,-1
 99 0 l 2,17,18
 70 0 70 0 49 21.5 c 128,-1,19
 28 43 28 43 28 72 c 2,20,-1
 28 251 l 2,4,5
361 155 m 1,21,-1
 361 203 l 1,22,-1
 243 203 l 1,23,-1
 243 155 l 1,24,-1
 361 155 l 1,21,-1
EndSplineSet
EndChar

StartChar: aacute
Encoding: 225 225 145
Width: 601
Flags: W
HStem: 0 155<239 357> 203 119<239 357> 382 156<24 357>
VStem: 24 548<20.1772 155 203 301.167 382 517.823>
LayerCount: 2
Fore
SplineSet
155 654 m 1,0,-1
 441 744 l 1,1,-1
 441 646 l 1,2,-1
 155 599 l 1,3,-1
 155 654 l 1,0,-1
24 251 m 2,4,5
 24 279 24 279 45.5 300.5 c 128,-1,6
 67 322 67 322 95 322 c 2,7,-1
 357 322 l 1,8,-1
 357 382 l 1,9,-1
 24 382 l 1,10,-1
 24 538 l 1,11,-1
 501 538 l 2,12,13
 530 538 530 538 551 516.5 c 128,-1,14
 572 495 572 495 572 466 c 2,15,-1
 572 0 l 1,16,-1
 95 0 l 2,17,18
 66 0 66 0 45 21.5 c 128,-1,19
 24 43 24 43 24 72 c 2,20,-1
 24 251 l 2,4,5
357 155 m 1,21,-1
 357 203 l 1,22,-1
 239 203 l 1,23,-1
 239 155 l 1,24,-1
 357 155 l 1,21,-1
EndSplineSet
EndChar

StartChar: acircumflex
Encoding: 226 226 146
Width: 607
Flags: W
HStem: 0 155<244 362> 203 119<244 362> 382 156<29 362>
VStem: 29 549<20.1772 155 203 301.167 382 517.167>
LayerCount: 2
Fore
SplineSet
98 654 m 1,0,-1
 303 744 l 1,1,-1
 508 654 l 1,2,-1
 508 599 l 1,3,-1
 303 646 l 1,4,-1
 98 599 l 1,5,-1
 98 654 l 1,0,-1
29 251 m 2,6,7
 29 279 29 279 50.5 300.5 c 128,-1,8
 72 322 72 322 100 322 c 2,9,-1
 362 322 l 1,10,-1
 362 382 l 1,11,-1
 29 382 l 1,12,-1
 29 538 l 1,13,-1
 506 538 l 2,14,15
 535 538 535 538 556.5 516.5 c 128,-1,16
 578 495 578 495 578 466 c 2,17,-1
 578 0 l 1,18,-1
 100 0 l 2,19,20
 71 0 71 0 50 21.5 c 128,-1,21
 29 43 29 43 29 72 c 2,22,-1
 29 251 l 2,6,7
362 155 m 1,23,-1
 362 203 l 1,24,-1
 244 203 l 1,25,-1
 244 155 l 1,26,-1
 362 155 l 1,23,-1
EndSplineSet
EndChar

StartChar: atilde
Encoding: 227 227 147
Width: 611
Flags: W
HStem: 0 155<246 365> 203 119<246 365> 382 156<31 365> 579 91<335.692 477.201> 644 91<134.436 290.085>
VStem: 31 549<20.1772 155 203 301.167 382 517.167>
LayerCount: 2
Fore
SplineSet
105 685 m 1,0,1
 129 713 129 713 153.5 724 c 128,-1,2
 178 735 178 735 203 735 c 0,3,4
 231 735 231 735 258.5 725 c 128,-1,5
 286 715 286 715 313 702.5 c 128,-1,6
 340 690 340 690 366.5 680 c 128,-1,7
 393 670 393 670 418 670 c 0,8,9
 442 670 442 670 462.5 681.5 c 128,-1,10
 483 693 483 693 504 723 c 1,11,-1
 504 632 l 1,12,13
 484 602 484 602 462.5 590.5 c 128,-1,14
 441 579 441 579 418 579 c 0,15,16
 393 579 393 579 366.5 589 c 128,-1,17
 340 599 340 599 313 611.5 c 128,-1,18
 286 624 286 624 258 634 c 128,-1,19
 230 644 230 644 203 644 c 0,20,21
 178 644 178 644 153.5 633 c 128,-1,22
 129 622 129 622 105 594 c 1,23,-1
 105 685 l 1,0,1
31 251 m 2,24,25
 31 279 31 279 52.5 300.5 c 128,-1,26
 74 322 74 322 102 322 c 2,27,-1
 365 322 l 1,28,-1
 365 382 l 1,29,-1
 31 382 l 1,30,-1
 31 538 l 1,31,-1
 508 538 l 2,32,33
 537 538 537 538 558.5 516.5 c 128,-1,34
 580 495 580 495 580 466 c 2,35,-1
 580 0 l 1,36,-1
 102 0 l 2,37,38
 73 0 73 0 52 21.5 c 128,-1,39
 31 43 31 43 31 72 c 2,40,-1
 31 251 l 2,24,25
365 155 m 1,41,-1
 365 203 l 1,42,-1
 246 203 l 1,43,-1
 246 155 l 1,44,-1
 365 155 l 1,41,-1
EndSplineSet
EndChar

StartChar: adieresis
Encoding: 228 228 148
Width: 611
Flags: W
HStem: 0 155<246 365> 203 119<246 365> 382 156<31 365> 589 150<130.567 242.793 366.675 478.793>
VStem: 31 549<20.1772 155 203 301.167 382 517.167> 112 151<613.235 714.765> 347 152<613.235 714.765>
LayerCount: 2
Fore
SplineSet
366 612 m 256,0,1
 348 636 348 636 347 665 c 0,2,3
 347 693 347 693 365.5 716 c 128,-1,4
 384 739 384 739 422 739 c 0,5,6
 461 739 461 739 480 715.5 c 128,-1,7
 499 692 499 692 499 664 c 128,-1,8
 499 636 499 636 480 612.5 c 128,-1,9
 461 589 461 589 422 589 c 0,10,11
 384 588 384 588 366 612 c 256,0,1
130 612 m 256,12,13
 112 636 112 636 112 665 c 0,14,15
 112 693 112 693 130 716 c 128,-1,16
 148 739 148 739 186 739 c 0,17,18
 225 739 225 739 244 715.5 c 128,-1,19
 263 692 263 692 263 664 c 128,-1,20
 263 636 263 636 244 612.5 c 128,-1,21
 225 589 225 589 186 589 c 0,22,23
 148 588 148 588 130 612 c 256,12,13
31 251 m 2,24,25
 31 279 31 279 52.5 300.5 c 128,-1,26
 74 322 74 322 102 322 c 2,27,-1
 365 322 l 1,28,-1
 365 382 l 1,29,-1
 31 382 l 1,30,-1
 31 538 l 1,31,-1
 508 538 l 2,32,33
 537 538 537 538 558.5 516.5 c 128,-1,34
 580 495 580 495 580 466 c 2,35,-1
 580 0 l 1,36,-1
 102 0 l 2,37,38
 73 0 73 0 52 21.5 c 128,-1,39
 31 43 31 43 31 72 c 2,40,-1
 31 251 l 2,24,25
365 155 m 1,41,-1
 365 203 l 1,42,-1
 246 203 l 1,43,-1
 246 155 l 1,44,-1
 365 155 l 1,41,-1
EndSplineSet
EndChar

StartChar: aring
Encoding: 229 229 149
Width: 598
Flags: W
HStem: 0 155<239 357> 203 119<239 357> 382 156<24 357> 589 51<259.291 336.723> 732 51<258.692 336.723>
VStem: 24 548<20.1772 155 203 301.167 382 517.823> 201 51<647.291 725.129> 344 51<647.277 724.679>
LayerCount: 2
Fore
SplineSet
229 617 m 256,0,1
 216 630 216 630 208.5 648.5 c 128,-1,2
 201 667 201 667 201 686 c 256,3,4
 201 705 201 705 208.5 723 c 128,-1,5
 216 741 216 741 229.5 754.5 c 128,-1,6
 243 768 243 768 261 775.5 c 128,-1,7
 279 783 279 783 298 783 c 256,8,9
 317 783 317 783 335 775.5 c 128,-1,10
 353 768 353 768 366.5 754.5 c 128,-1,11
 380 741 380 741 387.5 723.5 c 128,-1,12
 395 706 395 706 395 686 c 256,13,14
 395 667 395 667 387.5 649 c 128,-1,15
 380 631 380 631 366.5 617.5 c 128,-1,16
 353 604 353 604 335 596.5 c 128,-1,17
 317 589 317 589 298 589 c 256,18,19
 279 589 279 589 260.5 596.5 c 128,-1,20
 242 604 242 604 229 617 c 256,0,1
298 640 m 256,21,22
 316 640 316 640 330 654 c 128,-1,23
 344 668 344 668 344 686 c 256,24,25
 344 704 344 704 330 718 c 128,-1,26
 316 732 316 732 298 732 c 256,27,28
 280 732 280 732 266 718.5 c 128,-1,29
 252 705 252 705 252 686 c 256,30,31
 252 668 252 668 266 654 c 128,-1,32
 280 640 280 640 298 640 c 256,21,22
24 251 m 2,33,34
 24 279 24 279 45.5 300.5 c 128,-1,35
 67 322 67 322 95 322 c 2,36,-1
 357 322 l 1,37,-1
 357 382 l 1,38,-1
 24 382 l 1,39,-1
 24 538 l 1,40,-1
 501 538 l 2,41,42
 530 538 530 538 551 516.5 c 128,-1,43
 572 495 572 495 572 466 c 2,44,-1
 572 0 l 1,45,-1
 95 0 l 2,46,47
 66 0 66 0 45 21.5 c 128,-1,48
 24 43 24 43 24 72 c 2,49,-1
 24 251 l 2,33,34
357 155 m 1,50,-1
 357 203 l 1,51,-1
 239 203 l 1,52,-1
 239 155 l 1,53,-1
 357 155 l 1,50,-1
EndSplineSet
EndChar

StartChar: ae
Encoding: 230 230 150
Width: 1171
Flags: W
HStem: 0 155<252 372 802 1065> 203 119<252 372 802 922> 382 156<37 372 802 922>
LayerCount: 2
Fore
SplineSet
37 251 m 2,0,1
 37 279 37 279 59 300.5 c 128,-1,2
 81 322 81 322 109 322 c 2,3,-1
 372 322 l 1,4,-1
 372 382 l 1,5,-1
 37 382 l 1,6,-1
 37 538 l 1,7,-1
 515 538 l 2,8,9
 542 538 542 538 563.5 518 c 128,-1,10
 585 498 585 498 587 471 c 1,11,12
 589 498 589 498 610.5 518 c 128,-1,13
 632 538 632 538 658 538 c 2,14,-1
 1065 538 l 2,15,16
 1093 538 1093 538 1115 516.5 c 128,-1,17
 1137 495 1137 495 1137 466 c 2,18,-1
 1137 274 l 2,19,20
 1137 244 1137 244 1115 223.5 c 128,-1,21
 1093 203 1093 203 1065 203 c 2,22,-1
 802 203 l 1,23,-1
 802 155 l 1,24,-1
 1137 155 l 1,25,-1
 1065 0 l 1,26,-1
 658 0 l 2,27,28
 632 0 632 0 610.5 18 c 128,-1,29
 589 36 589 36 587 62 c 1,30,-1
 587 0 l 1,31,-1
 109 0 l 2,32,33
 81 0 81 0 59 21 c 128,-1,34
 37 42 37 42 37 72 c 2,35,-1
 37 251 l 2,0,1
922 322 m 1,36,-1
 922 382 l 1,37,-1
 802 382 l 1,38,-1
 802 322 l 1,39,-1
 922 322 l 1,36,-1
372 155 m 1,40,-1
 372 203 l 1,41,-1
 252 203 l 1,42,-1
 252 155 l 1,43,-1
 372 155 l 1,40,-1
EndSplineSet
EndChar

StartChar: ccedilla
Encoding: 231 231 151
Width: 595
Flags: W
HStem: -219 66<185.657 337.682> -60 215<241.272 331.859> 0 155<345 503> 382 156<241 503>
VStem: 26 215<155 382> 353 102<-134.918 -67.8408>
LayerCount: 2
Fore
SplineSet
26 466 m 2,0,1
 26 495 26 495 47.5 516.5 c 128,-1,2
 69 538 69 538 97 538 c 2,3,-1
 574 538 l 1,4,-1
 503 382 l 1,5,-1
 241 382 l 1,6,-1
 241 155 l 1,7,-1
 574 155 l 1,8,-1
 503 0 l 1,9,-1
 345 0 l 1,10,11
 368 -4 368 -4 388 -12 c 128,-1,12
 408 -20 408 -20 422.5 -33 c 128,-1,13
 437 -46 437 -46 446 -64 c 128,-1,14
 455 -82 455 -82 455 -106 c 0,15,16
 455 -139 455 -139 439.5 -161 c 128,-1,17
 424 -183 424 -183 399.5 -196 c 128,-1,18
 375 -209 375 -209 344 -214 c 128,-1,19
 313 -219 313 -219 282 -219 c 0,20,21
 255 -219 255 -219 230.5 -216 c 128,-1,22
 206 -213 206 -213 185 -209 c 1,23,-1
 158 -139 l 1,24,25
 169 -144 169 -144 193 -148.5 c 128,-1,26
 217 -153 217 -153 245 -153 c 0,27,28
 264 -153 264 -153 283.5 -150 c 128,-1,29
 303 -147 303 -147 318.5 -141 c 128,-1,30
 334 -135 334 -135 343.5 -125.5 c 128,-1,31
 353 -116 353 -116 353 -100 c 0,32,33
 353 -76 353 -76 332.5 -68 c 128,-1,34
 312 -60 312 -60 288 -60 c 0,35,36
 269 -60 269 -60 250.5 -64 c 128,-1,37
 232 -68 232 -68 222 -71 c 1,38,-1
 188 -11 l 1,39,40
 196 -7 196 -7 207 -4.5 c 128,-1,41
 218 -2 218 -2 229 0 c 1,42,-1
 97 0 l 2,43,44
 68 0 68 0 47 21.5 c 128,-1,45
 26 43 26 43 26 72 c 2,46,-1
 26 466 l 2,0,1
EndSplineSet
EndChar

StartChar: egrave
Encoding: 232 232 152
Width: 600
Flags: W
HStem: 0 155<244 506> 203 119<244 362> 382 156<244 362>
LayerCount: 2
Fore
SplineSet
158 744 m 1,0,-1
 444 654 l 1,1,-1
 444 599 l 1,2,-1
 158 646 l 1,3,-1
 158 744 l 1,0,-1
29 466 m 2,4,5
 29 495 29 495 50.5 516.5 c 128,-1,6
 72 538 72 538 100 538 c 2,7,-1
 506 538 l 2,8,9
 535 538 535 538 556.5 516.5 c 128,-1,10
 578 495 578 495 578 466 c 2,11,-1
 578 274 l 2,12,13
 578 245 578 245 556.5 224 c 128,-1,14
 535 203 535 203 506 203 c 2,15,-1
 244 203 l 1,16,-1
 244 155 l 1,17,-1
 578 155 l 1,18,-1
 506 0 l 1,19,-1
 100 0 l 2,20,21
 71 0 71 0 50 21.5 c 128,-1,22
 29 43 29 43 29 72 c 2,23,-1
 29 466 l 2,4,5
362 322 m 1,24,-1
 362 382 l 1,25,-1
 244 382 l 1,26,-1
 244 322 l 1,27,-1
 362 322 l 1,24,-1
EndSplineSet
EndChar

StartChar: eacute
Encoding: 233 233 153
Width: 600
Flags: W
HStem: 0 155<241 503> 203 119<241 359> 382 156<241 359>
LayerCount: 2
Fore
SplineSet
155 654 m 1,0,-1
 441 744 l 1,1,-1
 441 646 l 1,2,-1
 155 599 l 1,3,-1
 155 654 l 1,0,-1
26 466 m 2,4,5
 26 495 26 495 47.5 516.5 c 128,-1,6
 69 538 69 538 97 538 c 2,7,-1
 503 538 l 2,8,9
 532 538 532 538 553 516.5 c 128,-1,10
 574 495 574 495 574 466 c 2,11,-1
 574 274 l 2,12,13
 574 245 574 245 552.5 224 c 128,-1,14
 531 203 531 203 503 203 c 2,15,-1
 241 203 l 1,16,-1
 241 155 l 1,17,-1
 574 155 l 1,18,-1
 503 0 l 1,19,-1
 97 0 l 2,20,21
 68 0 68 0 47 21.5 c 128,-1,22
 26 43 26 43 26 72 c 2,23,-1
 26 466 l 2,4,5
359 322 m 1,24,-1
 359 382 l 1,25,-1
 241 382 l 1,26,-1
 241 322 l 1,27,-1
 359 322 l 1,24,-1
EndSplineSet
EndChar

StartChar: ecircumflex
Encoding: 234 234 154
Width: 605
Flags: W
HStem: 0 155<245 507> 203 119<245 364> 382 156<245 364>
LayerCount: 2
Fore
SplineSet
97 654 m 1,0,-1
 302 744 l 1,1,-1
 507 654 l 1,2,-1
 507 599 l 1,3,-1
 302 646 l 1,4,-1
 97 599 l 1,5,-1
 97 654 l 1,0,-1
30 466 m 2,6,7
 30 495 30 495 51.5 516.5 c 128,-1,8
 73 538 73 538 101 538 c 2,9,-1
 507 538 l 2,10,11
 536 538 536 538 557.5 516.5 c 128,-1,12
 579 495 579 495 579 466 c 2,13,-1
 579 274 l 2,14,15
 579 245 579 245 557.5 224 c 128,-1,16
 536 203 536 203 507 203 c 2,17,-1
 245 203 l 1,18,-1
 245 155 l 1,19,-1
 579 155 l 1,20,-1
 507 0 l 1,21,-1
 101 0 l 2,22,23
 72 0 72 0 51 21.5 c 128,-1,24
 30 43 30 43 30 72 c 2,25,-1
 30 466 l 2,6,7
364 322 m 1,26,-1
 364 382 l 1,27,-1
 245 382 l 1,28,-1
 245 322 l 1,29,-1
 364 322 l 1,26,-1
EndSplineSet
EndChar

StartChar: edieresis
Encoding: 235 235 155
Width: 609
Flags: W
HStem: 0 155<247 509> 203 119<247 366> 382 156<247 366> 589 150<129.567 241.793 365.675 477.793>
VStem: 111 151<613.235 714.765> 346 152<613.235 714.765>
LayerCount: 2
Fore
SplineSet
365 612 m 256,0,1
 347 636 347 636 346 665 c 0,2,3
 346 693 346 693 364.5 716 c 128,-1,4
 383 739 383 739 421 739 c 0,5,6
 460 739 460 739 479 715.5 c 128,-1,7
 498 692 498 692 498 664 c 128,-1,8
 498 636 498 636 479 612.5 c 128,-1,9
 460 589 460 589 421 589 c 0,10,11
 383 588 383 588 365 612 c 256,0,1
129 612 m 256,12,13
 111 636 111 636 111 665 c 0,14,15
 111 693 111 693 129 716 c 128,-1,16
 147 739 147 739 185 739 c 0,17,18
 224 739 224 739 243 715.5 c 128,-1,19
 262 692 262 692 262 664 c 128,-1,20
 262 636 262 636 243 612.5 c 128,-1,21
 224 589 224 589 185 589 c 0,22,23
 147 588 147 588 129 612 c 256,12,13
32 466 m 2,24,25
 32 495 32 495 53.5 516.5 c 128,-1,26
 75 538 75 538 103 538 c 2,27,-1
 509 538 l 2,28,29
 538 538 538 538 559.5 516.5 c 128,-1,30
 581 495 581 495 581 466 c 2,31,-1
 581 274 l 2,32,33
 581 245 581 245 559.5 224 c 128,-1,34
 538 203 538 203 509 203 c 2,35,-1
 247 203 l 1,36,-1
 247 155 l 1,37,-1
 581 155 l 1,38,-1
 509 0 l 1,39,-1
 103 0 l 2,40,41
 74 0 74 0 53 21.5 c 128,-1,42
 32 43 32 43 32 72 c 2,43,-1
 32 466 l 2,24,25
366 322 m 1,44,-1
 366 382 l 1,45,-1
 247 382 l 1,46,-1
 247 322 l 1,47,-1
 366 322 l 1,44,-1
EndSplineSet
EndChar

StartChar: igrave
Encoding: 236 236 156
Width: 289
Flags: W
HStem: 0 21G<37 252> 518 20G<37 252>
VStem: 37 215<0 538>
LayerCount: 2
Fore
SplineSet
2 744 m 1,0,-1
 289 654 l 1,1,-1
 289 599 l 1,2,-1
 2 646 l 1,3,-1
 2 744 l 1,0,-1
37 538 m 1,4,-1
 252 538 l 1,5,-1
 252 0 l 1,6,-1
 37 0 l 1,7,-1
 37 538 l 1,4,-1
EndSplineSet
EndChar

StartChar: iacute
Encoding: 237 237 157
Width: 289
Flags: W
HStem: 0 21G<37 252> 518 20G<37 252>
VStem: 37 215<0 538>
LayerCount: 2
Fore
SplineSet
2 654 m 1,0,-1
 289 744 l 1,1,-1
 289 646 l 1,2,-1
 2 599 l 1,3,-1
 2 654 l 1,0,-1
37 538 m 1,4,-1
 252 538 l 1,5,-1
 252 0 l 1,6,-1
 37 0 l 1,7,-1
 37 538 l 1,4,-1
EndSplineSet
EndChar

StartChar: icircumflex
Encoding: 238 238 158
Width: 289
Flags: W
HStem: 0 21G<37 252> 518 20G<37 252>
VStem: 37 215<0 538>
LayerCount: 2
Fore
SplineSet
-59 654 m 1,0,-1
 145 744 l 1,1,-1
 350 654 l 1,2,-1
 350 599 l 1,3,-1
 145 646 l 1,4,-1
 -59 599 l 1,5,-1
 -59 654 l 1,0,-1
37 538 m 1,6,-1
 252 538 l 1,7,-1
 252 0 l 1,8,-1
 37 0 l 1,9,-1
 37 538 l 1,6,-1
EndSplineSet
EndChar

StartChar: idieresis
Encoding: 239 239 159
Width: 289
Flags: W
HStem: 0 21G<37 252> 518 20G<37 252> 589 150<-28.8545 83.3237 206.675 318.793>
VStem: -48 151<613.235 714.765> 37 215<0 538> 187 152<613.235 714.765>
LayerCount: 2
Fore
SplineSet
206 612 m 256,0,1
 188 636 188 636 187 665 c 0,2,3
 187 693 187 693 205.5 716 c 128,-1,4
 224 739 224 739 262 739 c 0,5,6
 301 739 301 739 320 715.5 c 128,-1,7
 339 692 339 692 339 664 c 128,-1,8
 339 636 339 636 320 612.5 c 128,-1,9
 301 589 301 589 262 589 c 0,10,11
 224 588 224 588 206 612 c 256,0,1
-30 612 m 256,12,13
 -48 636 -48 636 -48 665 c 0,14,15
 -48 693 -48 693 -29.5 716 c 128,-1,16
 -11 739 -11 739 27 739 c 0,17,18
 66 739 66 739 84.5 715.5 c 128,-1,19
 103 692 103 692 103 664 c 128,-1,20
 103 636 103 636 84.5 612.5 c 128,-1,21
 66 589 66 589 27 589 c 0,22,23
 -12 588 -12 588 -30 612 c 256,12,13
37 538 m 1,24,-1
 252 538 l 1,25,-1
 252 0 l 1,26,-1
 37 0 l 1,27,-1
 37 538 l 1,24,-1
EndSplineSet
EndChar

StartChar: ntilde
Encoding: 241 241 160
Width: 613
Flags: W
HStem: 0 21G<33 248 367 582> 382 156<248 367> 579 91<337.692 479.201> 644 91<137.293 292.085>
VStem: 33 215<0 382> 367 215<0 382>
LayerCount: 2
Fore
SplineSet
108 685 m 1,0,1
 132 713 132 713 156 724 c 128,-1,2
 180 735 180 735 205 735 c 0,3,4
 233 735 233 735 260.5 725 c 128,-1,5
 288 715 288 715 315 702.5 c 128,-1,6
 342 690 342 690 368.5 680 c 128,-1,7
 395 670 395 670 420 670 c 0,8,9
 444 670 444 670 464.5 681.5 c 128,-1,10
 485 693 485 693 506 723 c 1,11,-1
 506 632 l 1,12,13
 486 602 486 602 464.5 590.5 c 128,-1,14
 443 579 443 579 420 579 c 0,15,16
 395 579 395 579 368.5 589 c 128,-1,17
 342 599 342 599 315 611.5 c 128,-1,18
 288 624 288 624 260 634 c 128,-1,19
 232 644 232 644 205 644 c 0,20,21
 180 644 180 644 155.5 633 c 128,-1,22
 131 622 131 622 108 594 c 1,23,-1
 108 685 l 1,0,1
33 538 m 1,24,-1
 510 538 l 2,25,26
 539 538 539 538 560.5 516.5 c 128,-1,27
 582 495 582 495 582 466 c 2,28,-1
 582 0 l 1,29,-1
 367 0 l 1,30,-1
 367 382 l 1,31,-1
 248 382 l 1,32,-1
 248 0 l 1,33,-1
 33 0 l 1,34,-1
 33 538 l 1,24,-1
EndSplineSet
EndChar

StartChar: ograve
Encoding: 242 242 161
Width: 603
Flags: W
HStem: 0 155<244 362> 382 156<244 362>
VStem: 29 215<155 382> 362 216<155 382>
LayerCount: 2
Fore
SplineSet
160 744 m 1,0,-1
 446 654 l 1,1,-1
 446 599 l 1,2,-1
 160 646 l 1,3,-1
 160 744 l 1,0,-1
29 466 m 2,4,5
 29 495 29 495 50.5 516.5 c 128,-1,6
 72 538 72 538 100 538 c 2,7,-1
 506 538 l 2,8,9
 535 538 535 538 556.5 516.5 c 128,-1,10
 578 495 578 495 578 466 c 2,11,-1
 578 72 l 2,12,13
 578 43 578 43 556.5 21.5 c 128,-1,14
 535 0 535 0 506 0 c 2,15,-1
 100 0 l 2,16,17
 71 0 71 0 50 21.5 c 128,-1,18
 29 43 29 43 29 72 c 2,19,-1
 29 466 l 2,4,5
362 155 m 1,20,-1
 362 382 l 1,21,-1
 244 382 l 1,22,-1
 244 155 l 1,23,-1
 362 155 l 1,20,-1
EndSplineSet
EndChar

StartChar: oacute
Encoding: 243 243 162
Width: 603
Flags: W
HStem: 0 155<241 359> 382 156<241 359>
VStem: 26 215<155 382> 359 215<155 382>
LayerCount: 2
Fore
SplineSet
157 654 m 1,0,-1
 443 744 l 1,1,-1
 443 646 l 1,2,-1
 157 599 l 1,3,-1
 157 654 l 1,0,-1
26 466 m 2,4,5
 26 495 26 495 47.5 516.5 c 128,-1,6
 69 538 69 538 97 538 c 2,7,-1
 503 538 l 2,8,9
 532 538 532 538 553 516.5 c 128,-1,10
 574 495 574 495 574 466 c 2,11,-1
 574 72 l 2,12,13
 574 43 574 43 552.5 21.5 c 128,-1,14
 531 0 531 0 503 0 c 2,15,-1
 97 0 l 2,16,17
 68 0 68 0 47 21.5 c 128,-1,18
 26 43 26 43 26 72 c 2,19,-1
 26 466 l 2,4,5
359 155 m 1,20,-1
 359 382 l 1,21,-1
 241 382 l 1,22,-1
 241 155 l 1,23,-1
 359 155 l 1,20,-1
EndSplineSet
EndChar

StartChar: ocircumflex
Encoding: 244 244 163
Width: 608
Flags: W
HStem: 0 155<245 364> 382 156<245 364>
VStem: 30 215<155 382> 364 215<155 382>
LayerCount: 2
Fore
SplineSet
99 654 m 1,0,-1
 304 744 l 1,1,-1
 509 654 l 1,2,-1
 509 599 l 1,3,-1
 304 646 l 1,4,-1
 99 599 l 1,5,-1
 99 654 l 1,0,-1
30 466 m 2,6,7
 30 495 30 495 51.5 516.5 c 128,-1,8
 73 538 73 538 101 538 c 2,9,-1
 507 538 l 2,10,11
 536 538 536 538 557.5 516.5 c 128,-1,12
 579 495 579 495 579 466 c 2,13,-1
 579 72 l 2,14,15
 579 43 579 43 557.5 21.5 c 128,-1,16
 536 0 536 0 507 0 c 2,17,-1
 101 0 l 2,18,19
 72 0 72 0 51 21.5 c 128,-1,20
 30 43 30 43 30 72 c 2,21,-1
 30 466 l 2,6,7
364 155 m 1,22,-1
 364 382 l 1,23,-1
 245 382 l 1,24,-1
 245 155 l 1,25,-1
 364 155 l 1,22,-1
EndSplineSet
EndChar

StartChar: otilde
Encoding: 245 245 164
Width: 612
Flags: W
HStem: 0 155<247 366> 382 156<247 366> 579 91<336.692 478.201> 644 91<135.436 291.085>
VStem: 32 215<155 382> 366 215<155 382>
LayerCount: 2
Fore
SplineSet
106 685 m 1,0,1
 130 713 130 713 154.5 724 c 128,-1,2
 179 735 179 735 204 735 c 0,3,4
 232 735 232 735 259.5 725 c 128,-1,5
 287 715 287 715 314 702.5 c 128,-1,6
 341 690 341 690 367.5 680 c 128,-1,7
 394 670 394 670 419 670 c 0,8,9
 443 670 443 670 463.5 681.5 c 128,-1,10
 484 693 484 693 505 723 c 1,11,-1
 505 632 l 1,12,13
 485 602 485 602 463.5 590.5 c 128,-1,14
 442 579 442 579 419 579 c 0,15,16
 394 579 394 579 367.5 589 c 128,-1,17
 341 599 341 599 314 611.5 c 128,-1,18
 287 624 287 624 259 634 c 128,-1,19
 231 644 231 644 204 644 c 0,20,21
 179 644 179 644 154.5 633 c 128,-1,22
 130 622 130 622 106 594 c 1,23,-1
 106 685 l 1,0,1
32 466 m 2,24,25
 32 495 32 495 53.5 516.5 c 128,-1,26
 75 538 75 538 103 538 c 2,27,-1
 509 538 l 2,28,29
 538 538 538 538 559.5 516.5 c 128,-1,30
 581 495 581 495 581 466 c 2,31,-1
 581 72 l 2,32,33
 581 43 581 43 559.5 21.5 c 128,-1,34
 538 0 538 0 509 0 c 2,35,-1
 103 0 l 2,36,37
 74 0 74 0 53 21.5 c 128,-1,38
 32 43 32 43 32 72 c 2,39,-1
 32 466 l 2,24,25
366 155 m 1,40,-1
 366 382 l 1,41,-1
 247 382 l 1,42,-1
 247 155 l 1,43,-1
 366 155 l 1,40,-1
EndSplineSet
EndChar

StartChar: odieresis
Encoding: 246 246 165
Width: 612
Flags: W
HStem: 0 155<247 366> 382 156<247 366> 589 150<132.145 243.793 367.675 479.793>
VStem: 32 215<155 382> 113 151<613.235 714.765> 348 152<613.235 714.765> 366 215<155 382>
LayerCount: 2
Fore
SplineSet
367 612 m 256,0,1
 349 636 349 636 348 665 c 0,2,3
 348 693 348 693 366.5 716 c 128,-1,4
 385 739 385 739 423 739 c 0,5,6
 462 739 462 739 481 715.5 c 128,-1,7
 500 692 500 692 500 664 c 128,-1,8
 500 636 500 636 481 612.5 c 128,-1,9
 462 589 462 589 423 589 c 0,10,11
 385 588 385 588 367 612 c 256,0,1
131 612 m 256,12,13
 113 636 113 636 113 665 c 0,14,15
 113 693 113 693 131.5 716 c 128,-1,16
 150 739 150 739 187 739 c 0,17,18
 226 739 226 739 245 715.5 c 128,-1,19
 264 692 264 692 264 664 c 128,-1,20
 264 636 264 636 245 612.5 c 128,-1,21
 226 589 226 589 187 589 c 0,22,23
 149 588 149 588 131 612 c 256,12,13
32 466 m 2,24,25
 32 495 32 495 53.5 516.5 c 128,-1,26
 75 538 75 538 103 538 c 2,27,-1
 509 538 l 2,28,29
 538 538 538 538 559.5 516.5 c 128,-1,30
 581 495 581 495 581 466 c 2,31,-1
 581 72 l 2,32,33
 581 43 581 43 559.5 21.5 c 128,-1,34
 538 0 538 0 509 0 c 2,35,-1
 103 0 l 2,36,37
 74 0 74 0 53 21.5 c 128,-1,38
 32 43 32 43 32 72 c 2,39,-1
 32 466 l 2,24,25
366 155 m 1,40,-1
 366 382 l 1,41,-1
 247 382 l 1,42,-1
 247 155 l 1,43,-1
 366 155 l 1,40,-1
EndSplineSet
EndChar

StartChar: divide
Encoding: 247 247 166
Width: 499
Flags: W
HStem: 92 151<193.207 306.793> 281 155<11 488> 474 151<195.277 306.793>
VStem: 173 154<116.235 218.764 498.751 600.764>
CounterMasks: 1 e0
LayerCount: 2
Fore
SplineSet
194 498 m 256,0,1
 176 522 176 522 175 550 c 0,2,3
 175 578 175 578 193.5 601.5 c 128,-1,4
 212 625 212 625 250 625 c 0,5,6
 289 625 289 625 308 601.5 c 128,-1,7
 327 578 327 578 327 549 c 0,8,9
 327 521 327 521 308 497.5 c 128,-1,10
 289 474 289 474 250 474 c 0,11,12
 212 474 212 474 194 498 c 256,0,1
11 436 m 1,13,-1
 488 436 l 1,14,-1
 488 281 l 1,15,-1
 11 281 l 1,16,-1
 11 436 l 1,13,-1
173 167 m 0,17,18
 173 196 173 196 192 219.5 c 128,-1,19
 211 243 211 243 250 243 c 256,20,21
 289 243 289 243 308 219.5 c 128,-1,22
 327 196 327 196 327 167 c 0,23,24
 327 139 327 139 308 115.5 c 128,-1,25
 289 92 289 92 250 92 c 256,26,27
 211 92 211 92 192 115.5 c 128,-1,28
 173 139 173 139 173 167 c 0,17,18
EndSplineSet
EndChar

StartChar: oslash
Encoding: 248 248 167
Width: 667
Flags: W
HStem: 0 156<274 393> 383 155<274 393>
VStem: 59 215<156 165 258 383> 393 215<156 280 373 383>
LayerCount: 2
Fore
SplineSet
61 55 m 1,0,1
 60 60 60 60 59.5 64.5 c 128,-1,2
 59 69 59 69 59 72 c 2,3,-1
 59 466 l 2,4,5
 59 495 59 495 80.5 516.5 c 128,-1,6
 102 538 102 538 131 538 c 2,7,-1
 537 538 l 2,8,9
 549 538 549 538 561 534 c 1,10,-1
 591 562 l 1,11,-1
 638 514 l 1,12,-1
 606 483 l 1,13,14
 607 478 607 478 607.5 474.5 c 128,-1,15
 608 471 608 471 608 466 c 2,16,-1
 608 72 l 2,17,18
 608 44 608 44 586.5 22 c 128,-1,19
 565 0 565 0 537 0 c 2,20,-1
 131 0 l 2,21,22
 125 0 125 0 119.5 1.5 c 128,-1,23
 114 3 114 3 106 5 c 1,24,-1
 77 -23 l 1,25,-1
 30 25 l 1,26,-1
 61 55 l 1,0,1
393 373 m 1,27,-1
 393 383 l 1,28,-1
 274 383 l 1,29,-1
 274 258 l 1,30,-1
 393 373 l 1,27,-1
393 156 m 1,31,-1
 393 280 l 1,32,-1
 274 165 l 1,33,-1
 274 156 l 1,34,-1
 393 156 l 1,31,-1
EndSplineSet
EndChar

StartChar: ugrave
Encoding: 249 249 168
Width: 604
Flags: W
HStem: 0 155<244 362> 518 20G<29 244 362 578>
VStem: 29 215<155 538> 362 216<155 538>
LayerCount: 2
Fore
SplineSet
160 744 m 1,0,-1
 446 654 l 1,1,-1
 446 599 l 1,2,-1
 160 646 l 1,3,-1
 160 744 l 1,0,-1
29 538 m 1,4,-1
 244 538 l 1,5,-1
 244 155 l 1,6,-1
 362 155 l 1,7,-1
 362 538 l 1,8,-1
 578 538 l 1,9,-1
 578 0 l 1,10,-1
 100 0 l 2,11,12
 71 0 71 0 50 21.5 c 128,-1,13
 29 43 29 43 29 72 c 2,14,-1
 29 538 l 1,4,-1
EndSplineSet
EndChar

StartChar: uacute
Encoding: 250 250 169
Width: 604
Flags: W
HStem: 0 155<241 359> 518 20G<26 241 359 574>
VStem: 26 215<155 538> 359 215<155 538>
LayerCount: 2
Fore
SplineSet
157 654 m 1,0,-1
 443 744 l 1,1,-1
 443 646 l 1,2,-1
 157 599 l 1,3,-1
 157 654 l 1,0,-1
26 538 m 1,4,-1
 241 538 l 1,5,-1
 241 155 l 1,6,-1
 359 155 l 1,7,-1
 359 538 l 1,8,-1
 574 538 l 1,9,-1
 574 0 l 1,10,-1
 97 0 l 2,11,12
 68 0 68 0 47 21.5 c 128,-1,13
 26 43 26 43 26 72 c 2,14,-1
 26 538 l 1,4,-1
EndSplineSet
EndChar

StartChar: ucircumflex
Encoding: 251 251 170
Width: 609
Flags: W
HStem: 0 155<245 364> 518 20G<30 245 364 579>
VStem: 30 215<155 538> 364 215<155 538>
LayerCount: 2
Fore
SplineSet
99 654 m 1,0,-1
 304 744 l 1,1,-1
 509 654 l 1,2,-1
 509 599 l 1,3,-1
 304 646 l 1,4,-1
 99 599 l 1,5,-1
 99 654 l 1,0,-1
30 538 m 1,6,-1
 245 538 l 1,7,-1
 245 155 l 1,8,-1
 364 155 l 1,9,-1
 364 538 l 1,10,-1
 579 538 l 1,11,-1
 579 0 l 1,12,-1
 101 0 l 2,13,14
 72 0 72 0 51 21.5 c 128,-1,15
 30 43 30 43 30 72 c 2,16,-1
 30 538 l 1,6,-1
EndSplineSet
EndChar

StartChar: udieresis
Encoding: 252 252 171
Width: 613
Flags: W
HStem: 0 155<247 366> 518 20G<32 247 366 581> 589 150<132.145 243.793 367.675 479.793>
VStem: 32 215<155 538> 113 151<613.235 714.765> 348 152<613.235 714.765> 366 215<155 538>
LayerCount: 2
Fore
SplineSet
367 612 m 256,0,1
 349 636 349 636 348 665 c 0,2,3
 348 693 348 693 366.5 716 c 128,-1,4
 385 739 385 739 423 739 c 0,5,6
 462 739 462 739 481 715.5 c 128,-1,7
 500 692 500 692 500 664 c 128,-1,8
 500 636 500 636 481 612.5 c 128,-1,9
 462 589 462 589 423 589 c 0,10,11
 385 588 385 588 367 612 c 256,0,1
131 612 m 256,12,13
 113 636 113 636 113 665 c 0,14,15
 113 693 113 693 131.5 716 c 128,-1,16
 150 739 150 739 187 739 c 0,17,18
 226 739 226 739 245 715.5 c 128,-1,19
 264 692 264 692 264 664 c 128,-1,20
 264 636 264 636 245 612.5 c 128,-1,21
 226 589 226 589 187 589 c 0,22,23
 149 588 149 588 131 612 c 256,12,13
32 538 m 1,24,-1
 247 538 l 1,25,-1
 247 155 l 1,26,-1
 366 155 l 1,27,-1
 366 538 l 1,28,-1
 581 538 l 1,29,-1
 581 0 l 1,30,-1
 103 0 l 2,31,32
 74 0 74 0 53 21.5 c 128,-1,33
 32 43 32 43 32 72 c 2,34,-1
 32 538 l 1,24,-1
EndSplineSet
EndChar

StartChar: ydieresis
Encoding: 255 255 172
Width: 611
Flags: W
HStem: -239 156<101 364> 0 156<245 364> 518 20G<30 245 364 579> 589 150<130.567 242.793 366.675 478.793>
VStem: 30 215<156 538> 112 151<613.235 714.765> 347 152<613.235 714.765> 364 215<-83 0 156 538>
LayerCount: 2
Fore
SplineSet
366 612 m 256,0,1
 348 636 348 636 347 665 c 0,2,3
 347 693 347 693 365.5 716 c 128,-1,4
 384 739 384 739 422 739 c 0,5,6
 461 739 461 739 480 715.5 c 128,-1,7
 499 692 499 692 499 664 c 128,-1,8
 499 636 499 636 480 612.5 c 128,-1,9
 461 589 461 589 422 589 c 0,10,11
 384 588 384 588 366 612 c 256,0,1
130 612 m 256,12,13
 112 636 112 636 112 665 c 0,14,15
 112 693 112 693 130 716 c 128,-1,16
 148 739 148 739 186 739 c 0,17,18
 225 739 225 739 244 715.5 c 128,-1,19
 263 692 263 692 263 664 c 128,-1,20
 263 636 263 636 244 612.5 c 128,-1,21
 225 589 225 589 186 589 c 0,22,23
 148 588 148 588 130 612 c 256,12,13
30 538 m 1,24,-1
 245 538 l 1,25,-1
 245 156 l 1,26,-1
 364 156 l 1,27,-1
 364 538 l 1,28,-1
 579 538 l 1,29,-1
 579 -167 l 2,30,31
 579 -196 579 -196 557.5 -217.5 c 128,-1,32
 536 -239 536 -239 507 -239 c 2,33,-1
 101 -239 l 1,34,-1
 30 -83 l 1,35,-1
 364 -83 l 1,36,-1
 364 0 l 1,37,-1
 101 0 l 2,38,39
 72 0 72 0 51 21.5 c 128,-1,40
 30 43 30 43 30 72 c 2,41,-1
 30 538 l 1,24,-1
EndSplineSet
EndChar

StartChar: numbersign
Encoding: 35 35 173
Width: 828
Flags: W
HStem: 0 21G<138 281.586 423 566.586> 145 141<42 164 328 450 613 735> 431 140<92 214 378 500 664 785> 697 20G<260.575 404 546.301 689>
LayerCount: 2
Fore
SplineSet
164 145 m 1,0,-1
 18 145 l 1,1,-1
 42 286 l 1,2,-1
 188 286 l 1,3,-1
 214 431 l 1,4,-1
 69 431 l 1,5,-1
 92 571 l 1,6,-1
 239 571 l 1,7,-1
 264 717 l 1,8,-1
 404 717 l 1,9,-1
 378 571 l 1,10,-1
 523 571 l 1,11,-1
 550 717 l 1,12,-1
 689 717 l 1,13,-1
 664 571 l 1,14,-1
 809 571 l 1,15,-1
 785 431 l 1,16,-1
 639 431 l 1,17,-1
 613 286 l 1,18,-1
 759 286 l 1,19,-1
 735 145 l 1,20,-1
 589 145 l 1,21,-1
 563 0 l 1,22,-1
 423 0 l 1,23,-1
 450 145 l 1,24,-1
 304 145 l 1,25,-1
 278 0 l 1,26,-1
 138 0 l 1,27,-1
 164 145 l 1,0,-1
473 286 m 1,28,-1
 500 431 l 1,29,-1
 354 431 l 1,30,-1
 328 286 l 1,31,-1
 473 286 l 1,28,-1
EndSplineSet
EndChar

StartChar: breve
Encoding: 728 728 174
Width: 323
Flags: W
HStem: 589 51<105.999 217.815>
VStem: 24 51<671.457 727> 249 51<671.702 727>
LayerCount: 2
Fore
SplineSet
110 600 m 256,0,1
 85 611 85 611 65.5 630.5 c 128,-1,2
 46 650 46 650 35 674.5 c 128,-1,3
 24 699 24 699 24 727 c 1,4,-1
 75 727 l 1,5,6
 75 710 75 710 82 694.5 c 128,-1,7
 89 679 89 679 101.5 666.5 c 128,-1,8
 114 654 114 654 129 647 c 128,-1,9
 144 640 144 640 162 640 c 0,10,11
 178 640 178 640 194 647 c 128,-1,12
 210 654 210 654 222 666.5 c 128,-1,13
 234 679 234 679 241.5 694.5 c 128,-1,14
 249 710 249 710 249 727 c 1,15,-1
 300 727 l 1,16,17
 300 699 300 699 289 674.5 c 128,-1,18
 278 650 278 650 258.5 630.5 c 128,-1,19
 239 611 239 611 214 600 c 128,-1,20
 189 589 189 589 162 589 c 256,21,22
 135 589 135 589 110 600 c 256,0,1
EndSplineSet
EndChar

StartChar: caron
Encoding: 711 711 175
Width: 448
Flags: W
HStem: 599 145
LayerCount: 2
Fore
SplineSet
19 689 m 1,0,-1
 19 744 l 1,1,-1
 224 697 l 1,2,-1
 429 744 l 1,3,-1
 429 689 l 1,4,-1
 224 599 l 1,5,-1
 19 689 l 1,0,-1
EndSplineSet
EndChar

StartChar: circumflex
Encoding: 710 710 176
Width: 450
Flags: W
HStem: 599 145
LayerCount: 2
Fore
SplineSet
20 654 m 1,0,-1
 225 744 l 1,1,-1
 430 654 l 1,2,-1
 430 599 l 1,3,-1
 225 646 l 1,4,-1
 20 599 l 1,5,-1
 20 654 l 1,0,-1
EndSplineSet
EndChar

StartChar: dotaccent
Encoding: 729 729 177
Width: 204
Flags: W
HStem: 589 150<45.5674 157.793>
VStem: 27 151<613.235 714.765>
LayerCount: 2
Fore
SplineSet
45 612 m 256,0,1
 27 636 27 636 27 665 c 0,2,3
 27 693 27 693 45 716 c 128,-1,4
 63 739 63 739 101 739 c 0,5,6
 140 739 140 739 159 715.5 c 128,-1,7
 178 692 178 692 178 664 c 128,-1,8
 178 636 178 636 159 612.5 c 128,-1,9
 140 589 140 589 101 589 c 0,10,11
 63 588 63 588 45 612 c 256,0,1
EndSplineSet
EndChar

StartChar: hungarumlaut
Encoding: 733 733 178
Width: 285
Flags: W
HStem: 599 168<67 81 189 204>
VStem: 28 235
LayerCount: 2
Fore
SplineSet
189 767 m 1,0,-1
 263 767 l 1,1,-1
 204 599 l 1,2,-1
 151 599 l 1,3,-1
 189 767 l 1,0,-1
67 767 m 1,4,-1
 140 767 l 1,5,-1
 81 599 l 1,6,-1
 28 599 l 1,7,-1
 67 767 l 1,4,-1
EndSplineSet
EndChar

StartChar: ogonek
Encoding: 731 731 179
Width: 307
Flags: W
HStem: -223 66<153.648 270.072>
VStem: 28 115<-148.708 -41.0384>
LayerCount: 2
Fore
SplineSet
203 5 m 1,0,1
 193 -3 193 -3 182.5 -16 c 128,-1,2
 172 -29 172 -29 163.5 -44.5 c 128,-1,3
 155 -60 155 -60 149 -76.5 c 128,-1,4
 143 -93 143 -93 143 -109 c 0,5,6
 143 -137 143 -137 158.5 -147 c 128,-1,7
 174 -157 174 -157 196 -157 c 0,8,9
 222 -157 222 -157 248.5 -147.5 c 128,-1,10
 275 -138 275 -138 293 -129 c 1,11,-1
 270 -203 l 1,12,13
 250 -213 250 -213 224 -218 c 128,-1,14
 198 -223 198 -223 170 -223 c 0,15,16
 143 -223 143 -223 117.5 -217 c 128,-1,17
 92 -211 92 -211 72 -198 c 128,-1,18
 52 -185 52 -185 40 -163.5 c 128,-1,19
 28 -142 28 -142 28 -112 c 0,20,21
 28 -85 28 -85 40.5 -55 c 128,-1,22
 53 -25 53 -25 80 5 c 1,23,-1
 203 5 l 1,0,1
EndSplineSet
EndChar

StartChar: ring
Encoding: 730 730 180
Width: 245
Flags: W
HStem: 589 51<84.351 161.723> 732 51<83.7427 161.723>
VStem: 26 51<647.277 725.129> 169 51<647.277 724.679>
LayerCount: 2
Fore
SplineSet
85 596 m 1,0,1
 68 604 68 604 54.5 617.5 c 128,-1,2
 41 631 41 631 33.5 649 c 128,-1,3
 26 667 26 667 26 686 c 256,4,5
 26 705 26 705 33.5 723 c 128,-1,6
 41 741 41 741 54.5 754.5 c 128,-1,7
 68 768 68 768 85.5 775.5 c 128,-1,8
 103 783 103 783 123 783 c 256,9,10
 142 783 142 783 160 775.5 c 128,-1,11
 178 768 178 768 191.5 754.5 c 128,-1,12
 205 741 205 741 212.5 723.5 c 128,-1,13
 220 706 220 706 220 686 c 256,14,15
 220 667 220 667 212.5 649 c 128,-1,16
 205 631 205 631 191.5 617.5 c 128,-1,17
 178 604 178 604 160 596.5 c 128,-1,18
 142 589 142 589 123 589 c 256,19,20
 103 589 103 589 85 596 c 1,0,1
123 640 m 256,21,22
 141 640 141 640 155 654 c 128,-1,23
 169 668 169 668 169 686 c 256,24,25
 169 704 169 704 155 718 c 128,-1,26
 141 732 141 732 123 732 c 256,27,28
 105 732 105 732 91 718.5 c 128,-1,29
 77 705 77 705 77 686 c 256,30,31
 77 668 77 668 91 654 c 128,-1,32
 105 640 105 640 123 640 c 256,21,22
EndSplineSet
EndChar

StartChar: tilde
Encoding: 732 732 181
Width: 459
Flags: W
HStem: 579 91<258.692 400.965> 644 91<58.293 213.13>
LayerCount: 2
Fore
SplineSet
29 685 m 1,0,1
 53 713 53 713 77 724 c 128,-1,2
 101 735 101 735 126 735 c 0,3,4
 154 735 154 735 181.5 725 c 128,-1,5
 209 715 209 715 236 702.5 c 128,-1,6
 263 690 263 690 289.5 680 c 128,-1,7
 316 670 316 670 341 670 c 0,8,9
 365 670 365 670 386 681.5 c 128,-1,10
 407 693 407 693 427 723 c 1,11,-1
 427 632 l 1,12,13
 407 602 407 602 386 590.5 c 128,-1,14
 365 579 365 579 341 579 c 0,15,16
 316 579 316 579 289.5 589 c 128,-1,17
 263 599 263 599 236 611.5 c 128,-1,18
 209 624 209 624 181.5 634 c 128,-1,19
 154 644 154 644 126 644 c 0,20,21
 101 644 101 644 76.5 633 c 128,-1,22
 52 622 52 622 29 594 c 1,23,-1
 29 685 l 1,0,1
EndSplineSet
EndChar

StartChar: OE
Encoding: 338 338 182
Width: 1264
Flags: W
HStem: 0 156<252 419 849 1159> 299 119<849 1159> 561 156<252 419 849 1159>
VStem: 37 215<156 561>
CounterMasks: 1 e0
LayerCount: 2
Fore
SplineSet
37 645 m 2,0,1
 37 674 37 674 58.5 695.5 c 128,-1,2
 80 717 80 717 109 717 c 2,3,-1
 562 717 l 2,4,5
 591 717 591 717 612.5 695.5 c 128,-1,6
 634 674 634 674 634 645 c 2,7,-1
 634 717 l 1,8,-1
 1231 717 l 1,9,-1
 1159 561 l 1,10,-1
 849 561 l 1,11,-1
 849 418 l 1,12,-1
 1159 418 l 1,13,-1
 1159 299 l 1,14,-1
 849 299 l 1,15,-1
 849 156 l 1,16,-1
 1231 156 l 1,17,-1
 1159 0 l 1,18,-1
 634 0 l 1,19,-1
 634 66 l 1,20,21
 630 38 630 38 609.5 19 c 128,-1,22
 589 0 589 0 562 0 c 2,23,-1
 109 0 l 2,24,25
 80 0 80 0 58.5 21.5 c 128,-1,26
 37 43 37 43 37 72 c 2,27,-1
 37 645 l 2,0,1
419 156 m 1,28,-1
 419 561 l 1,29,-1
 252 561 l 1,30,-1
 252 156 l 1,31,-1
 419 156 l 1,28,-1
EndSplineSet
EndChar

StartChar: Ydieresis
Encoding: 376 376 183
Width: 738
Flags: W
HStem: 0 21G<261 476> 697 20G<11 285.715 451.417 727> 768 151<195.277 306.793 430.145 541.793>
VStem: 175 152<792.751 894.249> 261 215<0 323> 411 151<792.751 894.249>
LayerCount: 2
Fore
SplineSet
429 792 m 256,0,1
 411 816 411 816 411 844 c 128,-1,2
 411 872 411 872 429 895.5 c 128,-1,3
 447 919 447 919 485 919 c 0,4,5
 524 919 524 919 543 895 c 128,-1,6
 562 871 562 871 562 843 c 128,-1,7
 562 815 562 815 543 791.5 c 128,-1,8
 524 768 524 768 485 768 c 0,9,10
 447 768 447 768 429 792 c 256,0,1
194 792 m 256,11,12
 176 816 176 816 175 844 c 0,13,14
 175 872 175 872 193.5 895.5 c 128,-1,15
 212 919 212 919 250 919 c 0,16,17
 289 919 289 919 308 895 c 128,-1,18
 327 871 327 871 327 843 c 128,-1,19
 327 815 327 815 308 791.5 c 128,-1,20
 289 768 289 768 250 768 c 0,21,22
 212 768 212 768 194 792 c 256,11,12
261 323 m 1,23,-1
 11 717 l 1,24,-1
 273 717 l 1,25,-1
 369 566 l 1,26,-1
 464 717 l 1,27,-1
 727 717 l 1,28,-1
 476 323 l 1,29,-1
 476 0 l 1,30,-1
 261 0 l 1,31,-1
 261 323 l 1,23,-1
EndSplineSet
EndChar

StartChar: fi
Encoding: 64257 64257 184
Width: 746
Flags: W
HStem: 0 21G<87 302 496 711> 299 119<28 87 302 421> 561 156<302 639>
VStem: 87 215<0 299 418 561> 496 215<0 497>
LayerCount: 2
Fore
SplineSet
87 299 m 1,0,-1
 28 299 l 1,1,-1
 28 418 l 1,2,-1
 87 418 l 1,3,-1
 87 645 l 2,4,5
 87 674 87 674 108.5 695.5 c 128,-1,6
 130 717 130 717 159 717 c 2,7,-1
 711 717 l 1,8,-1
 639 561 l 1,9,-1
 302 561 l 1,10,-1
 302 418 l 1,11,-1
 421 418 l 1,12,-1
 421 299 l 1,13,-1
 302 299 l 1,14,-1
 302 0 l 1,15,-1
 87 0 l 1,16,-1
 87 299 l 1,0,-1
496 497 m 1,17,-1
 711 497 l 1,18,-1
 711 0 l 1,19,-1
 496 0 l 1,20,-1
 496 497 l 1,17,-1
EndSplineSet
EndChar

StartChar: fl
Encoding: 64258 64258 185
Width: 747
Flags: W
HStem: 0 21G<87 302 496 711> 299 119<28 87 302 421> 561 156<302 496>
VStem: 87 215<0 299 418 561> 496 215<0 561>
LayerCount: 2
Fore
SplineSet
87 299 m 1,0,-1
 28 299 l 1,1,-1
 28 418 l 1,2,-1
 87 418 l 1,3,-1
 87 645 l 2,4,5
 87 674 87 674 108.5 695.5 c 128,-1,6
 130 717 130 717 159 717 c 2,7,-1
 711 717 l 1,8,-1
 711 0 l 1,9,-1
 496 0 l 1,10,-1
 496 561 l 1,11,-1
 302 561 l 1,12,-1
 302 418 l 1,13,-1
 421 418 l 1,14,-1
 421 299 l 1,15,-1
 302 299 l 1,16,-1
 302 0 l 1,17,-1
 87 0 l 1,18,-1
 87 299 l 1,0,-1
EndSplineSet
EndChar

StartChar: dotlessi
Encoding: 305 305 186
Width: 289
Flags: W
HStem: 0 21G<37 252> 518 20G<37 252>
VStem: 37 215<0 538>
LayerCount: 2
Fore
SplineSet
37 538 m 1,0,-1
 252 538 l 1,1,-1
 252 0 l 1,2,-1
 37 0 l 1,3,-1
 37 538 l 1,0,-1
EndSplineSet
EndChar

StartChar: oe
Encoding: 339 339 187
Width: 1171
Flags: W
HStem: 0 155<252 372 802 1065> 203 119<802 922> 382 156<252 372 802 922>
VStem: 37 215<155 382>
LayerCount: 2
Fore
SplineSet
37 466 m 2,0,1
 37 495 37 495 59 516.5 c 128,-1,2
 81 538 81 538 109 538 c 2,3,-1
 515 538 l 2,4,5
 542 538 542 538 563 518.5 c 128,-1,6
 584 499 584 499 587 471 c 1,7,8
 588 484 588 484 594 496 c 128,-1,9
 600 508 600 508 610 517 c 128,-1,10
 620 526 620 526 632.5 532 c 128,-1,11
 645 538 645 538 658 538 c 2,12,-1
 1065 538 l 2,13,14
 1093 538 1093 538 1115 516.5 c 128,-1,15
 1137 495 1137 495 1137 466 c 2,16,-1
 1137 274 l 2,17,18
 1137 244 1137 244 1115 223.5 c 128,-1,19
 1093 203 1093 203 1065 203 c 2,20,-1
 802 203 l 1,21,-1
 802 155 l 1,22,-1
 1137 155 l 1,23,-1
 1065 0 l 1,24,-1
 658 0 l 2,25,26
 631 0 631 0 610 19.5 c 128,-1,27
 589 39 589 39 587 66 c 1,28,29
 583 38 583 38 562.5 19 c 128,-1,30
 542 0 542 0 515 0 c 2,31,-1
 109 0 l 2,32,33
 81 0 81 0 59 21 c 128,-1,34
 37 42 37 42 37 72 c 2,35,-1
 37 466 l 2,0,1
922 322 m 1,36,-1
 922 382 l 1,37,-1
 802 382 l 1,38,-1
 802 322 l 1,39,-1
 922 322 l 1,36,-1
372 155 m 1,40,-1
 372 382 l 1,41,-1
 252 382 l 1,42,-1
 252 155 l 1,43,-1
 372 155 l 1,40,-1
EndSplineSet
EndChar

StartChar: florin
Encoding: 402 402 188
Width: 581
Flags: W
HStem: -239 21G<80.7692 319.5> 299 119<102 162 377 496> 561 156<377 496>
VStem: 162 215<-83 299 418 561>
LayerCount: 2
Fore
SplineSet
162 -83 m 1,0,-1
 162 299 l 1,1,-1
 102 299 l 1,2,-1
 102 418 l 1,3,-1
 162 418 l 1,4,-1
 162 645 l 2,5,6
 162 674 162 674 183.5 695.5 c 128,-1,7
 205 717 205 717 233 717 c 2,8,-1
 567 717 l 1,9,-1
 496 561 l 1,10,-1
 377 561 l 1,11,-1
 377 418 l 1,12,-1
 496 418 l 1,13,-1
 496 299 l 1,14,-1
 377 299 l 1,15,-1
 377 -167 l 2,16,17
 377 -196 377 -196 355.5 -217.5 c 128,-1,18
 334 -239 334 -239 305 -239 c 2,19,-1
 90 -239 l 1,20,-1
 18 -83 l 1,21,-1
 162 -83 l 1,0,-1
EndSplineSet
EndChar

StartChar: quotesinglbase
Encoding: 8218 8218 189
Width: 215
Flags: W
HStem: -85 239<78 137>
VStem: 19 178
LayerCount: 2
Fore
SplineSet
78 154 m 1,0,-1
 197 154 l 1,1,-1
 137 -85 l 1,2,-1
 19 -85 l 1,3,-1
 78 154 l 1,0,-1
EndSplineSet
EndChar

StartChar: quotedblbase
Encoding: 8222 8222 190
Width: 461
Flags: W
HStem: -120 274<88 183 280 375>
LayerCount: 2
Fore
SplineSet
280 154 m 1,0,-1
 434 154 l 1,1,-1
 375 -120 l 1,2,-1
 219 -120 l 1,3,-1
 280 154 l 1,0,-1
88 154 m 1,4,-1
 244 154 l 1,5,-1
 183 -120 l 1,6,-1
 29 -120 l 1,7,-1
 88 154 l 1,4,-1
EndSplineSet
EndChar

StartChar: quoteleft
Encoding: 8216 8216 191
Width: 258
Flags: W
HStem: 411 274<81 177>
VStem: 22 215
LayerCount: 2
Fore
SplineSet
81 685 m 1,0,-1
 237 685 l 1,1,-1
 177 411 l 1,2,-1
 22 411 l 1,3,-1
 81 685 l 1,0,-1
EndSplineSet
EndChar

StartChar: quoteright
Encoding: 8217 8217 192
Width: 258
Flags: W
HStem: 411 274<81 177>
VStem: 22 215
LayerCount: 2
Fore
SplineSet
81 685 m 1,0,-1
 237 685 l 1,1,-1
 177 411 l 1,2,-1
 22 411 l 1,3,-1
 81 685 l 1,0,-1
EndSplineSet
EndChar

StartChar: quotedblleft
Encoding: 8220 8220 193
Width: 461
Flags: W
HStem: 412 274<88 183 280 375>
LayerCount: 2
Fore
SplineSet
280 686 m 1,0,-1
 434 686 l 1,1,-1
 375 412 l 1,2,-1
 219 412 l 1,3,-1
 280 686 l 1,0,-1
88 686 m 1,4,-1
 244 686 l 1,5,-1
 183 412 l 1,6,-1
 29 412 l 1,7,-1
 88 686 l 1,4,-1
EndSplineSet
EndChar

StartChar: quotedblright
Encoding: 8221 8221 194
Width: 461
Flags: W
HStem: 412 274<88 183 280 375>
LayerCount: 2
Fore
SplineSet
280 686 m 1,0,-1
 434 686 l 1,1,-1
 375 412 l 1,2,-1
 219 412 l 1,3,-1
 280 686 l 1,0,-1
88 686 m 1,4,-1
 244 686 l 1,5,-1
 183 412 l 1,6,-1
 29 412 l 1,7,-1
 88 686 l 1,4,-1
EndSplineSet
EndChar

StartChar: fraction
Encoding: 8260 8260 195
Width: 518
Flags: W
HStem: 0 21G<3 116.437> 697 20G<401.563 515>
LayerCount: 2
Fore
SplineSet
413 717 m 1,0,-1
 515 717 l 1,1,-1
 105 0 l 1,2,-1
 3 0 l 1,3,-1
 413 717 l 1,0,-1
EndSplineSet
EndChar

StartChar: guilsinglleft
Encoding: 8249 8249 196
Width: 300
Flags: W
VStem: 6 268
LayerCount: 2
Fore
SplineSet
6 358 m 1,0,-1
 185 670 l 1,1,-1
 274 618 l 1,2,-1
 125 358 l 1,3,-1
 274 98 l 1,4,-1
 185 47 l 1,5,-1
 6 358 l 1,0,-1
EndSplineSet
EndChar

StartChar: guilsinglright
Encoding: 8250 8250 197
Width: 300
Flags: W
VStem: 26 268
LayerCount: 2
Fore
SplineSet
175 358 m 1,0,-1
 26 618 l 1,1,-1
 115 670 l 1,2,-1
 294 358 l 1,3,-1
 115 47 l 1,4,-1
 26 98 l 1,5,-1
 175 358 l 1,0,-1
EndSplineSet
EndChar

StartChar: endash
Encoding: 8211 8211 198
Width: 512
Flags: W
HStem: 307 103<0 512>
LayerCount: 2
Fore
SplineSet
0 410 m 1,0,-1
 512 410 l 1,1,-1
 512 307 l 1,2,-1
 0 307 l 1,3,-1
 0 410 l 1,0,-1
EndSplineSet
EndChar

StartChar: emdash
Encoding: 8212 8212 199
Width: 1024
Flags: W
HStem: 307 103<0 1024>
LayerCount: 2
Fore
SplineSet
0 410 m 1,0,-1
 1024 410 l 1,1,-1
 1024 307 l 1,2,-1
 0 307 l 1,3,-1
 0 410 l 1,0,-1
EndSplineSet
EndChar

StartChar: lessequal
Encoding: 8804 8804 200
Width: 585
Flags: W
HStem: 0 102<13 556>
LayerCount: 2
Fore
SplineSet
13 498 m 1,0,-1
 505 737 l 1,1,-1
 556 631 l 1,2,-1
 161 438 l 1,3,-1
 556 246 l 1,4,-1
 505 139 l 1,5,-1
 13 379 l 1,6,-1
 13 498 l 1,0,-1
13 102 m 1,7,-1
 556 102 l 1,8,-1
 556 0 l 1,9,-1
 13 0 l 1,10,-1
 13 102 l 1,7,-1
EndSplineSet
EndChar

StartChar: approxequal
Encoding: 8776 8776 201
Width: 551
Flags: W
HStem: 117 138<336.257 473.574> 216 138<83.4257 232.769> 362 139<336.257 473.574> 462 138<83.4257 232.769>
LayerCount: 2
Fore
SplineSet
33 524 m 1,0,1
 63 567 63 567 92.5 583.5 c 128,-1,2
 122 600 122 600 152 600 c 0,3,4
 186 600 186 600 219 584.5 c 128,-1,5
 252 569 252 569 285 550 c 128,-1,6
 318 531 318 531 350.5 516 c 128,-1,7
 383 501 383 501 414 501 c 0,8,9
 442 501 442 501 468 518.5 c 128,-1,10
 494 536 494 536 518 582 c 1,11,-1
 518 443 l 1,12,13
 493 397 493 397 467 379.5 c 128,-1,14
 441 362 441 362 414 362 c 0,15,16
 383 362 383 362 350.5 377.5 c 128,-1,17
 318 393 318 393 285 412 c 128,-1,18
 252 431 252 431 218.5 446.5 c 128,-1,19
 185 462 185 462 152 462 c 0,20,21
 122 462 122 462 92 445 c 128,-1,22
 62 428 62 428 33 386 c 1,23,-1
 33 524 l 1,0,1
33 279 m 1,24,25
 63 322 63 322 92.5 338 c 128,-1,26
 122 354 122 354 152 354 c 0,27,28
 186 354 186 354 219 339 c 128,-1,29
 252 324 252 324 285 305 c 128,-1,30
 318 286 318 286 350.5 270.5 c 128,-1,31
 383 255 383 255 414 255 c 0,32,33
 442 255 442 255 468 272.5 c 128,-1,34
 494 290 494 290 518 336 c 1,35,-1
 518 198 l 1,36,37
 493 152 493 152 467 134.5 c 128,-1,38
 441 117 441 117 414 117 c 0,39,40
 383 117 383 117 350.5 132 c 128,-1,41
 318 147 318 147 285 166 c 128,-1,42
 252 185 252 185 218.5 200.5 c 128,-1,43
 185 216 185 216 152 216 c 0,44,45
 122 216 122 216 92 199 c 128,-1,46
 62 182 62 182 33 140 c 1,47,-1
 33 279 l 1,24,25
EndSplineSet
EndChar

StartChar: notequal
Encoding: 8800 8800 202
Width: 503
Flags: W
HStem: 205 102<11 120 181 187 249 493> 410 102<11 255 316 323 384 493>
LayerCount: 2
Fore
SplineSet
120 205 m 1,0,-1
 11 205 l 1,1,-1
 11 307 l 1,2,-1
 187 307 l 1,3,-1
 255 410 l 1,4,-1
 11 410 l 1,5,-1
 11 512 l 1,6,-1
 323 512 l 1,7,-1
 390 614 l 1,8,-1
 452 614 l 1,9,-1
 384 512 l 1,10,-1
 493 512 l 1,11,-1
 493 410 l 1,12,-1
 316 410 l 1,13,-1
 249 307 l 1,14,-1
 493 307 l 1,15,-1
 493 205 l 1,16,-1
 181 205 l 1,17,-1
 114 102 l 1,18,-1
 52 102 l 1,19,-1
 120 205 l 1,0,-1
EndSplineSet
EndChar

StartChar: partialdiff
Encoding: 8706 8706 203
Width: 492
Flags: W
HStem: -10 30<165.133 274.314> 395 37<242.046 361.33> 594 72<213.301 349.955>
VStem: 18 97<67.4681 245.948> 440 28<304.25 467.234>
LayerCount: 2
Fore
SplineSet
29 85 m 1,0,1
 19 114 19 114 18 145 c 0,2,3
 18 193 18 193 39.5 244 c 128,-1,4
 61 295 61 295 98 337 c 128,-1,5
 135 379 135 379 183.5 405.5 c 128,-1,6
 232 432 232 432 288 432 c 0,7,8
 339 432 339 432 379 402.5 c 128,-1,9
 419 373 419 373 433 303 c 1,10,11
 436 321 436 321 438 339 c 128,-1,12
 440 357 440 357 440 375 c 0,13,14
 440 418 440 418 429 457.5 c 128,-1,15
 418 497 418 497 396.5 527.5 c 128,-1,16
 375 558 375 558 343 576 c 128,-1,17
 311 594 311 594 269 594 c 0,18,19
 226 594 226 594 192.5 573.5 c 128,-1,20
 159 553 159 553 132 518 c 1,21,-1
 120 530 l 1,22,23
 151 587 151 587 192 626.5 c 128,-1,24
 233 666 233 666 288 666 c 0,25,26
 332 666 332 666 365 642 c 128,-1,27
 398 618 398 618 421 579.5 c 128,-1,28
 444 541 444 541 456 491 c 128,-1,29
 468 441 468 441 468 389 c 0,30,31
 468 351 468 351 461 307 c 128,-1,32
 454 263 454 263 439.5 218.5 c 128,-1,33
 425 174 425 174 403.5 133 c 128,-1,34
 382 92 382 92 354 60 c 128,-1,35
 326 28 326 28 290 9 c 128,-1,36
 254 -10 254 -10 212 -10 c 0,37,38
 160 -10 160 -10 123.5 2 c 128,-1,39
 87 14 87 14 63.5 35.5 c 128,-1,40
 40 57 40 57 29 85 c 1,0,1
165 35 m 256,41,42
 183 21 183 21 212 20 c 0,43,44
 248 20 248 20 278.5 37 c 128,-1,45
 309 54 309 54 334 82 c 128,-1,46
 359 110 359 110 379 146 c 128,-1,47
 399 182 399 182 413 222 c 1,48,-1
 413 234 l 2,49,50
 413 277 413 277 404.5 308 c 128,-1,51
 396 339 396 339 382 358.5 c 128,-1,52
 368 378 368 378 349.5 386.5 c 128,-1,53
 331 395 331 395 309 395 c 0,54,55
 276 395 276 395 242 376.5 c 128,-1,56
 208 358 208 358 180 327.5 c 128,-1,57
 152 297 152 297 133.5 256.5 c 128,-1,58
 115 216 115 216 115 171 c 0,59,60
 115 146 115 146 119.5 119.5 c 128,-1,61
 124 93 124 93 135.5 71 c 128,-1,62
 147 49 147 49 165 35 c 256,41,42
EndSplineSet
EndChar

StartChar: greaterequal
Encoding: 8805 8805 204
Width: 585
Flags: W
HStem: 0 102<30 572>
LayerCount: 2
Fore
SplineSet
30 246 m 1,0,-1
 425 438 l 1,1,-1
 30 631 l 1,2,-1
 81 737 l 1,3,-1
 572 498 l 1,4,-1
 572 379 l 1,5,-1
 81 139 l 1,6,-1
 30 246 l 1,0,-1
30 102 m 1,7,-1
 572 102 l 1,8,-1
 572 0 l 1,9,-1
 30 0 l 1,10,-1
 30 102 l 1,7,-1
EndSplineSet
EndChar

StartChar: perthousand
Encoding: 8240 8240 205
Width: 1121
Flags: W
HStem: 0 78<637 690 941 995> 281 77<637 690 941 995> 358 78<136 190> 639 78<136 190>
VStem: 29 107<436 639> 190 108<436 639> 529 108<78 281> 690 108<78 281> 834 107<78 281> 995 108<78 281>
LayerCount: 2
Fore
SplineSet
526 717 m 1,0,-1
 648 717 l 1,1,-1
 301 0 l 1,2,-1
 178 0 l 1,3,-1
 526 717 l 1,0,-1
39 369 m 1,4,5
 29 380 29 380 29 394 c 2,6,-1
 29 681 l 2,7,8
 29 695 29 695 39.5 706 c 128,-1,9
 50 717 50 717 65 717 c 2,10,-1
 262 717 l 2,11,12
 276 717 276 717 287.5 706 c 128,-1,13
 299 695 299 695 301 681 c 1,14,-1
 298 394 l 2,15,16
 298 380 298 380 287 369 c 128,-1,17
 276 358 276 358 262 358 c 2,18,-1
 65 358 l 2,19,20
 50 359 50 359 39 369 c 1,4,5
190 436 m 1,21,-1
 190 639 l 1,22,-1
 136 639 l 1,23,-1
 136 436 l 1,24,-1
 190 436 l 1,21,-1
834 323 m 2,25,26
 834 337 834 337 844.5 347.5 c 128,-1,27
 855 358 855 358 869 358 c 2,28,-1
 1067 358 l 2,29,30
 1081 358 1081 358 1092 347.5 c 128,-1,31
 1103 337 1103 337 1103 323 c 2,32,-1
 1103 36 l 2,33,34
 1103 22 1103 22 1092 11 c 128,-1,35
 1081 0 1081 0 1067 0 c 2,36,-1
 869 0 l 2,37,38
 855 0 855 0 844.5 11 c 128,-1,39
 834 22 834 22 834 36 c 2,40,-1
 834 323 l 2,25,26
529 323 m 2,41,42
 529 337 529 337 540 347.5 c 128,-1,43
 551 358 551 358 565 358 c 2,44,-1
 762 358 l 2,45,46
 776 358 776 358 787 347.5 c 128,-1,47
 798 337 798 337 798 323 c 2,48,-1
 798 36 l 2,49,50
 798 22 798 22 787 11 c 128,-1,51
 776 0 776 0 762 0 c 2,52,-1
 565 0 l 2,53,54
 551 0 551 0 540 11 c 128,-1,55
 529 22 529 22 529 36 c 2,56,-1
 529 323 l 2,41,42
995 78 m 1,57,-1
 995 281 l 1,58,-1
 941 281 l 1,59,-1
 941 78 l 1,60,-1
 995 78 l 1,57,-1
690 78 m 1,61,-1
 690 281 l 1,62,-1
 637 281 l 1,63,-1
 637 78 l 1,64,-1
 690 78 l 1,61,-1
EndSplineSet
EndChar

StartChar: ellipsis
Encoding: 8230 8230 206
Width: 504
Flags: W
HStem: 0 119<37 157 193 311 347 467>
VStem: 37 120<0 119> 193 118<0 119> 347 120<0 119>
CounterMasks: 1 70
LayerCount: 2
Fore
SplineSet
347 119 m 1,0,-1
 467 119 l 1,1,-1
 467 0 l 1,2,-1
 347 0 l 1,3,-1
 347 119 l 1,0,-1
193 119 m 1,4,-1
 311 119 l 1,5,-1
 311 0 l 1,6,-1
 193 0 l 1,7,-1
 193 119 l 1,4,-1
37 119 m 1,8,-1
 157 119 l 1,9,-1
 157 0 l 1,10,-1
 37 0 l 1,11,-1
 37 119 l 1,8,-1
EndSplineSet
EndChar

StartChar: dagger
Encoding: 8224 8224 207
Width: 456
Flags: W
HStem: -239 21G<170.592 286.408> 398 114<7 155 302 450> 697 20G<151 306>
VStem: 158 141<389.768 398 512 717> 171 115<-239 112.232>
LayerCount: 2
Fore
SplineSet
158 398 m 1,0,-1
 7 398 l 1,1,-1
 7 512 l 1,2,-1
 155 512 l 1,3,-1
 151 717 l 1,4,-1
 306 717 l 1,5,-1
 302 512 l 1,6,-1
 450 512 l 1,7,-1
 450 398 l 1,8,-1
 299 398 l 1,9,-1
 286 -239 l 1,10,-1
 171 -239 l 1,11,-1
 158 398 l 1,0,-1
EndSplineSet
EndChar

StartChar: daggerdbl
Encoding: 8225 8225 208
Width: 462
Flags: W
HStem: -239 21G<173.576 289.424> 91 114<10 165 298 453> 398 114<10 158 305 453> 697 20G<154 309>
VStem: 154 155<512 717> 174 115<-239 91>
LayerCount: 2
Fore
SplineSet
10 205 m 1,0,-1
 165 205 l 1,1,-1
 161 398 l 1,2,-1
 10 398 l 1,3,-1
 10 512 l 1,4,-1
 158 512 l 1,5,-1
 154 717 l 1,6,-1
 309 717 l 1,7,-1
 305 512 l 1,8,-1
 453 512 l 1,9,-1
 453 398 l 1,10,-1
 302 398 l 1,11,-1
 298 205 l 1,12,-1
 453 205 l 1,13,-1
 453 91 l 1,14,-1
 296 91 l 1,15,-1
 289 -239 l 1,16,-1
 174 -239 l 1,17,-1
 167 91 l 1,18,-1
 10 91 l 1,19,-1
 10 205 l 1,0,-1
EndSplineSet
EndChar

StartChar: bullet
Encoding: 8226 8226 209
Width: 409
Flags: W
HStem: 179 359<119.062 290.219>
VStem: 26 358<273 444.896>
LayerCount: 2
Fore
SplineSet
78 231 m 0,0,1
 54 256 54 256 40 289 c 128,-1,2
 26 322 26 322 26 358 c 256,3,4
 26 395 26 395 40 428 c 128,-1,5
 54 461 54 461 78 485 c 128,-1,6
 102 509 102 509 135 523.5 c 128,-1,7
 168 538 168 538 205 538 c 256,8,9
 242 538 242 538 274.5 523.5 c 128,-1,10
 307 509 307 509 331.5 485 c 128,-1,11
 356 461 356 461 370 428 c 128,-1,12
 384 395 384 395 384 358 c 256,13,14
 384 321 384 321 369.5 288.5 c 128,-1,15
 355 256 355 256 331 231.5 c 128,-1,16
 307 207 307 207 274.5 193 c 128,-1,17
 242 179 242 179 205 179 c 256,18,19
 168 179 168 179 135.5 192.5 c 128,-1,20
 103 206 103 206 78 231 c 0,0,1
EndSplineSet
EndChar

StartChar: trademark
Encoding: 8482 8482 210
Width: 674
Flags: W
HStem: 224 270<101 182 271 351 415 495 558 637.689> 435 59<30 101 182 254 351 415 495 558>
VStem: 101 81<224 435> 271 80<224 435> 415 80<224 435> 558 80<224 435>
LayerCount: 2
Fore
SplineSet
271 494 m 1,0,-1
 612 494 l 2,1,2
 638 494 638 494 638 466 c 2,3,-1
 638 224 l 1,4,-1
 558 224 l 1,5,-1
 558 435 l 1,6,-1
 495 435 l 1,7,-1
 495 224 l 1,8,-1
 415 224 l 1,9,-1
 415 435 l 1,10,-1
 351 435 l 1,11,-1
 351 224 l 1,12,-1
 271 224 l 1,13,-1
 271 494 l 1,0,-1
101 435 m 1,14,-1
 30 435 l 1,15,-1
 30 494 l 1,16,-1
 254 494 l 1,17,-1
 254 435 l 1,18,-1
 182 435 l 1,19,-1
 182 224 l 1,20,-1
 101 224 l 1,21,-1
 101 435 l 1,14,-1
EndSplineSet
EndChar

StartChar: product
Encoding: 8719 8719 211
Width: 763
Flags: W
HStem: -205 21<44 107.687 226.924 290 474 537.687 656.924 720> 696 21<24 107.076 226.313 537.076 656.313 740>
VStem: 126 82<-169.558 681.558> 556 82<-169.558 681.558>
LayerCount: 2
Fore
SplineSet
126 635 m 2,0,1
 126 668 126 668 111.5 682 c 128,-1,2
 97 696 97 696 65 696 c 2,3,-1
 24 696 l 1,4,-1
 24 717 l 1,5,-1
 740 717 l 1,6,-1
 740 696 l 1,7,-1
 699 696 l 2,8,9
 666 696 666 696 652 682 c 128,-1,10
 638 668 638 668 638 635 c 2,11,-1
 638 -123 l 2,12,13
 638 -156 638 -156 652.5 -170 c 128,-1,14
 667 -184 667 -184 699 -184 c 2,15,-1
 720 -184 l 1,16,-1
 720 -205 l 1,17,-1
 474 -205 l 1,18,-1
 474 -184 l 1,19,-1
 495 -184 l 2,20,21
 528 -184 528 -184 542 -170 c 128,-1,22
 556 -156 556 -156 556 -123 c 2,23,-1
 556 635 l 2,24,25
 556 668 556 668 541.5 682 c 128,-1,26
 527 696 527 696 495 696 c 2,27,-1
 269 696 l 2,28,29
 236 696 236 696 222 682 c 128,-1,30
 208 668 208 668 208 635 c 2,31,-1
 208 -123 l 2,32,33
 208 -156 208 -156 222.5 -170 c 128,-1,34
 237 -184 237 -184 269 -184 c 2,35,-1
 290 -184 l 1,36,-1
 290 -205 l 1,37,-1
 44 -205 l 1,38,-1
 44 -184 l 1,39,-1
 65 -184 l 2,40,41
 98 -184 98 -184 112 -170 c 128,-1,42
 126 -156 126 -156 126 -123 c 2,43,-1
 126 635 l 2,0,1
EndSplineSet
EndChar

StartChar: summation
Encoding: 8721 8721 212
Width: 692
Flags: W
HStem: -205 62<101 620.465> 696 21<112 589.533>
VStem: 644 23<-115.316 -73.6347>
LayerCount: 2
Fore
SplineSet
571 -143 m 2,0,1
 604 -143 604 -143 621 -129 c 128,-1,2
 638 -115 638 -115 644 -83 c 2,3,-1
 646 -71 l 1,4,-1
 667 -75 l 1,5,-1
 644 -205 l 1,6,-1
 30 -205 l 1,7,-1
 30 -184 l 1,8,-1
 333 256 l 1,9,-1
 30 696 l 1,10,-1
 30 717 l 1,11,-1
 624 717 l 1,12,-1
 646 587 l 1,13,-1
 626 583 l 1,14,-1
 616 636 l 2,15,16
 611 668 611 668 594.5 682 c 128,-1,17
 578 696 578 696 545 696 c 2,18,-1
 112 696 l 1,19,-1
 394 285 l 1,20,-1
 101 -143 l 1,21,-1
 571 -143 l 2,0,1
EndSplineSet
EndChar

StartChar: radical
Encoding: 8730 8730 213
Width: 467
Flags: W
HStem: 0 21G<237.536 254.746> 697 20G<428.241 455>
LayerCount: 2
Fore
SplineSet
65 321 m 1,0,-1
 10 289 l 1,1,-1
 0 307 l 1,2,-1
 88 358 l 1,3,-1
 250 78 l 1,4,-1
 434 717 l 1,5,-1
 455 717 l 1,6,-1
 249 0 l 1,7,-1
 65 321 l 1,0,-1
EndSplineSet
EndChar

StartChar: infinity
Encoding: 8734 8734 214
Width: 667
Flags: W
HStem: 169 61<392.298 527.602> 218 62<101.925 214.56> 437 62<102.213 214.668> 486 62<386.946 528.894>
VStem: 18 62<300.057 416.457> 575 62<278.238 438.713>
LayerCount: 2
Fore
SplineSet
60 253 m 1,0,1
 42 271 42 271 30 297.5 c 128,-1,2
 18 324 18 324 18 358 c 256,3,4
 18 393 18 393 30 419 c 128,-1,5
 42 445 42 445 61 462.5 c 128,-1,6
 80 480 80 480 104.5 489.5 c 128,-1,7
 129 499 129 499 155 499 c 0,8,9
 204 499 204 499 234 477.5 c 128,-1,10
 264 456 264 456 285 424 c 1,11,12
 296 448 296 448 310.5 470.5 c 128,-1,13
 325 493 325 493 345.5 510 c 128,-1,14
 366 527 366 527 394 537.5 c 128,-1,15
 422 548 422 548 461 548 c 0,16,17
 494 548 494 548 525.5 536 c 128,-1,18
 557 524 557 524 581.5 500 c 128,-1,19
 606 476 606 476 621.5 441 c 128,-1,20
 637 406 637 406 637 358 c 256,21,22
 637 311 637 311 621.5 276 c 128,-1,23
 606 241 606 241 581.5 217 c 128,-1,24
 557 193 557 193 525.5 181 c 128,-1,25
 494 169 494 169 461 169 c 0,26,27
 422 169 422 169 394 179 c 128,-1,28
 366 189 366 189 345 206.5 c 128,-1,29
 324 224 324 224 309.5 246.5 c 128,-1,30
 295 269 295 269 284 293 c 1,31,32
 265 261 265 261 235 239.5 c 128,-1,33
 205 218 205 218 155 218 c 0,34,35
 129 218 129 218 104 227 c 128,-1,36
 79 236 79 236 60 253 c 1,0,1
372 271 m 256,37,38
 388 253 388 253 409.5 241.5 c 128,-1,39
 431 230 431 230 461 230 c 0,40,41
 483 230 483 230 503 238 c 128,-1,42
 523 246 523 246 539.5 262.5 c 128,-1,43
 556 279 556 279 565.5 302.5 c 128,-1,44
 575 326 575 326 575 358 c 128,-1,45
 575 390 575 390 565.5 414 c 128,-1,46
 556 438 556 438 539.5 454.5 c 128,-1,47
 523 471 523 471 502.5 478.5 c 128,-1,48
 482 486 482 486 461 486 c 0,49,50
 430 486 430 486 408 476 c 128,-1,51
 386 466 386 466 369.5 448.5 c 128,-1,52
 353 431 353 431 341.5 408.5 c 128,-1,53
 330 386 330 386 318 362 c 1,54,55
 330 337 330 337 343 313 c 128,-1,56
 356 289 356 289 372 271 c 256,37,38
155 280 m 0,57,58
 194 280 194 280 215.5 303 c 128,-1,59
 237 326 237 326 254 358 c 1,60,61
 237 391 237 391 215.5 414 c 128,-1,62
 194 437 194 437 155 437 c 0,63,64
 126 437 126 437 103 417 c 128,-1,65
 80 397 80 397 80 358 c 256,66,67
 80 319 80 319 103 299.5 c 128,-1,68
 126 280 126 280 155 280 c 0,57,58
EndSplineSet
EndChar

StartChar: integral
Encoding: 8747 8747 215
Width: 258
Flags: W
HStem: -205 54<38.5 102.318> 673 54<154.71 219.5>
VStem: 101 56<31.0615 478.264> 118 29<-141.105 89.9014 432.924 664.746>
LayerCount: 2
Fore
SplineSet
110 73 m 0,0,1
 102 163 102 163 101 256 c 0,2,3
 101 426 101 426 111 594 c 1,4,5
 111 620 111 620 118 644 c 128,-1,6
 125 668 125 668 138.5 686.5 c 128,-1,7
 152 705 152 705 170 716 c 128,-1,8
 188 727 188 727 211 727 c 0,9,10
 228 727 228 727 240 715 c 128,-1,11
 252 703 252 703 252 686 c 256,12,13
 252 669 252 669 243 657 c 128,-1,14
 234 645 234 645 211 645 c 0,15,16
 202 645 202 645 195 649 c 128,-1,17
 188 653 188 653 182 659 c 128,-1,18
 176 665 176 665 171.5 669 c 128,-1,19
 167 673 167 673 163 673 c 0,20,21
 156 673 156 673 148 665 c 128,-1,22
 140 657 140 657 140 631 c 0,23,24
 140 537 140 537 148.5 444.5 c 128,-1,25
 157 352 157 352 157 256 c 0,26,27
 157 91 157 91 147 -72 c 1,28,29
 147 -98 147 -98 140 -121.5 c 128,-1,30
 133 -145 133 -145 119.5 -163.5 c 128,-1,31
 106 -182 106 -182 88 -193.5 c 128,-1,32
 70 -205 70 -205 47 -205 c 0,33,34
 30 -205 30 -205 18 -193 c 128,-1,35
 6 -181 6 -181 6 -164 c 256,36,37
 6 -147 6 -147 15 -135 c 128,-1,38
 24 -123 24 -123 47 -123 c 0,39,40
 56 -123 56 -123 63 -127 c 128,-1,41
 70 -131 70 -131 76 -136.5 c 128,-1,42
 82 -142 82 -142 86.5 -146.5 c 128,-1,43
 91 -151 91 -151 95 -151 c 0,44,45
 102 -151 102 -151 110 -143 c 128,-1,46
 118 -135 118 -135 118 -109 c 0,47,48
 118 -16 118 -16 110 73 c 0,0,1
EndSplineSet
EndChar

StartChar: lozenge
Encoding: 9674 9674 216
Width: 544
Flags: W
HStem: 0 41<265 279> 676 41<266 280>
LayerCount: 2
Fore
SplineSet
13 358 m 1,0,-1
 243 717 l 1,1,-1
 302 717 l 1,2,-1
 531 358 l 1,3,-1
 302 0 l 1,4,-1
 243 0 l 1,5,-1
 13 358 l 1,0,-1
279 41 m 1,6,-1
 482 358 l 1,7,-1
 280 676 l 1,8,-1
 266 676 l 1,9,-1
 62 358 l 1,10,-1
 265 41 l 1,11,-1
 279 41 l 1,6,-1
EndSplineSet
EndChar

StartChar: Omega
Encoding: 937 937 217
AltUni2: 002126.ffffffff.0
Width: 764
Flags: W
HStem: 0 156<98 157 596 668> 561 156<292 461>
VStem: 78 214<212.754 558.143> 461 215<214.676 560.98>
LayerCount: 2
Fore
SplineSet
27 156 m 1,0,-1
 157 156 l 1,1,2
 115 171 115 171 96.5 222 c 128,-1,3
 78 273 78 273 78 369 c 2,4,-1
 78 420 l 2,5,6
 78 576 78 576 129 646.5 c 128,-1,7
 180 717 180 717 293 717 c 2,8,-1
 461 717 l 2,9,10
 574 717 574 717 625 646 c 128,-1,11
 676 575 676 575 676 420 c 2,12,-1
 676 369 l 2,13,14
 676 274 676 274 657 222.5 c 128,-1,15
 638 171 638 171 596 156 c 1,16,-1
 739 156 l 1,17,-1
 668 0 l 1,18,-1
 461 0 l 1,19,-1
 461 561 l 1,20,-1
 292 561 l 1,21,-1
 292 0 l 1,22,-1
 98 0 l 1,23,-1
 27 156 l 1,0,-1
EndSplineSet
EndChar

StartChar: pi
Encoding: 960 960 218
Width: 887
Flags: W
HStem: 0 21G<170 385 504 719> 382 156<27 170 385 504 719 791>
VStem: 170 215<0 382> 504 215<0 382>
LayerCount: 2
Fore
SplineSet
170 382 m 1,0,-1
 27 382 l 1,1,-1
 27 538 l 1,2,-1
 862 538 l 1,3,-1
 791 382 l 1,4,-1
 719 382 l 1,5,-1
 719 0 l 1,6,-1
 504 0 l 1,7,-1
 504 382 l 1,8,-1
 385 382 l 1,9,-1
 385 0 l 1,10,-1
 170 0 l 1,11,-1
 170 382 l 1,0,-1
EndSplineSet
EndChar

StartChar: exclam
Encoding: 33 33 220
Width: 221
Flags: W
HStem: 0 156<37 193> 697 20G<37 193>
VStem: 37 156<0 156 215 717>
LayerCount: 2
Fore
SplineSet
37 717 m 1,0,-1
 193 717 l 1,1,-1
 193 215 l 1,2,-1
 37 215 l 1,3,-1
 37 717 l 1,0,-1
37 156 m 1,4,-1
 193 156 l 1,5,-1
 193 0 l 1,6,-1
 37 0 l 1,7,-1
 37 156 l 1,4,-1
EndSplineSet
EndChar

StartChar: uni2206
Encoding: 8710 8710 221
Width: 739
Flags: W
HStem: 0 41<77 663> 697 20G<339.628 399.372>
LayerCount: 2
Fore
SplineSet
349 717 m 1,0,-1
 390 717 l 1,1,-1
 726 0 l 1,2,-1
 13 0 l 1,3,-1
 349 717 l 1,0,-1
663 41 m 1,4,-1
 370 665 l 1,5,-1
 77 41 l 1,6,-1
 663 41 l 1,4,-1
EndSplineSet
EndChar

StartChar: quotedbl
Encoding: 34 34 222
Width: 461
Flags: W
HStem: 412 274<88 183 280 375>
LayerCount: 2
Fore
SplineSet
280 686 m 1,0,-1
 434 686 l 1,1,-1
 375 412 l 1,2,-1
 219 412 l 1,3,-1
 280 686 l 1,0,-1
88 686 m 1,4,-1
 244 686 l 1,5,-1
 183 412 l 1,6,-1
 29 412 l 1,7,-1
 88 686 l 1,4,-1
EndSplineSet
EndChar

StartChar: brokenbar
Encoding: 166 166 225
Width: 224
Flags: W
VStem: 37 156<-119 307 383 837>
LayerCount: 2
Fore
SplineSet
37 837 m 1,0,-1
 193 837 l 1,1,-1
 193 383 l 1,2,-1
 37 383 l 1,3,-1
 37 837 l 1,0,-1
37 307 m 1,4,-1
 193 307 l 1,5,-1
 193 -119 l 1,6,-1
 37 -119 l 1,7,-1
 37 307 l 1,4,-1
EndSplineSet
EndChar

StartChar: twosuperior
Encoding: 178 178 226
Width: 530
Flags: W
HStem: 287 93<215 444> 466 72<215 315> 624 93<86 315>
VStem: 86 129<380 466> 315 129<538 624>
CounterMasks: 1 e0
LayerCount: 2
Fore
SplineSet
99 299 m 256,0,1
 86 311 86 311 86 330 c 2,2,-1
 86 495 l 2,3,4
 86 513 86 513 99.5 525.5 c 128,-1,5
 113 538 113 538 129 538 c 2,6,-1
 315 538 l 1,7,-1
 315 624 l 1,8,-1
 86 624 l 1,9,-1
 86 717 l 1,10,-1
 401 717 l 2,11,12
 416 717 416 717 430 704.5 c 128,-1,13
 444 692 444 692 444 674 c 2,14,-1
 444 509 l 2,15,16
 444 491 444 491 430.5 478.5 c 128,-1,17
 417 466 417 466 401 466 c 2,18,-1
 215 466 l 1,19,-1
 215 380 l 1,20,-1
 444 380 l 1,21,-1
 444 287 l 1,22,-1
 129 287 l 2,23,24
 112 287 112 287 99 299 c 256,0,1
EndSplineSet
EndChar

StartChar: threesuperior
Encoding: 179 179 227
Width: 530
Flags: W
HStem: 287 93<86 315> 466 72<158 315> 624 93<86 315>
VStem: 315 129<380 466 538.461 624>
CounterMasks: 1 e0
LayerCount: 2
Fore
SplineSet
86 380 m 1,0,-1
 315 380 l 1,1,-1
 315 466 l 1,2,-1
 158 466 l 1,3,-1
 158 538 l 1,4,-1
 315 538 l 1,5,-1
 315 624 l 1,6,-1
 86 624 l 1,7,-1
 86 717 l 1,8,-1
 401 717 l 2,9,10
 416 717 416 717 430 704.5 c 128,-1,11
 444 692 444 692 444 674 c 2,12,-1
 444 545 l 2,13,14
 444 527 444 527 431 515 c 128,-1,15
 418 503 418 503 403 502 c 1,16,17
 418 500 418 500 431 490 c 128,-1,18
 444 480 444 480 444 466 c 2,19,-1
 444 330 l 2,20,21
 444 312 444 312 430.5 299.5 c 128,-1,22
 417 287 417 287 401 287 c 2,23,-1
 86 287 l 1,24,-1
 86 380 l 1,0,-1
EndSplineSet
EndChar

StartChar: onesuperior
Encoding: 185 185 228
Width: 349
Flags: W
HStem: 697 20G<94.7527 262>
VStem: 133 129<287 624>
LayerCount: 2
Fore
SplineSet
133 624 m 1,0,-1
 61 624 l 1,1,-1
 104 717 l 1,2,-1
 262 717 l 1,3,-1
 262 287 l 1,4,-1
 133 287 l 1,5,-1
 133 624 l 1,0,-1
EndSplineSet
EndChar

StartChar: onequarter
Encoding: 188 188 229
Width: 990
Flags: W
HStem: 0 21G<162 275.437 822 951> 108 71<722 822> 697 20G<77.7527 245 559.591 674>
VStem: 116 129<287 624> 593 129<179 430> 822 129<0 108 179 287>
LayerCount: 2
Fore
SplineSet
571 717 m 1,0,-1
 674 717 l 1,1,-1
 264 0 l 1,2,-1
 162 0 l 1,3,-1
 571 717 l 1,0,-1
116 624 m 1,4,-1
 44 624 l 1,5,-1
 87 717 l 1,6,-1
 245 717 l 1,7,-1
 245 287 l 1,8,-1
 116 287 l 1,9,-1
 116 624 l 1,4,-1
593 430 m 1,10,-1
 722 430 l 1,11,-1
 722 179 l 1,12,-1
 822 179 l 1,13,-1
 822 287 l 1,14,-1
 951 287 l 1,15,-1
 951 0 l 1,16,-1
 822 0 l 1,17,-1
 822 108 l 1,18,-1
 593 108 l 1,19,-1
 593 430 l 1,10,-1
EndSplineSet
EndChar

StartChar: onehalf
Encoding: 189 189 230
Width: 990
Flags: W
HStem: 0 93<720 949> 179 72<720 820> 337 93<591 820> 697 20G<77.7527 245 559.591 674>
VStem: 116 129<287 624> 591 129<93 179> 820 129<251 337>
LayerCount: 2
Fore
SplineSet
571 717 m 1,0,-1
 674 717 l 1,1,-1
 264 0 l 1,2,-1
 162 0 l 1,3,-1
 571 717 l 1,0,-1
116 624 m 1,4,-1
 44 624 l 1,5,-1
 87 717 l 1,6,-1
 245 717 l 1,7,-1
 245 287 l 1,8,-1
 116 287 l 1,9,-1
 116 624 l 1,4,-1
591 208 m 2,10,11
 591 226 591 226 604 238.5 c 128,-1,12
 617 251 617 251 634 251 c 2,13,-1
 820 251 l 1,14,-1
 820 337 l 1,15,-1
 591 337 l 1,16,-1
 591 430 l 1,17,-1
 906 430 l 2,18,19
 921 430 921 430 935 418 c 128,-1,20
 949 406 949 406 949 387 c 2,21,-1
 949 222 l 2,22,23
 949 204 949 204 935.5 191.5 c 128,-1,24
 922 179 922 179 906 179 c 2,25,-1
 720 179 l 1,26,-1
 720 93 l 1,27,-1
 949 93 l 1,28,-1
 949 0 l 1,29,-1
 634 0 l 2,30,31
 618 0 618 0 604.5 12.5 c 128,-1,32
 591 25 591 25 591 43 c 2,33,-1
 591 208 l 2,10,11
EndSplineSet
EndChar

StartChar: threequarters
Encoding: 190 190 231
Width: 1129
Flags: W
HStem: 0 21G<299 412.437 959 1089> 108 71<859 959> 287 93<40 269> 466 72<112 269> 624 93<40 269>
VStem: 269 129<380 466 538.461 624> 730 129<179 430> 959 130<0 108 179 287>
LayerCount: 2
Fore
SplineSet
709 717 m 1,0,-1
 811 717 l 1,1,-1
 401 0 l 1,2,-1
 299 0 l 1,3,-1
 709 717 l 1,0,-1
40 380 m 1,4,-1
 269 380 l 1,5,-1
 269 466 l 1,6,-1
 112 466 l 1,7,-1
 112 538 l 1,8,-1
 269 538 l 1,9,-1
 269 624 l 1,10,-1
 40 624 l 1,11,-1
 40 717 l 1,12,-1
 355 717 l 2,13,14
 370 717 370 717 384 704.5 c 128,-1,15
 398 692 398 692 398 674 c 2,16,-1
 398 545 l 2,17,18
 398 527 398 527 385 515 c 128,-1,19
 372 503 372 503 357 502 c 1,20,21
 372 500 372 500 385 490 c 128,-1,22
 398 480 398 480 398 466 c 2,23,-1
 398 330 l 2,24,25
 398 312 398 312 384.5 299.5 c 128,-1,26
 371 287 371 287 355 287 c 2,27,-1
 40 287 l 1,28,-1
 40 380 l 1,4,-1
730 430 m 1,29,-1
 859 430 l 1,30,-1
 859 179 l 1,31,-1
 959 179 l 1,32,-1
 959 287 l 1,33,-1
 1089 287 l 1,34,-1
 1089 0 l 1,35,-1
 959 0 l 1,36,-1
 959 108 l 1,37,-1
 730 108 l 1,38,-1
 730 430 l 1,29,-1
EndSplineSet
EndChar

StartChar: Eth
Encoding: 208 208 232
Width: 759
Flags: W
HStem: 0 156<340 508> 307 103<23 125 340 442> 561 156<340 508>
VStem: 125 215<156 307 410 561> 508 215<156 561>
CounterMasks: 1 e0
LayerCount: 2
Fore
SplineSet
125 307 m 1,0,-1
 23 307 l 1,1,-1
 23 410 l 1,2,-1
 125 410 l 1,3,-1
 125 717 l 1,4,-1
 651 717 l 2,5,6
 679 717 679 717 701 695.5 c 128,-1,7
 723 674 723 674 723 645 c 2,8,-1
 723 72 l 2,9,10
 723 42 723 42 701 21 c 128,-1,11
 679 0 679 0 651 0 c 2,12,-1
 125 0 l 1,13,-1
 125 307 l 1,0,-1
508 156 m 1,14,-1
 508 561 l 1,15,-1
 340 561 l 1,16,-1
 340 410 l 1,17,-1
 442 410 l 1,18,-1
 442 307 l 1,19,-1
 340 307 l 1,20,-1
 340 156 l 1,21,-1
 508 156 l 1,14,-1
EndSplineSet
EndChar

StartChar: multiply
Encoding: 215 215 233
Width: 468
Flags: W
LayerCount: 2
Fore
SplineSet
28 224 m 1,0,-1
 162 358 l 1,1,-1
 28 493 l 1,2,-1
 100 565 l 1,3,-1
 234 431 l 1,4,-1
 369 565 l 1,5,-1
 441 493 l 1,6,-1
 307 358 l 1,7,-1
 441 224 l 1,8,-1
 369 152 l 1,9,-1
 234 286 l 1,10,-1
 100 152 l 1,11,-1
 28 224 l 1,0,-1
EndSplineSet
EndChar

StartChar: Yacute
Encoding: 221 221 234
Width: 733
Flags: W
HStem: 0 21G<258 473> 697 20G<8 282.715 448.417 724>
VStem: 258 215<0 323>
LayerCount: 2
Fore
SplineSet
222 834 m 1,0,-1
 509 924 l 1,1,-1
 509 825 l 1,2,-1
 222 778 l 1,3,-1
 222 834 l 1,0,-1
258 323 m 1,4,-1
 8 717 l 1,5,-1
 270 717 l 1,6,-1
 366 566 l 1,7,-1
 461 717 l 1,8,-1
 724 717 l 1,9,-1
 473 323 l 1,10,-1
 473 0 l 1,11,-1
 258 0 l 1,12,-1
 258 323 l 1,4,-1
EndSplineSet
EndChar

StartChar: Thorn
Encoding: 222 222 235
Width: 648
Flags: W
HStem: 0 21G<37 252> 125 120<252 420> 435 157<252 420> 697 20G<37 252>
VStem: 37 215<0 125 245 435 592 717> 420 215<245 435>
LayerCount: 2
Fore
SplineSet
37 717 m 1,0,-1
 252 717 l 1,1,-1
 252 592 l 1,2,-1
 563 592 l 2,3,4
 591 592 591 592 613 570.5 c 128,-1,5
 635 549 635 549 635 520 c 2,6,-1
 635 197 l 2,7,8
 635 167 635 167 613 146 c 128,-1,9
 591 125 591 125 563 125 c 2,10,-1
 252 125 l 1,11,-1
 252 0 l 1,12,-1
 37 0 l 1,13,-1
 37 717 l 1,0,-1
420 245 m 1,14,-1
 420 435 l 1,15,-1
 252 435 l 1,16,-1
 252 245 l 1,17,-1
 420 245 l 1,14,-1
EndSplineSet
EndChar

StartChar: eth
Encoding: 240 240 236
Width: 614
Flags: W
HStem: 0 156<249 368> 382 156<249 368> 614 103<54 116 198 353.042>
VStem: 34 215<156 382> 116 82<563 614 717 768> 368 215<156 382 538 599.558>
LayerCount: 2
Fore
SplineSet
34 466 m 2,0,1
 34 495 34 495 55.5 516.5 c 128,-1,2
 77 538 77 538 105 538 c 2,3,-1
 368 538 l 1,4,-1
 368 553 l 2,5,6
 368 586 368 586 353.5 600 c 128,-1,7
 339 614 339 614 306 614 c 2,8,-1
 198 614 l 1,9,-1
 198 563 l 1,10,-1
 116 563 l 1,11,-1
 116 614 l 1,12,-1
 54 614 l 1,13,-1
 54 717 l 1,14,-1
 116 717 l 1,15,-1
 116 768 l 1,16,-1
 198 768 l 1,17,-1
 198 717 l 1,18,-1
 357 717 l 2,19,20
 476 717 476 717 529.5 663.5 c 128,-1,21
 583 610 583 610 583 492 c 2,22,-1
 583 0 l 1,23,-1
 105 0 l 2,24,25
 76 0 76 0 55 21.5 c 128,-1,26
 34 43 34 43 34 72 c 2,27,-1
 34 466 l 2,0,1
368 156 m 1,28,-1
 368 382 l 1,29,-1
 249 382 l 1,30,-1
 249 156 l 1,31,-1
 368 156 l 1,28,-1
EndSplineSet
EndChar

StartChar: yacute
Encoding: 253 253 237
Width: 603
Flags: W
HStem: -239 156<96 358> 0 156<240 358> 518 20G<25 240 358 573>
VStem: 25 215<156 538> 358 215<-83 0 156 538>
LayerCount: 2
Fore
SplineSet
157 654 m 1,0,-1
 443 744 l 1,1,-1
 443 646 l 1,2,-1
 157 599 l 1,3,-1
 157 654 l 1,0,-1
25 538 m 1,4,-1
 240 538 l 1,5,-1
 240 156 l 1,6,-1
 358 156 l 1,7,-1
 358 538 l 1,8,-1
 573 538 l 1,9,-1
 573 -167 l 2,10,11
 573 -196 573 -196 551.5 -217.5 c 128,-1,12
 530 -239 530 -239 502 -239 c 2,13,-1
 96 -239 l 1,14,-1
 25 -83 l 1,15,-1
 358 -83 l 1,16,-1
 358 0 l 1,17,-1
 96 0 l 2,18,19
 67 0 67 0 46 21.5 c 128,-1,20
 25 43 25 43 25 72 c 2,21,-1
 25 538 l 1,4,-1
EndSplineSet
EndChar

StartChar: thorn
Encoding: 254 254 238
Width: 594
Flags: W
HStem: -239 21G<37 252> 0 156<252 371> 382 156<252 371> 697 20G<37 252>
VStem: 37 215<-239 0 156 382 538 717> 371 215<156 382>
LayerCount: 2
Fore
SplineSet
37 717 m 1,0,-1
 252 717 l 1,1,-1
 252 538 l 1,2,-1
 514 538 l 2,3,4
 543 538 543 538 564.5 516.5 c 128,-1,5
 586 495 586 495 586 466 c 2,6,-1
 586 72 l 2,7,8
 586 43 586 43 564.5 21.5 c 128,-1,9
 543 0 543 0 514 0 c 2,10,-1
 252 0 l 1,11,-1
 252 -239 l 1,12,-1
 37 -239 l 1,13,-1
 37 717 l 1,0,-1
371 156 m 1,14,-1
 371 382 l 1,15,-1
 252 382 l 1,16,-1
 252 156 l 1,17,-1
 371 156 l 1,14,-1
EndSplineSet
EndChar

StartChar: Abreve
Encoding: 258 258 239
Width: 863
Flags: W
HStem: 0 156<372 546> 697 20G<302.715 559.312> 768 51<375.58 486.032>
VStem: 293 51<850.228 906> 518 51<850.459 906>
LayerCount: 2
Fore
SplineSet
335 810 m 256,0,1
 316 829 316 829 304.5 854 c 128,-1,2
 293 879 293 879 293 906 c 1,3,-1
 344 906 l 1,4,5
 344 889 344 889 351 873.5 c 128,-1,6
 358 858 358 858 370.5 846 c 128,-1,7
 383 834 383 834 398.5 826.5 c 128,-1,8
 414 819 414 819 431 819 c 0,9,10
 447 819 447 819 463 826.5 c 128,-1,11
 479 834 479 834 491.5 846 c 128,-1,12
 504 858 504 858 511 873.5 c 128,-1,13
 518 889 518 889 518 906 c 1,14,-1
 569 906 l 1,15,16
 569 878 569 878 558 853.5 c 128,-1,17
 547 829 547 829 527.5 810 c 128,-1,18
 508 791 508 791 483.5 779.5 c 128,-1,19
 459 768 459 768 431 768 c 256,20,21
 403 768 403 768 378.5 779.5 c 128,-1,22
 354 791 354 791 335 810 c 256,0,1
311 717 m 1,23,-1
 551 717 l 1,24,-1
 849 0 l 1,25,-1
 372 0 l 1,26,-1
 372 156 l 1,27,-1
 546 156 l 1,28,-1
 431 430 l 1,29,-1
 252 0 l 1,30,-1
 14 0 l 1,31,-1
 311 717 l 1,23,-1
EndSplineSet
EndChar

StartChar: Amacron
Encoding: 256 256 240
Width: 869
Flags: W
HStem: 0 156<375 549> 697 20G<305.715 562.312> 778 74<243 626>
LayerCount: 2
Fore
SplineSet
243 852 m 1,0,-1
 626 852 l 1,1,-1
 626 778 l 1,2,-1
 243 778 l 1,3,-1
 243 852 l 1,0,-1
314 717 m 1,4,-1
 554 717 l 1,5,-1
 852 0 l 1,6,-1
 375 0 l 1,7,-1
 375 156 l 1,8,-1
 549 156 l 1,9,-1
 434 430 l 1,10,-1
 255 0 l 1,11,-1
 17 0 l 1,12,-1
 314 717 l 1,4,-1
EndSplineSet
EndChar

StartChar: Aogonek
Encoding: 260 260 241
Width: 862
Flags: W
HStem: -223 66<703.648 819.997> 0 156<366 540> 697 20G<296.715 553.312>
VStem: 578 115<-148.708 -39.2741>
LayerCount: 2
Fore
SplineSet
305 717 m 1,0,-1
 545 717 l 1,1,-1
 843 0 l 1,2,-1
 746 0 l 1,3,4
 737 -8 737 -8 727.5 -21 c 128,-1,5
 718 -34 718 -34 710 -48.5 c 128,-1,6
 702 -63 702 -63 697.5 -79 c 128,-1,7
 693 -95 693 -95 693 -109 c 0,8,9
 693 -137 693 -137 708.5 -147 c 128,-1,10
 724 -157 724 -157 745 -157 c 0,11,12
 771 -157 771 -157 798 -147.5 c 128,-1,13
 825 -138 825 -138 843 -129 c 1,14,-1
 820 -203 l 1,15,16
 800 -213 800 -213 774 -218 c 128,-1,17
 748 -223 748 -223 720 -223 c 0,18,19
 693 -223 693 -223 667.5 -217 c 128,-1,20
 642 -211 642 -211 622 -198 c 128,-1,21
 602 -185 602 -185 590 -163.5 c 128,-1,22
 578 -142 578 -142 578 -112 c 0,23,24
 578 -85 578 -85 589 -57 c 128,-1,25
 600 -29 600 -29 625 0 c 1,26,-1
 366 0 l 1,27,-1
 366 156 l 1,28,-1
 540 156 l 1,29,-1
 425 430 l 1,30,-1
 246 0 l 1,31,-1
 8 0 l 1,32,-1
 305 717 l 1,0,-1
EndSplineSet
EndChar

StartChar: Cacute
Encoding: 262 262 242
Width: 644
Flags: W
HStem: 0 156<243 554> 561 156<243 554>
VStem: 28 215<156 561>
LayerCount: 2
Fore
SplineSet
179 834 m 1,0,-1
 466 924 l 1,1,-1
 466 825 l 1,2,-1
 179 778 l 1,3,-1
 179 834 l 1,0,-1
28 645 m 2,4,5
 28 674 28 674 50 695.5 c 128,-1,6
 72 717 72 717 99 717 c 2,7,-1
 626 717 l 1,8,-1
 554 561 l 1,9,-1
 243 561 l 1,10,-1
 243 156 l 1,11,-1
 626 156 l 1,12,-1
 554 0 l 1,13,-1
 99 0 l 2,14,15
 71 0 71 0 49.5 21 c 128,-1,16
 28 42 28 42 28 72 c 2,17,-1
 28 645 l 2,4,5
EndSplineSet
EndChar

StartChar: Ccaron
Encoding: 268 268 243
Width: 649
Flags: W
HStem: 0 156<246 557> 561 156<246 557>
VStem: 31 215<156 561>
LayerCount: 2
Fore
SplineSet
121 868 m 1,0,-1
 121 924 l 1,1,-1
 326 877 l 1,2,-1
 530 924 l 1,3,-1
 530 868 l 1,4,-1
 326 778 l 1,5,-1
 121 868 l 1,0,-1
31 645 m 2,6,7
 31 674 31 674 53 695.5 c 128,-1,8
 75 717 75 717 102 717 c 2,9,-1
 629 717 l 1,10,-1
 557 561 l 1,11,-1
 246 561 l 1,12,-1
 246 156 l 1,13,-1
 629 156 l 1,14,-1
 557 0 l 1,15,-1
 102 0 l 2,16,17
 74 0 74 0 52.5 21 c 128,-1,18
 31 42 31 42 31 72 c 2,19,-1
 31 645 l 2,6,7
EndSplineSet
EndChar

StartChar: Ccircumflex
Encoding: 264 264 244
Width: 649
Flags: W
HStem: 0 156<246 557> 561 156<246 557>
VStem: 31 215<156 561>
LayerCount: 2
Fore
SplineSet
121 834 m 1,0,-1
 326 924 l 1,1,-1
 530 834 l 1,2,-1
 530 778 l 1,3,-1
 326 825 l 1,4,-1
 121 778 l 1,5,-1
 121 834 l 1,0,-1
31 645 m 2,6,7
 31 674 31 674 53 695.5 c 128,-1,8
 75 717 75 717 102 717 c 2,9,-1
 629 717 l 1,10,-1
 557 561 l 1,11,-1
 246 561 l 1,12,-1
 246 156 l 1,13,-1
 629 156 l 1,14,-1
 557 0 l 1,15,-1
 102 0 l 2,16,17
 74 0 74 0 52.5 21 c 128,-1,18
 31 42 31 42 31 72 c 2,19,-1
 31 645 l 2,6,7
EndSplineSet
EndChar

StartChar: Cdotaccent
Encoding: 266 266 245
Width: 642
Flags: W
HStem: 0 156<243 554> 561 156<243 554> 768 151<266.734 377.721>
VStem: 28 215<156 561> 247 151<792.751 894.249>
LayerCount: 2
Fore
SplineSet
265 792 m 256,0,1
 247 816 247 816 247 844 c 128,-1,2
 247 872 247 872 265.5 895.5 c 128,-1,3
 284 919 284 919 322 919 c 0,4,5
 361 919 361 919 379.5 895 c 128,-1,6
 398 871 398 871 398 843 c 128,-1,7
 398 815 398 815 379 791.5 c 128,-1,8
 360 768 360 768 322 768 c 0,9,10
 283 768 283 768 265 792 c 256,0,1
28 645 m 2,11,12
 28 674 28 674 50 695.5 c 128,-1,13
 72 717 72 717 99 717 c 2,14,-1
 626 717 l 1,15,-1
 554 561 l 1,16,-1
 243 561 l 1,17,-1
 243 156 l 1,18,-1
 626 156 l 1,19,-1
 554 0 l 1,20,-1
 99 0 l 2,21,22
 71 0 71 0 49.5 21 c 128,-1,23
 28 42 28 42 28 72 c 2,24,-1
 28 645 l 2,11,12
EndSplineSet
EndChar

StartChar: Dcaron
Encoding: 270 270 246
Width: 659
Flags: W
HStem: 0 156<246 414> 561 156<246 414>
VStem: 31 215<156 561> 414 215<156 561>
LayerCount: 2
Fore
SplineSet
125 868 m 1,0,-1
 125 924 l 1,1,-1
 330 877 l 1,2,-1
 535 924 l 1,3,-1
 535 868 l 1,4,-1
 330 778 l 1,5,-1
 125 868 l 1,0,-1
31 717 m 1,6,-1
 557 717 l 2,7,8
 585 717 585 717 607 695.5 c 128,-1,9
 629 674 629 674 629 645 c 2,10,-1
 629 72 l 2,11,12
 629 42 629 42 607 21 c 128,-1,13
 585 0 585 0 557 0 c 2,14,-1
 31 0 l 1,15,-1
 31 717 l 1,6,-1
414 156 m 1,16,-1
 414 561 l 1,17,-1
 246 561 l 1,18,-1
 246 156 l 1,19,-1
 414 156 l 1,16,-1
EndSplineSet
EndChar

StartChar: Dcroat
Encoding: 272 272 247
Width: 759
Flags: W
HStem: 0 156<340 508> 307 103<23 125 340 442> 561 156<340 508>
VStem: 125 215<156 307 410 561> 508 215<156 561>
CounterMasks: 1 e0
LayerCount: 2
Fore
SplineSet
125 307 m 1,0,-1
 23 307 l 1,1,-1
 23 410 l 1,2,-1
 125 410 l 1,3,-1
 125 717 l 1,4,-1
 651 717 l 2,5,6
 679 717 679 717 701 695.5 c 128,-1,7
 723 674 723 674 723 645 c 2,8,-1
 723 72 l 2,9,10
 723 42 723 42 701 21 c 128,-1,11
 679 0 679 0 651 0 c 2,12,-1
 125 0 l 1,13,-1
 125 307 l 1,0,-1
508 156 m 1,14,-1
 508 561 l 1,15,-1
 340 561 l 1,16,-1
 340 410 l 1,17,-1
 442 410 l 1,18,-1
 442 307 l 1,19,-1
 340 307 l 1,20,-1
 340 156 l 1,21,-1
 508 156 l 1,14,-1
EndSplineSet
EndChar

StartChar: Ecaron
Encoding: 282 282 248
Width: 650
Flags: W
HStem: 0 156<246 557> 299 119<246 557> 561 156<246 557>
VStem: 31 215<156 299 418 561>
CounterMasks: 1 e0
LayerCount: 2
Fore
SplineSet
121 868 m 1,0,-1
 121 924 l 1,1,-1
 326 877 l 1,2,-1
 530 924 l 1,3,-1
 530 868 l 1,4,-1
 326 778 l 1,5,-1
 121 868 l 1,0,-1
31 717 m 1,6,-1
 629 717 l 1,7,-1
 557 561 l 1,8,-1
 246 561 l 1,9,-1
 246 418 l 1,10,-1
 557 418 l 1,11,-1
 557 299 l 1,12,-1
 246 299 l 1,13,-1
 246 156 l 1,14,-1
 629 156 l 1,15,-1
 557 0 l 1,16,-1
 31 0 l 1,17,-1
 31 717 l 1,6,-1
EndSplineSet
EndChar

StartChar: Edotaccent
Encoding: 278 278 249
Width: 643
Flags: W
HStem: 0 156<243 554> 299 119<243 554> 561 156<243 554> 768 151<266.734 377.721>
VStem: 28 215<156 299 418 561> 247 151<792.751 894.249>
LayerCount: 2
Fore
SplineSet
265 792 m 256,0,1
 247 816 247 816 247 844 c 128,-1,2
 247 872 247 872 265.5 895.5 c 128,-1,3
 284 919 284 919 322 919 c 0,4,5
 361 919 361 919 379.5 895 c 128,-1,6
 398 871 398 871 398 843 c 128,-1,7
 398 815 398 815 379 791.5 c 128,-1,8
 360 768 360 768 322 768 c 0,9,10
 283 768 283 768 265 792 c 256,0,1
28 717 m 1,11,-1
 626 717 l 1,12,-1
 554 561 l 1,13,-1
 243 561 l 1,14,-1
 243 418 l 1,15,-1
 554 418 l 1,16,-1
 554 299 l 1,17,-1
 243 299 l 1,18,-1
 243 156 l 1,19,-1
 626 156 l 1,20,-1
 554 0 l 1,21,-1
 28 0 l 1,22,-1
 28 717 l 1,11,-1
EndSplineSet
EndChar

StartChar: Emacron
Encoding: 274 274 250
Width: 664
Flags: W
HStem: 0 156<252 563> 299 119<252 563> 561 156<252 563> 778 74<140 523>
VStem: 37 215<156 299 418 561>
LayerCount: 2
Fore
SplineSet
140 852 m 1,0,-1
 523 852 l 1,1,-1
 523 778 l 1,2,-1
 140 778 l 1,3,-1
 140 852 l 1,0,-1
37 717 m 1,4,-1
 635 717 l 1,5,-1
 563 561 l 1,6,-1
 252 561 l 1,7,-1
 252 418 l 1,8,-1
 563 418 l 1,9,-1
 563 299 l 1,10,-1
 252 299 l 1,11,-1
 252 156 l 1,12,-1
 635 156 l 1,13,-1
 563 0 l 1,14,-1
 37 0 l 1,15,-1
 37 717 l 1,4,-1
EndSplineSet
EndChar

StartChar: Eogonek
Encoding: 280 280 251
Width: 648
Flags: W
HStem: -223 66<481.648 597.997> 0 156<238 402 504.613 549> 299 119<238 549> 561 156<238 549>
VStem: 23 215<156 299 418 561> 355 116<-148.708 -39.2741>
LayerCount: 2
Fore
SplineSet
23 717 m 1,0,-1
 621 717 l 1,1,-1
 549 561 l 1,2,-1
 238 561 l 1,3,-1
 238 418 l 1,4,-1
 549 418 l 1,5,-1
 549 299 l 1,6,-1
 238 299 l 1,7,-1
 238 156 l 1,8,-1
 621 156 l 1,9,-1
 549 0 l 1,10,-1
 524 0 l 1,11,12
 515 -8 515 -8 505.5 -21 c 128,-1,13
 496 -34 496 -34 488 -48.5 c 128,-1,14
 480 -63 480 -63 475.5 -79 c 128,-1,15
 471 -95 471 -95 471 -109 c 0,16,17
 471 -137 471 -137 486.5 -147 c 128,-1,18
 502 -157 502 -157 523 -157 c 0,19,20
 549 -157 549 -157 576 -147.5 c 128,-1,21
 603 -138 603 -138 621 -129 c 1,22,-1
 598 -203 l 1,23,24
 578 -213 578 -213 551.5 -218 c 128,-1,25
 525 -223 525 -223 498 -223 c 128,-1,26
 471 -223 471 -223 445.5 -217 c 128,-1,27
 420 -211 420 -211 400 -198 c 128,-1,28
 380 -185 380 -185 367.5 -163.5 c 128,-1,29
 355 -142 355 -142 355 -112 c 0,30,31
 355 -85 355 -85 366.5 -57 c 128,-1,32
 378 -29 378 -29 402 0 c 1,33,-1
 23 0 l 1,34,-1
 23 717 l 1,0,-1
EndSplineSet
EndChar

StartChar: Gbreve
Encoding: 286 286 252
Width: 651
Flags: W
HStem: 0 156<244 412> 299 119<328 412> 561 156<244 555> 768 51<271.675 381.751>
VStem: 29 215<156 561> 188 52<850.228 906> 412 215<156 299> 414 51<851.215 906>
LayerCount: 2
Fore
SplineSet
274 779 m 256,0,1
 249 790 249 790 230 809.5 c 128,-1,2
 211 829 211 829 199.5 854 c 128,-1,3
 188 879 188 879 188 906 c 1,4,-1
 240 906 l 1,5,6
 240 889 240 889 247 873.5 c 128,-1,7
 254 858 254 858 266.5 846 c 128,-1,8
 279 834 279 834 294 826.5 c 128,-1,9
 309 819 309 819 327 819 c 0,10,11
 343 819 343 819 359 826.5 c 128,-1,12
 375 834 375 834 387 846 c 128,-1,13
 399 858 399 858 406.5 873.5 c 128,-1,14
 414 889 414 889 414 906 c 1,15,-1
 465 906 l 1,16,17
 465 878 465 878 453.5 853.5 c 128,-1,18
 442 829 442 829 422.5 810 c 128,-1,19
 403 791 403 791 378.5 779.5 c 128,-1,20
 354 768 354 768 327 768 c 256,21,22
 299 768 299 768 274 779 c 256,0,1
29 645 m 2,23,24
 29 674 29 674 51 695.5 c 128,-1,25
 73 717 73 717 100 717 c 2,26,-1
 627 717 l 1,27,-1
 555 561 l 1,28,-1
 244 561 l 1,29,-1
 244 156 l 1,30,-1
 412 156 l 1,31,-1
 412 299 l 1,32,-1
 328 299 l 1,33,-1
 328 418 l 1,34,-1
 627 418 l 1,35,-1
 627 0 l 1,36,-1
 100 0 l 2,37,38
 72 0 72 0 50.5 21 c 128,-1,39
 29 42 29 42 29 72 c 2,40,-1
 29 645 l 2,23,24
EndSplineSet
EndChar

StartChar: Gcircumflex
Encoding: 284 284 253
Width: 655
Flags: W
HStem: 0 156<246 414> 299 119<330 414> 561 156<246 557>
VStem: 31 215<156 561> 414 215<156 299>
CounterMasks: 1 e0
LayerCount: 2
Fore
SplineSet
124 834 m 1,0,-1
 329 924 l 1,1,-1
 534 834 l 1,2,-1
 534 778 l 1,3,-1
 329 825 l 1,4,-1
 124 778 l 1,5,-1
 124 834 l 1,0,-1
31 645 m 2,6,7
 31 674 31 674 53 695.5 c 128,-1,8
 75 717 75 717 102 717 c 2,9,-1
 629 717 l 1,10,-1
 557 561 l 1,11,-1
 246 561 l 1,12,-1
 246 156 l 1,13,-1
 414 156 l 1,14,-1
 414 299 l 1,15,-1
 330 299 l 1,16,-1
 330 418 l 1,17,-1
 629 418 l 1,18,-1
 629 0 l 1,19,-1
 102 0 l 2,20,21
 74 0 74 0 52.5 21 c 128,-1,22
 31 42 31 42 31 72 c 2,23,-1
 31 645 l 2,6,7
EndSplineSet
EndChar

StartChar: Gdotaccent
Encoding: 288 288 254
Width: 647
Flags: W
HStem: 0 156<242 410> 299 119<326 410> 561 156<242 553> 768 151<268.734 379.721>
VStem: 27 215<156 561> 249 151<792.751 894.249> 410 215<156 299>
LayerCount: 2
Fore
SplineSet
267 792 m 256,0,1
 249 816 249 816 249 844 c 128,-1,2
 249 872 249 872 267.5 895.5 c 128,-1,3
 286 919 286 919 324 919 c 0,4,5
 363 919 363 919 381.5 895 c 128,-1,6
 400 871 400 871 400 843 c 128,-1,7
 400 815 400 815 381 791.5 c 128,-1,8
 362 768 362 768 324 768 c 0,9,10
 285 768 285 768 267 792 c 256,0,1
27 645 m 2,11,12
 27 674 27 674 49 695.5 c 128,-1,13
 71 717 71 717 98 717 c 2,14,-1
 625 717 l 1,15,-1
 553 561 l 1,16,-1
 242 561 l 1,17,-1
 242 156 l 1,18,-1
 410 156 l 1,19,-1
 410 299 l 1,20,-1
 326 299 l 1,21,-1
 326 418 l 1,22,-1
 625 418 l 1,23,-1
 625 0 l 1,24,-1
 98 0 l 2,25,26
 70 0 70 0 48.5 21 c 128,-1,27
 27 42 27 42 27 72 c 2,28,-1
 27 645 l 2,11,12
EndSplineSet
EndChar

StartChar: Hbar
Encoding: 294 294 255
Width: 851
Flags: W
HStem: 0 21G<127 342 510 725> 299 119<342 510> 522 103<25 127 342 510 725 827> 697 20G<127 342 510 725>
VStem: 127 215<0 299 418 522 625 717> 510 215<0 299 418 522 625 717>
LayerCount: 2
Fore
SplineSet
127 522 m 1,0,-1
 25 522 l 1,1,-1
 25 625 l 1,2,-1
 127 625 l 1,3,-1
 127 717 l 1,4,-1
 342 717 l 1,5,-1
 342 625 l 1,6,-1
 510 625 l 1,7,-1
 510 717 l 1,8,-1
 725 717 l 1,9,-1
 725 625 l 1,10,-1
 827 625 l 1,11,-1
 827 522 l 1,12,-1
 725 522 l 1,13,-1
 725 0 l 1,14,-1
 510 0 l 1,15,-1
 510 299 l 1,16,-1
 342 299 l 1,17,-1
 342 0 l 1,18,-1
 127 0 l 1,19,-1
 127 522 l 1,0,-1
510 418 m 1,20,-1
 510 522 l 1,21,-1
 342 522 l 1,22,-1
 342 418 l 1,23,-1
 510 418 l 1,20,-1
EndSplineSet
EndChar

StartChar: Hcircumflex
Encoding: 292 292 256
Width: 659
Flags: W
HStem: 0 21G<31 246 414 629> 299 119<246 414> 697 20G<31 246 414 629>
VStem: 31 215<0 299 418 717> 414 215<0 299 418 717>
LayerCount: 2
Fore
SplineSet
125 834 m 1,0,-1
 330 924 l 1,1,-1
 535 834 l 1,2,-1
 535 778 l 1,3,-1
 330 825 l 1,4,-1
 125 778 l 1,5,-1
 125 834 l 1,0,-1
31 717 m 1,6,-1
 246 717 l 1,7,-1
 246 418 l 1,8,-1
 414 418 l 1,9,-1
 414 717 l 1,10,-1
 629 717 l 1,11,-1
 629 0 l 1,12,-1
 414 0 l 1,13,-1
 414 299 l 1,14,-1
 246 299 l 1,15,-1
 246 0 l 1,16,-1
 31 0 l 1,17,-1
 31 717 l 1,6,-1
EndSplineSet
EndChar

StartChar: Idotaccent
Encoding: 304 304 257
Width: 279
Flags: W
HStem: 0 21G<32 247> 697 20G<32 247> 768 151<83.2772 194.793>
VStem: 32 215<0 717> 63 152<792.751 894.249>
LayerCount: 2
Fore
SplineSet
82 792 m 256,0,1
 64 816 64 816 63 844 c 0,2,3
 63 872 63 872 81.5 895.5 c 128,-1,4
 100 919 100 919 138 919 c 0,5,6
 177 919 177 919 196 895 c 128,-1,7
 215 871 215 871 215 843 c 128,-1,8
 215 815 215 815 196 791.5 c 128,-1,9
 177 768 177 768 138 768 c 0,10,11
 100 768 100 768 82 792 c 256,0,1
32 717 m 1,12,-1
 247 717 l 1,13,-1
 247 0 l 1,14,-1
 32 0 l 1,15,-1
 32 717 l 1,12,-1
EndSplineSet
EndChar

StartChar: Imacron
Encoding: 298 298 258
Width: 289
Flags: W
HStem: 0 21G<37 252> 697 20G<37 252> 778 74<-46 337>
VStem: 37 215<0 717>
LayerCount: 2
Fore
SplineSet
-46 852 m 1,0,-1
 337 852 l 1,1,-1
 337 778 l 1,2,-1
 -46 778 l 1,3,-1
 -46 852 l 1,0,-1
37 717 m 1,4,-1
 252 717 l 1,5,-1
 252 0 l 1,6,-1
 37 0 l 1,7,-1
 37 717 l 1,4,-1
EndSplineSet
EndChar

StartChar: Iogonek
Encoding: 302 302 259
Width: 289
Flags: W
HStem: -223 66<112.648 229.072> 697 20G<37 252>
VStem: -13 115<-148.708 -39.6357> 37 215<0.1875 717>
LayerCount: 2
Fore
SplineSet
37 717 m 1,0,-1
 252 717 l 1,1,-1
 252 0 l 1,2,-1
 156 0 l 1,3,4
 147 -8 147 -8 137 -21 c 128,-1,5
 127 -34 127 -34 119.5 -48.5 c 128,-1,6
 112 -63 112 -63 107 -79 c 128,-1,7
 102 -95 102 -95 102 -109 c 0,8,9
 102 -137 102 -137 117.5 -147 c 128,-1,10
 133 -157 133 -157 155 -157 c 0,11,12
 181 -157 181 -157 207.5 -147.5 c 128,-1,13
 234 -138 234 -138 252 -129 c 1,14,-1
 229 -203 l 1,15,16
 209 -213 209 -213 183 -218 c 128,-1,17
 157 -223 157 -223 129 -223 c 0,18,19
 102 -223 102 -223 76.5 -217 c 128,-1,20
 51 -211 51 -211 31 -198 c 128,-1,21
 11 -185 11 -185 -1 -163.5 c 128,-1,22
 -13 -142 -13 -142 -13 -112 c 0,23,24
 -13 -85 -13 -85 -1.5 -56 c 128,-1,25
 10 -27 10 -27 37 2 c 1,26,-1
 37 717 l 1,0,-1
EndSplineSet
EndChar

StartChar: Itilde
Encoding: 296 296 260
Width: 289
Flags: W
HStem: 0 21G<37 252> 697 20G<37 252> 758 91<175.692 317.965> 823 91<-24.707 130.13>
VStem: 37 215<0 717>
LayerCount: 2
Fore
SplineSet
-54 864 m 1,0,1
 -30 892 -30 892 -6 903 c 128,-1,2
 18 914 18 914 43 914 c 0,3,4
 71 914 71 914 98.5 904 c 128,-1,5
 126 894 126 894 153 881.5 c 128,-1,6
 180 869 180 869 206.5 859 c 128,-1,7
 233 849 233 849 258 849 c 0,8,9
 282 849 282 849 303 860.5 c 128,-1,10
 324 872 324 872 344 902 c 1,11,-1
 344 811 l 1,12,13
 324 781 324 781 303 769.5 c 128,-1,14
 282 758 282 758 258 758 c 0,15,16
 233 758 233 758 206.5 768 c 128,-1,17
 180 778 180 778 153 790.5 c 128,-1,18
 126 803 126 803 98.5 813 c 128,-1,19
 71 823 71 823 43 823 c 0,20,21
 18 823 18 823 -6.5 812 c 128,-1,22
 -31 801 -31 801 -54 773 c 1,23,-1
 -54 864 l 1,0,1
37 717 m 1,24,-1
 252 717 l 1,25,-1
 252 0 l 1,26,-1
 37 0 l 1,27,-1
 37 717 l 1,24,-1
EndSplineSet
EndChar

StartChar: Jcircumflex
Encoding: 308 308 261
Width: 455
Flags: W
HStem: 0 21G<95.8974 335> 697 20G<177 392>
VStem: 177 215<156 717>
LayerCount: 2
Fore
SplineSet
22 834 m 1,0,-1
 226 924 l 1,1,-1
 431 834 l 1,2,-1
 431 778 l 1,3,-1
 226 825 l 1,4,-1
 22 778 l 1,5,-1
 22 834 l 1,0,-1
34 156 m 1,6,-1
 177 156 l 1,7,-1
 177 717 l 1,8,-1
 392 717 l 1,9,-1
 392 72 l 2,10,11
 392 43 392 43 370.5 21.5 c 128,-1,12
 349 0 349 0 321 0 c 2,13,-1
 105 0 l 1,14,-1
 34 156 l 1,6,-1
EndSplineSet
EndChar

StartChar: Lacute
Encoding: 313 313 262
Width: 640
Flags: W
HStem: 0 156<243 554> 697 20G<28 243>
VStem: 28 215<156 717>
LayerCount: 2
Fore
SplineSet
168 834 m 1,0,-1
 455 924 l 1,1,-1
 455 825 l 1,2,-1
 168 778 l 1,3,-1
 168 834 l 1,0,-1
28 717 m 1,4,-1
 243 717 l 1,5,-1
 243 156 l 1,6,-1
 554 156 l 1,7,-1
 626 0 l 1,8,-1
 28 0 l 1,9,-1
 28 717 l 1,4,-1
EndSplineSet
EndChar

StartChar: Lslash
Encoding: 321 321 263
Width: 691
Flags: W
HStem: 0 156<300 611> 697 20G<85 300>
VStem: 85 215<156 211 329 336 454 717>
LayerCount: 2
Fore
SplineSet
85 211 m 1,0,-1
 28 178 l 1,1,-1
 28 296 l 1,2,-1
 85 329 l 1,3,-1
 85 717 l 1,4,-1
 300 717 l 1,5,-1
 300 454 l 1,6,-1
 458 545 l 1,7,-1
 458 427 l 1,8,-1
 300 336 l 1,9,-1
 300 156 l 1,10,-1
 611 156 l 1,11,-1
 683 0 l 1,12,-1
 85 0 l 1,13,-1
 85 211 l 1,0,-1
EndSplineSet
EndChar

StartChar: Nacute
Encoding: 323 323 264
Width: 654
Flags: W
HStem: 0 21G<28 243 411 626> 561 156<243 411>
VStem: 28 215<0 561> 411 215<0 561>
LayerCount: 2
Fore
SplineSet
183 834 m 1,0,-1
 470 924 l 1,1,-1
 470 825 l 1,2,-1
 183 778 l 1,3,-1
 183 834 l 1,0,-1
28 717 m 1,4,-1
 554 717 l 2,5,6
 582 717 582 717 604 695.5 c 128,-1,7
 626 674 626 674 626 645 c 2,8,-1
 626 0 l 1,9,-1
 411 0 l 1,10,-1
 411 561 l 1,11,-1
 243 561 l 1,12,-1
 243 0 l 1,13,-1
 28 0 l 1,14,-1
 28 717 l 1,4,-1
EndSplineSet
EndChar

StartChar: Ncaron
Encoding: 327 327 265
Width: 659
Flags: W
HStem: 0 21G<31 246 414 629> 561 156<246 414>
VStem: 31 215<0 561> 414 215<0 561>
LayerCount: 2
Fore
SplineSet
125 868 m 1,0,-1
 125 924 l 1,1,-1
 330 877 l 1,2,-1
 535 924 l 1,3,-1
 535 868 l 1,4,-1
 330 778 l 1,5,-1
 125 868 l 1,0,-1
31 717 m 1,6,-1
 557 717 l 2,7,8
 585 717 585 717 607 695.5 c 128,-1,9
 629 674 629 674 629 645 c 2,10,-1
 629 0 l 1,11,-1
 414 0 l 1,12,-1
 414 561 l 1,13,-1
 246 561 l 1,14,-1
 246 0 l 1,15,-1
 31 0 l 1,16,-1
 31 717 l 1,6,-1
EndSplineSet
EndChar

StartChar: Ohungarumlaut
Encoding: 336 336 266
Width: 653
Flags: W
HStem: 0 156<243 411> 561 156<243 411>
VStem: 28 215<156 561> 411 215<156 561>
LayerCount: 2
Fore
SplineSet
371 946 m 1,0,-1
 444 946 l 1,1,-1
 385 778 l 1,2,-1
 332 778 l 1,3,-1
 371 946 l 1,0,-1
248 946 m 1,4,-1
 322 946 l 1,5,-1
 262 778 l 1,6,-1
 209 778 l 1,7,-1
 248 946 l 1,4,-1
28 645 m 2,8,9
 28 674 28 674 50 695.5 c 128,-1,10
 72 717 72 717 99 717 c 2,11,-1
 554 717 l 2,12,13
 582 717 582 717 604 695.5 c 128,-1,14
 626 674 626 674 626 645 c 2,15,-1
 626 72 l 2,16,17
 626 42 626 42 604 21 c 128,-1,18
 582 0 582 0 554 0 c 2,19,-1
 99 0 l 2,20,21
 71 0 71 0 49.5 21 c 128,-1,22
 28 42 28 42 28 72 c 2,23,-1
 28 645 l 2,8,9
411 156 m 1,24,-1
 411 561 l 1,25,-1
 243 561 l 1,26,-1
 243 156 l 1,27,-1
 411 156 l 1,24,-1
EndSplineSet
EndChar

StartChar: Omacron
Encoding: 332 332 267
Width: 671
Flags: W
HStem: 0 156<252 420> 561 156<252 420> 778 74<144 527>
VStem: 37 215<156 561> 420 215<156 561>
LayerCount: 2
Fore
SplineSet
144 852 m 1,0,-1
 527 852 l 1,1,-1
 527 778 l 1,2,-1
 144 778 l 1,3,-1
 144 852 l 1,0,-1
37 645 m 2,4,5
 37 674 37 674 59 695.5 c 128,-1,6
 81 717 81 717 109 717 c 2,7,-1
 563 717 l 2,8,9
 591 717 591 717 613 695.5 c 128,-1,10
 635 674 635 674 635 645 c 2,11,-1
 635 72 l 2,12,13
 635 42 635 42 613 21 c 128,-1,14
 591 0 591 0 563 0 c 2,15,-1
 109 0 l 2,16,17
 81 0 81 0 59 21 c 128,-1,18
 37 42 37 42 37 72 c 2,19,-1
 37 645 l 2,4,5
420 156 m 1,20,-1
 420 561 l 1,21,-1
 252 561 l 1,22,-1
 252 156 l 1,23,-1
 420 156 l 1,20,-1
EndSplineSet
EndChar

StartChar: Racute
Encoding: 340 340 268
Width: 670
Flags: W
HStem: 0 21G<28 243 448.813 648> 561 156<243 410>
VStem: 28 215<0 561> 410 215<418 561>
LayerCount: 2
Fore
SplineSet
191 834 m 1,0,-1
 478 924 l 1,1,-1
 478 825 l 1,2,-1
 191 778 l 1,3,-1
 191 834 l 1,0,-1
28 717 m 1,4,-1
 553 717 l 2,5,6
 582 717 582 717 603.5 695.5 c 128,-1,7
 625 674 625 674 625 645 c 2,8,-1
 625 371 l 2,9,10
 625 342 625 342 603.5 320.5 c 128,-1,11
 582 299 582 299 553 299 c 2,12,-1
 511 299 l 1,13,-1
 648 0 l 1,14,-1
 458 0 l 1,15,-1
 266 418 l 1,16,-1
 410 418 l 1,17,-1
 410 561 l 1,18,-1
 243 561 l 1,19,-1
 243 0 l 1,20,-1
 28 0 l 1,21,-1
 28 717 l 1,4,-1
EndSplineSet
EndChar

StartChar: Rcaron
Encoding: 344 344 269
Width: 675
Flags: W
HStem: 0 21G<31 246 451.813 651> 561 156<246 413>
VStem: 31 215<0 561> 413 215<418 561>
LayerCount: 2
Fore
SplineSet
133 868 m 1,0,-1
 133 924 l 1,1,-1
 338 877 l 1,2,-1
 543 924 l 1,3,-1
 543 868 l 1,4,-1
 338 778 l 1,5,-1
 133 868 l 1,0,-1
31 717 m 1,6,-1
 556 717 l 2,7,8
 585 717 585 717 606.5 695.5 c 128,-1,9
 628 674 628 674 628 645 c 2,10,-1
 628 371 l 2,11,12
 628 342 628 342 606.5 320.5 c 128,-1,13
 585 299 585 299 556 299 c 2,14,-1
 514 299 l 1,15,-1
 651 0 l 1,16,-1
 461 0 l 1,17,-1
 269 418 l 1,18,-1
 413 418 l 1,19,-1
 413 561 l 1,20,-1
 246 561 l 1,21,-1
 246 0 l 1,22,-1
 31 0 l 1,23,-1
 31 717 l 1,6,-1
EndSplineSet
EndChar

StartChar: Sacute
Encoding: 346 346 270
Width: 647
Flags: W
HStem: 0 156<95 407> 299 119<239 407> 561 156<239 622>
VStem: 24 215<418 561> 407 215<156 299>
CounterMasks: 1 e0
LayerCount: 2
Fore
SplineSet
180 834 m 1,0,-1
 467 924 l 1,1,-1
 467 825 l 1,2,-1
 180 778 l 1,3,-1
 180 834 l 1,0,-1
24 156 m 1,4,-1
 407 156 l 1,5,-1
 407 299 l 1,6,-1
 95 299 l 2,7,8
 67 299 67 299 45.5 320 c 128,-1,9
 24 341 24 341 24 371 c 2,10,-1
 24 645 l 2,11,12
 24 674 24 674 46 695.5 c 128,-1,13
 68 717 68 717 95 717 c 2,14,-1
 622 717 l 1,15,-1
 622 561 l 1,16,-1
 239 561 l 1,17,-1
 239 418 l 1,18,-1
 550 418 l 2,19,20
 578 418 578 418 600 396.5 c 128,-1,21
 622 375 622 375 622 346 c 2,22,-1
 622 72 l 2,23,24
 622 42 622 42 600 21 c 128,-1,25
 578 0 578 0 550 0 c 2,26,-1
 95 0 l 1,27,-1
 24 156 l 1,4,-1
EndSplineSet
EndChar

StartChar: Scaron
Encoding: 352 352 271
Width: 652
Flags: W
HStem: 0 156<98 410> 299 119<242 410> 561 156<242 625>
VStem: 27 215<418 561> 410 215<156 299>
CounterMasks: 1 e0
LayerCount: 2
Fore
SplineSet
122 868 m 1,0,-1
 122 924 l 1,1,-1
 327 877 l 1,2,-1
 531 924 l 1,3,-1
 531 868 l 1,4,-1
 327 778 l 1,5,-1
 122 868 l 1,0,-1
27 156 m 1,6,-1
 410 156 l 1,7,-1
 410 299 l 1,8,-1
 98 299 l 2,9,10
 70 299 70 299 48.5 320 c 128,-1,11
 27 341 27 341 27 371 c 2,12,-1
 27 645 l 2,13,14
 27 674 27 674 49 695.5 c 128,-1,15
 71 717 71 717 98 717 c 2,16,-1
 625 717 l 1,17,-1
 625 561 l 1,18,-1
 242 561 l 1,19,-1
 242 418 l 1,20,-1
 553 418 l 2,21,22
 581 418 581 418 603 396.5 c 128,-1,23
 625 375 625 375 625 346 c 2,24,-1
 625 72 l 2,25,26
 625 42 625 42 603 21 c 128,-1,27
 581 0 581 0 553 0 c 2,28,-1
 98 0 l 1,29,-1
 27 156 l 1,6,-1
EndSplineSet
EndChar

StartChar: Scedilla
Encoding: 350 350 272
Width: 648
Flags: W
HStem: -219 66<202.626 353.94> 0 156<94 246 361 406> 299 119<238 406> 561 156<238 621>
VStem: 23 215<418 561> 370 101<-134.563 -67.8408> 406 215<156 299>
LayerCount: 2
Fore
SplineSet
23 156 m 1,0,-1
 406 156 l 1,1,-1
 406 299 l 1,2,-1
 94 299 l 2,3,4
 66 299 66 299 44.5 320 c 128,-1,5
 23 341 23 341 23 371 c 2,6,-1
 23 645 l 2,7,8
 23 674 23 674 45 695.5 c 128,-1,9
 67 717 67 717 94 717 c 2,10,-1
 621 717 l 1,11,-1
 621 561 l 1,12,-1
 238 561 l 1,13,-1
 238 418 l 1,14,-1
 549 418 l 2,15,16
 577 418 577 418 599 396.5 c 128,-1,17
 621 375 621 375 621 346 c 2,18,-1
 621 72 l 2,19,20
 621 42 621 42 599 21 c 128,-1,21
 577 0 577 0 549 0 c 2,22,-1
 361 0 l 1,23,24
 384 -4 384 -4 404 -12 c 128,-1,25
 424 -20 424 -20 439 -33 c 128,-1,26
 454 -46 454 -46 462.5 -64 c 128,-1,27
 471 -82 471 -82 471 -106 c 0,28,29
 471 -139 471 -139 455.5 -161 c 128,-1,30
 440 -183 440 -183 415.5 -196 c 128,-1,31
 391 -209 391 -209 360.5 -214 c 128,-1,32
 330 -219 330 -219 298 -219 c 0,33,34
 271 -219 271 -219 246.5 -216 c 128,-1,35
 222 -213 222 -213 202 -209 c 1,36,-1
 174 -139 l 1,37,38
 185 -144 185 -144 209 -148.5 c 128,-1,39
 233 -153 233 -153 261 -153 c 0,40,41
 280 -153 280 -153 299.5 -150 c 128,-1,42
 319 -147 319 -147 334.5 -141 c 128,-1,43
 350 -135 350 -135 360 -125.5 c 128,-1,44
 370 -116 370 -116 370 -100 c 0,45,46
 370 -76 370 -76 349.5 -68 c 128,-1,47
 329 -60 329 -60 304 -60 c 0,48,49
 285 -60 285 -60 267 -64 c 128,-1,50
 249 -68 249 -68 239 -71 c 1,51,-1
 205 -11 l 1,52,53
 213 -7 213 -7 223.5 -4.5 c 128,-1,54
 234 -2 234 -2 246 0 c 1,55,-1
 94 0 l 1,56,-1
 23 156 l 1,0,-1
EndSplineSet
EndChar

StartChar: Scircumflex
Encoding: 348 348 273
Width: 652
Flags: W
HStem: 0 156<98 410> 299 119<242 410> 561 156<242 625>
VStem: 27 215<418 561> 410 215<156 299>
CounterMasks: 1 e0
LayerCount: 2
Fore
SplineSet
122 834 m 1,0,-1
 327 924 l 1,1,-1
 531 834 l 1,2,-1
 531 778 l 1,3,-1
 327 825 l 1,4,-1
 122 778 l 1,5,-1
 122 834 l 1,0,-1
27 156 m 1,6,-1
 410 156 l 1,7,-1
 410 299 l 1,8,-1
 98 299 l 2,9,10
 70 299 70 299 48.5 320 c 128,-1,11
 27 341 27 341 27 371 c 2,12,-1
 27 645 l 2,13,14
 27 674 27 674 49 695.5 c 128,-1,15
 71 717 71 717 98 717 c 2,16,-1
 625 717 l 1,17,-1
 625 561 l 1,18,-1
 242 561 l 1,19,-1
 242 418 l 1,20,-1
 553 418 l 2,21,22
 581 418 581 418 603 396.5 c 128,-1,23
 625 375 625 375 625 346 c 2,24,-1
 625 72 l 2,25,26
 625 42 625 42 603 21 c 128,-1,27
 581 0 581 0 553 0 c 2,28,-1
 98 0 l 1,29,-1
 27 156 l 1,6,-1
EndSplineSet
EndChar

StartChar: Tbar
Encoding: 358 358 274
Width: 636
Flags: W
HStem: 0 21G<211 426> 369 73<127 211 426 510> 561 156<19 211 426 617>
VStem: 211 215<0 369 442 561>
LayerCount: 2
Fore
SplineSet
211 369 m 1,0,-1
 127 369 l 1,1,-1
 127 442 l 1,2,-1
 211 442 l 1,3,-1
 211 561 l 1,4,-1
 19 561 l 1,5,-1
 19 717 l 1,6,-1
 617 717 l 1,7,-1
 617 561 l 1,8,-1
 426 561 l 1,9,-1
 426 442 l 1,10,-1
 510 442 l 1,11,-1
 510 369 l 1,12,-1
 426 369 l 1,13,-1
 426 0 l 1,14,-1
 211 0 l 1,15,-1
 211 369 l 1,0,-1
EndSplineSet
EndChar

StartChar: Tcaron
Encoding: 356 356 275
Width: 620
Flags: W
HStem: 0 21G<203 418> 561 156<11 203 418 609>
VStem: 203 215<0 561>
LayerCount: 2
Fore
SplineSet
105 868 m 1,0,-1
 105 924 l 1,1,-1
 310 877 l 1,2,-1
 515 924 l 1,3,-1
 515 868 l 1,4,-1
 310 778 l 1,5,-1
 105 868 l 1,0,-1
203 561 m 1,6,-1
 11 561 l 1,7,-1
 11 717 l 1,8,-1
 609 717 l 1,9,-1
 609 561 l 1,10,-1
 418 561 l 1,11,-1
 418 0 l 1,12,-1
 203 0 l 1,13,-1
 203 561 l 1,6,-1
EndSplineSet
EndChar

StartChar: Ubreve
Encoding: 364 364 276
Width: 656
Flags: W
HStem: 0 156<244 412> 697 20G<29 244 412 627> 768 51<272.675 382.751>
VStem: 29 215<156 717> 189 52<850.228 906> 412 215<156 717> 415 51<851.215 906>
LayerCount: 2
Fore
SplineSet
275 779 m 256,0,1
 250 790 250 790 231 809.5 c 128,-1,2
 212 829 212 829 200.5 854 c 128,-1,3
 189 879 189 879 189 906 c 1,4,-1
 241 906 l 1,5,6
 241 889 241 889 248 873.5 c 128,-1,7
 255 858 255 858 267.5 846 c 128,-1,8
 280 834 280 834 295 826.5 c 128,-1,9
 310 819 310 819 328 819 c 0,10,11
 344 819 344 819 360 826.5 c 128,-1,12
 376 834 376 834 388 846 c 128,-1,13
 400 858 400 858 407.5 873.5 c 128,-1,14
 415 889 415 889 415 906 c 1,15,-1
 466 906 l 1,16,17
 466 878 466 878 454.5 853.5 c 128,-1,18
 443 829 443 829 423.5 810 c 128,-1,19
 404 791 404 791 379.5 779.5 c 128,-1,20
 355 768 355 768 328 768 c 256,21,22
 300 768 300 768 275 779 c 256,0,1
29 717 m 1,23,-1
 244 717 l 1,24,-1
 244 156 l 1,25,-1
 412 156 l 1,26,-1
 412 717 l 1,27,-1
 627 717 l 1,28,-1
 627 0 l 1,29,-1
 100 0 l 2,30,31
 72 0 72 0 50.5 21 c 128,-1,32
 29 42 29 42 29 72 c 2,33,-1
 29 717 l 1,23,-1
EndSplineSet
EndChar

StartChar: Uhungarumlaut
Encoding: 368 368 277
Width: 654
Flags: W
HStem: 0 156<243 411> 697 20G<28 243 411 626>
VStem: 28 215<156 717> 411 215<156 717>
LayerCount: 2
Fore
SplineSet
371 946 m 1,0,-1
 444 946 l 1,1,-1
 385 778 l 1,2,-1
 332 778 l 1,3,-1
 371 946 l 1,0,-1
248 946 m 1,4,-1
 322 946 l 1,5,-1
 262 778 l 1,6,-1
 209 778 l 1,7,-1
 248 946 l 1,4,-1
28 717 m 1,8,-1
 243 717 l 1,9,-1
 243 156 l 1,10,-1
 411 156 l 1,11,-1
 411 717 l 1,12,-1
 626 717 l 1,13,-1
 626 0 l 1,14,-1
 99 0 l 2,15,16
 71 0 71 0 49.5 21 c 128,-1,17
 28 42 28 42 28 72 c 2,18,-1
 28 717 l 1,8,-1
EndSplineSet
EndChar

StartChar: Umacron
Encoding: 362 362 278
Width: 671
Flags: W
HStem: 0 156<252 420> 697 20G<37 252 420 635> 778 74<144 527>
VStem: 37 215<156 717> 420 215<156 717>
LayerCount: 2
Fore
SplineSet
144 852 m 1,0,-1
 527 852 l 1,1,-1
 527 778 l 1,2,-1
 144 778 l 1,3,-1
 144 852 l 1,0,-1
37 717 m 1,4,-1
 252 717 l 1,5,-1
 252 156 l 1,6,-1
 420 156 l 1,7,-1
 420 717 l 1,8,-1
 635 717 l 1,9,-1
 635 0 l 1,10,-1
 109 0 l 2,11,12
 81 0 81 0 59 21 c 128,-1,13
 37 42 37 42 37 72 c 2,14,-1
 37 717 l 1,4,-1
EndSplineSet
EndChar

StartChar: Uogonek
Encoding: 370 370 279
Width: 671
Flags: W
HStem: -223 66<495.648 612.072> 0 156<252 417> 697 20G<37 252 420 635>
VStem: 37 215<156 717> 370 115<-148.708 -39.9354> 420 215<156 717>
LayerCount: 2
Fore
SplineSet
37 717 m 1,0,-1
 252 717 l 1,1,-1
 252 156 l 1,2,-1
 420 156 l 1,3,-1
 420 717 l 1,4,-1
 635 717 l 1,5,-1
 635 0 l 1,6,-1
 539 0 l 1,7,8
 530 -8 530 -8 520 -21 c 128,-1,9
 510 -34 510 -34 502.5 -48.5 c 128,-1,10
 495 -63 495 -63 490 -79 c 128,-1,11
 485 -95 485 -95 485 -109 c 0,12,13
 485 -137 485 -137 500.5 -147 c 128,-1,14
 516 -157 516 -157 538 -157 c 0,15,16
 564 -157 564 -157 590.5 -147.5 c 128,-1,17
 617 -138 617 -138 635 -129 c 1,18,-1
 612 -203 l 1,19,20
 592 -213 592 -213 566 -218 c 128,-1,21
 540 -223 540 -223 512 -223 c 0,22,23
 485 -223 485 -223 459.5 -217 c 128,-1,24
 434 -211 434 -211 414 -198 c 128,-1,25
 394 -185 394 -185 382 -163.5 c 128,-1,26
 370 -142 370 -142 370 -112 c 0,27,28
 370 -85 370 -85 381 -57 c 128,-1,29
 392 -29 392 -29 417 0 c 1,30,-1
 109 0 l 2,31,32
 81 0 81 0 59 21 c 128,-1,33
 37 42 37 42 37 72 c 2,34,-1
 37 717 l 1,0,-1
EndSplineSet
EndChar

StartChar: Uring
Encoding: 366 366 280
Width: 652
Flags: W
HStem: 0 156<242 410> 697 20G<27 242 410 625> 768 51<287.351 364.723> 911 52<286.749 364.723>
VStem: 27 215<156 717> 228 52<826.277 904.124> 372 51<826.277 903.664> 410 215<156 717>
LayerCount: 2
Fore
SplineSet
288 775 m 1,0,1
 271 783 271 783 257.5 796.5 c 128,-1,2
 244 810 244 810 236 828 c 128,-1,3
 228 846 228 846 228 865 c 256,4,5
 228 884 228 884 236 902.5 c 128,-1,6
 244 921 244 921 257 934 c 128,-1,7
 270 947 270 947 288 955 c 128,-1,8
 306 963 306 963 326 963 c 256,9,10
 345 963 345 963 363 955 c 128,-1,11
 381 947 381 947 394.5 934 c 128,-1,12
 408 921 408 921 415.5 903 c 128,-1,13
 423 885 423 885 423 865 c 256,14,15
 423 846 423 846 415.5 828 c 128,-1,16
 408 810 408 810 394.5 796.5 c 128,-1,17
 381 783 381 783 363 775.5 c 128,-1,18
 345 768 345 768 326 768 c 256,19,20
 306 768 306 768 288 775 c 1,0,1
326 819 m 256,21,22
 344 819 344 819 358 833 c 128,-1,23
 372 847 372 847 372 865 c 256,24,25
 372 883 372 883 358 897 c 128,-1,26
 344 911 344 911 326 911 c 256,27,28
 308 911 308 911 294 897.5 c 128,-1,29
 280 884 280 884 280 865 c 256,30,31
 280 847 280 847 294 833 c 128,-1,32
 308 819 308 819 326 819 c 256,21,22
27 717 m 1,33,-1
 242 717 l 1,34,-1
 242 156 l 1,35,-1
 410 156 l 1,36,-1
 410 717 l 1,37,-1
 625 717 l 1,38,-1
 625 0 l 1,39,-1
 98 0 l 2,40,41
 70 0 70 0 48.5 21 c 128,-1,42
 27 42 27 42 27 72 c 2,43,-1
 27 717 l 1,33,-1
EndSplineSet
EndChar

StartChar: Utilde
Encoding: 360 360 281
Width: 662
Flags: W
HStem: 0 156<247 415> 697 20G<32 247 415 630> 758 91<361.481 502.965> 823 91<160.343 315.297>
VStem: 32 215<156 717> 415 215<156 717>
LayerCount: 2
Fore
SplineSet
131 864 m 1,0,1
 155 892 155 892 179.5 903 c 128,-1,2
 204 914 204 914 228 914 c 0,3,4
 256 914 256 914 283.5 904 c 128,-1,5
 311 894 311 894 338.5 881.5 c 128,-1,6
 366 869 366 869 392.5 859 c 128,-1,7
 419 849 419 849 443 849 c 128,-1,8
 467 849 467 849 488 860.5 c 128,-1,9
 509 872 509 872 529 902 c 1,10,-1
 529 811 l 1,11,12
 509 781 509 781 488 769.5 c 128,-1,13
 467 758 467 758 443 758 c 0,14,15
 418 758 418 758 392 768 c 128,-1,16
 366 778 366 778 338.5 790.5 c 128,-1,17
 311 803 311 803 283.5 813 c 128,-1,18
 256 823 256 823 228 823 c 0,19,20
 203 823 203 823 179 812 c 128,-1,21
 155 801 155 801 131 773 c 1,22,-1
 131 864 l 1,0,1
32 717 m 1,23,-1
 247 717 l 1,24,-1
 247 156 l 1,25,-1
 415 156 l 1,26,-1
 415 717 l 1,27,-1
 630 717 l 1,28,-1
 630 0 l 1,29,-1
 103 0 l 2,30,31
 75 0 75 0 53.5 21 c 128,-1,32
 32 42 32 42 32 72 c 2,33,-1
 32 717 l 1,23,-1
EndSplineSet
EndChar

StartChar: Wacute
Encoding: 7810 7810 282
Width: 1032
Flags: W
HStem: 0 156<241 408 623 790> 697 20G<26 241 408 623 790 1005>
VStem: 26 215<156 717> 408 215<156 717> 790 215<156 717>
CounterMasks: 1 38
LayerCount: 2
Fore
SplineSet
372 834 m 1,0,-1
 658 924 l 1,1,-1
 658 825 l 1,2,-1
 372 778 l 1,3,-1
 372 834 l 1,0,-1
26 717 m 1,4,-1
 241 717 l 1,5,-1
 241 156 l 1,6,-1
 408 156 l 1,7,-1
 408 717 l 1,8,-1
 623 717 l 1,9,-1
 623 156 l 1,10,-1
 790 156 l 1,11,-1
 790 717 l 1,12,-1
 1005 717 l 1,13,-1
 1005 72 l 2,14,15
 1005 43 1005 43 983.5 21.5 c 128,-1,16
 962 0 962 0 933 0 c 2,17,-1
 97 0 l 2,18,19
 68 0 68 0 47 21.5 c 128,-1,20
 26 43 26 43 26 72 c 2,21,-1
 26 717 l 1,4,-1
EndSplineSet
EndChar

StartChar: Wcircumflex
Encoding: 372 372 283
Width: 1034
Flags: W
HStem: 0 156<243 410 625 792> 697 20G<28 243 410 625 792 1007>
VStem: 28 215<156 717> 410 215<156 717> 792 215<156 717>
CounterMasks: 1 38
LayerCount: 2
Fore
SplineSet
312 834 m 1,0,-1
 517 924 l 1,1,-1
 722 834 l 1,2,-1
 722 778 l 1,3,-1
 517 825 l 1,4,-1
 312 778 l 1,5,-1
 312 834 l 1,0,-1
28 717 m 1,6,-1
 243 717 l 1,7,-1
 243 156 l 1,8,-1
 410 156 l 1,9,-1
 410 717 l 1,10,-1
 625 717 l 1,11,-1
 625 156 l 1,12,-1
 792 156 l 1,13,-1
 792 717 l 1,14,-1
 1007 717 l 1,15,-1
 1007 72 l 2,16,17
 1007 43 1007 43 985.5 21.5 c 128,-1,18
 964 0 964 0 935 0 c 2,19,-1
 99 0 l 2,20,21
 70 0 70 0 49 21.5 c 128,-1,22
 28 43 28 43 28 72 c 2,23,-1
 28 717 l 1,6,-1
EndSplineSet
EndChar

StartChar: Wdieresis
Encoding: 7812 7812 284
Width: 1037
Flags: W
HStem: 0 156<244 411 626 793> 697 20G<29 244 411 626 793 1008> 768 151<344.145 455.793 580.277 691.793>
VStem: 29 215<156 717> 325 151<792.751 894.249> 411 215<156 717> 560 152<792.751 894.249> 793 215<156 717>
LayerCount: 2
Fore
SplineSet
579 792 m 256,0,1
 561 816 561 816 560 844 c 0,2,3
 560 872 560 872 578.5 895.5 c 128,-1,4
 597 919 597 919 635 919 c 0,5,6
 674 919 674 919 693 895 c 128,-1,7
 712 871 712 871 712 843 c 128,-1,8
 712 815 712 815 693 791.5 c 128,-1,9
 674 768 674 768 635 768 c 0,10,11
 597 768 597 768 579 792 c 256,0,1
343 792 m 256,12,13
 325 816 325 816 325 844 c 128,-1,14
 325 872 325 872 343 895.5 c 128,-1,15
 361 919 361 919 399 919 c 0,16,17
 438 919 438 919 457 895 c 128,-1,18
 476 871 476 871 476 843 c 128,-1,19
 476 815 476 815 457 791.5 c 128,-1,20
 438 768 438 768 399 768 c 0,21,22
 361 768 361 768 343 792 c 256,12,13
29 717 m 1,23,-1
 244 717 l 1,24,-1
 244 156 l 1,25,-1
 411 156 l 1,26,-1
 411 717 l 1,27,-1
 626 717 l 1,28,-1
 626 156 l 1,29,-1
 793 156 l 1,30,-1
 793 717 l 1,31,-1
 1008 717 l 1,32,-1
 1008 72 l 2,33,34
 1008 43 1008 43 986.5 21.5 c 128,-1,35
 965 0 965 0 936 0 c 2,36,-1
 100 0 l 2,37,38
 71 0 71 0 50 21.5 c 128,-1,39
 29 43 29 43 29 72 c 2,40,-1
 29 717 l 1,23,-1
EndSplineSet
EndChar

StartChar: Wgrave
Encoding: 7808 7808 285
Width: 1032
Flags: W
HStem: 0 156<242 409 624 791> 697 20G<27 242 409 624 791 1006>
VStem: 27 215<156 717> 409 215<156 717> 791 215<156 717>
CounterMasks: 1 38
LayerCount: 2
Fore
SplineSet
373 924 m 1,0,-1
 659 834 l 1,1,-1
 659 778 l 1,2,-1
 373 825 l 1,3,-1
 373 924 l 1,0,-1
27 717 m 1,4,-1
 242 717 l 1,5,-1
 242 156 l 1,6,-1
 409 156 l 1,7,-1
 409 717 l 1,8,-1
 624 717 l 1,9,-1
 624 156 l 1,10,-1
 791 156 l 1,11,-1
 791 717 l 1,12,-1
 1006 717 l 1,13,-1
 1006 72 l 2,14,15
 1006 43 1006 43 984.5 21.5 c 128,-1,16
 963 0 963 0 934 0 c 2,17,-1
 98 0 l 2,18,19
 69 0 69 0 48 21.5 c 128,-1,20
 27 43 27 43 27 72 c 2,21,-1
 27 717 l 1,4,-1
EndSplineSet
EndChar

StartChar: Ycircumflex
Encoding: 374 374 286
Width: 736
Flags: W
HStem: 0 21G<260 475> 697 20G<10 284.715 450.417 726>
VStem: 260 215<0 323>
LayerCount: 2
Fore
SplineSet
163 834 m 1,0,-1
 368 924 l 1,1,-1
 572 834 l 1,2,-1
 572 778 l 1,3,-1
 368 825 l 1,4,-1
 163 778 l 1,5,-1
 163 834 l 1,0,-1
260 323 m 1,6,-1
 10 717 l 1,7,-1
 272 717 l 1,8,-1
 368 566 l 1,9,-1
 463 717 l 1,10,-1
 726 717 l 1,11,-1
 475 323 l 1,12,-1
 475 0 l 1,13,-1
 260 0 l 1,14,-1
 260 323 l 1,6,-1
EndSplineSet
EndChar

StartChar: Ygrave
Encoding: 7922 7922 287
Width: 733
Flags: W
HStem: 0 21G<259 474> 697 20G<9 283.715 449.417 725>
VStem: 259 215<0 323>
LayerCount: 2
Fore
SplineSet
223 924 m 1,0,-1
 510 834 l 1,1,-1
 510 778 l 1,2,-1
 223 825 l 1,3,-1
 223 924 l 1,0,-1
259 323 m 1,4,-1
 9 717 l 1,5,-1
 271 717 l 1,6,-1
 367 566 l 1,7,-1
 462 717 l 1,8,-1
 725 717 l 1,9,-1
 474 323 l 1,10,-1
 474 0 l 1,11,-1
 259 0 l 1,12,-1
 259 323 l 1,4,-1
EndSplineSet
EndChar

StartChar: Zacute
Encoding: 377 377 288
Width: 642
Flags: W
HStem: 0 156<296 618> 561 156<20 343>
LayerCount: 2
Fore
SplineSet
169 834 m 1,0,-1
 456 924 l 1,1,-1
 456 825 l 1,2,-1
 169 778 l 1,3,-1
 169 834 l 1,0,-1
20 156 m 1,4,-1
 343 561 l 1,5,-1
 20 561 l 1,6,-1
 20 717 l 1,7,-1
 618 717 l 1,8,-1
 618 561 l 1,9,-1
 296 156 l 1,10,-1
 618 156 l 1,11,-1
 618 0 l 1,12,-1
 20 0 l 1,13,-1
 20 156 l 1,4,-1
EndSplineSet
EndChar

StartChar: Zcaron
Encoding: 381 381 289
Width: 649
Flags: W
HStem: 0 156<301 624> 561 156<26 348>
LayerCount: 2
Fore
SplineSet
113 868 m 1,0,-1
 113 924 l 1,1,-1
 317 877 l 1,2,-1
 522 924 l 1,3,-1
 522 868 l 1,4,-1
 317 778 l 1,5,-1
 113 868 l 1,0,-1
26 156 m 1,6,-1
 348 561 l 1,7,-1
 26 561 l 1,8,-1
 26 717 l 1,9,-1
 624 717 l 1,10,-1
 624 561 l 1,11,-1
 301 156 l 1,12,-1
 624 156 l 1,13,-1
 624 0 l 1,14,-1
 26 0 l 1,15,-1
 26 156 l 1,6,-1
EndSplineSet
EndChar

StartChar: Zdotaccent
Encoding: 379 379 290
Width: 640
Flags: W
HStem: 0 156<296 618> 561 156<20 343> 768 151<256.145 367.793>
VStem: 237 151<792.751 894.249>
LayerCount: 2
Fore
SplineSet
255 792 m 256,0,1
 237 816 237 816 237 844 c 128,-1,2
 237 872 237 872 255 895.5 c 128,-1,3
 273 919 273 919 311 919 c 0,4,5
 350 919 350 919 369 895 c 128,-1,6
 388 871 388 871 388 843 c 128,-1,7
 388 815 388 815 369 791.5 c 128,-1,8
 350 768 350 768 311 768 c 0,9,10
 273 768 273 768 255 792 c 256,0,1
20 156 m 1,11,-1
 343 561 l 1,12,-1
 20 561 l 1,13,-1
 20 717 l 1,14,-1
 618 717 l 1,15,-1
 618 561 l 1,16,-1
 296 156 l 1,17,-1
 618 156 l 1,18,-1
 618 0 l 1,19,-1
 20 0 l 1,20,-1
 20 156 l 1,11,-1
EndSplineSet
EndChar

StartChar: abreve
Encoding: 259 259 291
Width: 604
Flags: W
HStem: 0 155<242 360> 203 119<242 360> 382 156<27 360> 589 51<245.006 356.821>
VStem: 27 548<20.1772 155 203 301.167 382 517.823> 163 51<671.457 727> 388 51<671.457 727>
LayerCount: 2
Fore
SplineSet
249 600 m 256,0,1
 224 611 224 611 204.5 630.5 c 128,-1,2
 185 650 185 650 174 674.5 c 128,-1,3
 163 699 163 699 163 727 c 1,4,-1
 214 727 l 1,5,6
 214 710 214 710 221 694.5 c 128,-1,7
 228 679 228 679 240.5 666.5 c 128,-1,8
 253 654 253 654 268.5 647 c 128,-1,9
 284 640 284 640 301 640 c 0,10,11
 317 640 317 640 333 647 c 128,-1,12
 349 654 349 654 361.5 666.5 c 128,-1,13
 374 679 374 679 381 694.5 c 128,-1,14
 388 710 388 710 388 727 c 1,15,-1
 439 727 l 1,16,17
 439 699 439 699 428 674.5 c 128,-1,18
 417 650 417 650 397.5 630.5 c 128,-1,19
 378 611 378 611 353.5 600 c 128,-1,20
 329 589 329 589 301 589 c 256,21,22
 274 589 274 589 249 600 c 256,0,1
27 251 m 2,23,24
 27 279 27 279 48.5 300.5 c 128,-1,25
 70 322 70 322 98 322 c 2,26,-1
 360 322 l 1,27,-1
 360 382 l 1,28,-1
 27 382 l 1,29,-1
 27 538 l 1,30,-1
 504 538 l 2,31,32
 533 538 533 538 554 516.5 c 128,-1,33
 575 495 575 495 575 466 c 2,34,-1
 575 0 l 1,35,-1
 98 0 l 2,36,37
 69 0 69 0 48 21.5 c 128,-1,38
 27 43 27 43 27 72 c 2,39,-1
 27 251 l 2,23,24
360 155 m 1,40,-1
 360 203 l 1,41,-1
 242 203 l 1,42,-1
 242 155 l 1,43,-1
 360 155 l 1,40,-1
EndSplineSet
EndChar

StartChar: amacron
Encoding: 257 257 292
Width: 622
Flags: W
HStem: 0 155<252 371> 203 119<252 371> 382 156<37 371> 599 74<120 503>
VStem: 37 549<20.8334 155 203 301.167 382 517.167>
LayerCount: 2
Fore
SplineSet
120 673 m 1,0,-1
 503 673 l 1,1,-1
 503 599 l 1,2,-1
 120 599 l 1,3,-1
 120 673 l 1,0,-1
37 251 m 2,4,5
 37 279 37 279 58.5 300.5 c 128,-1,6
 80 322 80 322 109 322 c 2,7,-1
 371 322 l 1,8,-1
 371 382 l 1,9,-1
 37 382 l 1,10,-1
 37 538 l 1,11,-1
 514 538 l 2,12,13
 543 538 543 538 564.5 516.5 c 128,-1,14
 586 495 586 495 586 466 c 2,15,-1
 586 0 l 1,16,-1
 109 0 l 2,17,18
 80 0 80 0 58.5 21.5 c 128,-1,19
 37 43 37 43 37 72 c 2,20,-1
 37 251 l 2,4,5
371 155 m 1,21,-1
 371 203 l 1,22,-1
 252 203 l 1,23,-1
 252 155 l 1,24,-1
 371 155 l 1,21,-1
EndSplineSet
EndChar

StartChar: aogonek
Encoding: 261 261 293
Width: 602
Flags: W
HStem: -223 66<428.599 544.894> 0 155<233 349> 203 119<233 352> 382 156<18 352>
VStem: 18 549<20.8334 155 203 301.167 382 517.823> 302 116<-148.708 -38.1766>
LayerCount: 2
Fore
SplineSet
18 251 m 2,0,1
 18 279 18 279 39.5 300.5 c 128,-1,2
 61 322 61 322 90 322 c 2,3,-1
 352 322 l 1,4,-1
 352 382 l 1,5,-1
 18 382 l 1,6,-1
 18 538 l 1,7,-1
 496 538 l 2,8,9
 525 538 525 538 546 516.5 c 128,-1,10
 567 495 567 495 567 466 c 2,11,-1
 567 0 l 1,12,-1
 471 0 l 1,13,14
 462 -8 462 -8 452 -21 c 128,-1,15
 442 -34 442 -34 434.5 -48.5 c 128,-1,16
 427 -63 427 -63 422.5 -79 c 128,-1,17
 418 -95 418 -95 418 -109 c 0,18,19
 418 -137 418 -137 433.5 -147 c 128,-1,20
 449 -157 449 -157 470 -157 c 0,21,22
 496 -157 496 -157 523 -147.5 c 128,-1,23
 550 -138 550 -138 567 -129 c 1,24,-1
 545 -203 l 1,25,26
 525 -213 525 -213 498.5 -218 c 128,-1,27
 472 -223 472 -223 444 -223 c 0,28,29
 417 -223 417 -223 392 -217 c 128,-1,30
 367 -211 367 -211 347 -198 c 128,-1,31
 327 -185 327 -185 314.5 -163.5 c 128,-1,32
 302 -142 302 -142 302 -112 c 0,33,34
 302 -85 302 -85 313.5 -57 c 128,-1,35
 325 -29 325 -29 349 0 c 1,36,-1
 90 0 l 2,37,38
 61 0 61 0 39.5 21.5 c 128,-1,39
 18 43 18 43 18 72 c 2,40,-1
 18 251 l 2,0,1
352 155 m 1,41,-1
 352 203 l 1,42,-1
 233 203 l 1,43,-1
 233 155 l 1,44,-1
 352 155 l 1,41,-1
EndSplineSet
EndChar

StartChar: cacute
Encoding: 263 263 294
Width: 594
Flags: W
HStem: 0 155<241 503> 382 156<241 503>
VStem: 26 215<155 382>
LayerCount: 2
Fore
SplineSet
153 654 m 1,0,-1
 439 744 l 1,1,-1
 439 646 l 1,2,-1
 153 599 l 1,3,-1
 153 654 l 1,0,-1
26 466 m 2,4,5
 26 495 26 495 47.5 516.5 c 128,-1,6
 69 538 69 538 97 538 c 2,7,-1
 574 538 l 1,8,-1
 503 382 l 1,9,-1
 241 382 l 1,10,-1
 241 155 l 1,11,-1
 574 155 l 1,12,-1
 503 0 l 1,13,-1
 97 0 l 2,14,15
 68 0 68 0 47 21.5 c 128,-1,16
 26 43 26 43 26 72 c 2,17,-1
 26 466 l 2,4,5
EndSplineSet
EndChar

StartChar: ccaron
Encoding: 269 269 295
Width: 603
Flags: W
HStem: 0 155<246 508> 382 156<246 508>
VStem: 31 215<155 382>
LayerCount: 2
Fore
SplineSet
96 689 m 1,0,-1
 96 744 l 1,1,-1
 301 697 l 1,2,-1
 508 744 l 1,3,-1
 506 689 l 1,4,-1
 301 599 l 1,5,-1
 96 689 l 1,0,-1
31 466 m 2,6,7
 31 495 31 495 52.5 516.5 c 128,-1,8
 74 538 74 538 102 538 c 2,9,-1
 580 538 l 1,10,-1
 508 382 l 1,11,-1
 246 382 l 1,12,-1
 246 155 l 1,13,-1
 580 155 l 1,14,-1
 508 0 l 1,15,-1
 102 0 l 2,16,17
 73 0 73 0 52 21.5 c 128,-1,18
 31 43 31 43 31 72 c 2,19,-1
 31 466 l 2,6,7
EndSplineSet
EndChar

StartChar: ccircumflex
Encoding: 265 265 296
Width: 600
Flags: W
HStem: 0 155<245 507> 382 156<245 507>
VStem: 30 215<155 382>
LayerCount: 2
Fore
SplineSet
95 654 m 1,0,-1
 300 744 l 1,1,-1
 505 654 l 1,2,-1
 505 599 l 1,3,-1
 300 646 l 1,4,-1
 95 599 l 1,5,-1
 95 654 l 1,0,-1
30 466 m 2,6,7
 30 495 30 495 51.5 516.5 c 128,-1,8
 73 538 73 538 101 538 c 2,9,-1
 579 538 l 1,10,-1
 507 382 l 1,11,-1
 245 382 l 1,12,-1
 245 155 l 1,13,-1
 579 155 l 1,14,-1
 507 0 l 1,15,-1
 101 0 l 2,16,17
 72 0 72 0 51 21.5 c 128,-1,18
 30 43 30 43 30 72 c 2,19,-1
 30 466 l 2,6,7
EndSplineSet
EndChar

StartChar: cdotaccent
Encoding: 267 267 297
Width: 591
Flags: W
HStem: 0 155<241 503> 382 156<241 503> 589 150<239.675 351.793>
VStem: 26 215<155 382> 220 152<613.235 714.765>
LayerCount: 2
Fore
SplineSet
239 612 m 256,0,1
 221 636 221 636 220 665 c 0,2,3
 220 693 220 693 238.5 716 c 128,-1,4
 257 739 257 739 295 739 c 0,5,6
 334 739 334 739 353 715.5 c 128,-1,7
 372 692 372 692 372 664 c 128,-1,8
 372 636 372 636 353 612.5 c 128,-1,9
 334 589 334 589 295 589 c 0,10,11
 257 588 257 588 239 612 c 256,0,1
26 466 m 2,12,13
 26 495 26 495 47.5 516.5 c 128,-1,14
 69 538 69 538 97 538 c 2,15,-1
 574 538 l 1,16,-1
 503 382 l 1,17,-1
 241 382 l 1,18,-1
 241 155 l 1,19,-1
 574 155 l 1,20,-1
 503 0 l 1,21,-1
 97 0 l 2,22,23
 68 0 68 0 47 21.5 c 128,-1,24
 26 43 26 43 26 72 c 2,25,-1
 26 466 l 2,12,13
EndSplineSet
EndChar

StartChar: dcroat
Encoding: 273 273 298
Width: 701
Flags: W
HStem: 0 156<241 359> 382 156<241 359> 592 74<257 359 574 677> 697 20G<359 574>
VStem: 26 215<156 382> 359 215<156 382 538 592 666 717>
LayerCount: 2
Fore
SplineSet
26 466 m 2,0,1
 26 495 26 495 47.5 516.5 c 128,-1,2
 69 538 69 538 97 538 c 2,3,-1
 359 538 l 1,4,-1
 359 592 l 1,5,-1
 257 592 l 1,6,-1
 257 666 l 1,7,-1
 359 666 l 1,8,-1
 359 717 l 1,9,-1
 574 717 l 1,10,-1
 574 666 l 1,11,-1
 677 666 l 1,12,-1
 677 592 l 1,13,-1
 574 592 l 1,14,-1
 574 0 l 1,15,-1
 97 0 l 2,16,17
 68 0 68 0 47 21.5 c 128,-1,18
 26 43 26 43 26 72 c 2,19,-1
 26 466 l 2,0,1
359 156 m 1,20,-1
 359 382 l 1,21,-1
 241 382 l 1,22,-1
 241 156 l 1,23,-1
 359 156 l 1,20,-1
EndSplineSet
EndChar

StartChar: ecaron
Encoding: 283 283 299
Width: 608
Flags: W
HStem: 0 155<246 508> 203 119<246 365> 382 156<246 365>
LayerCount: 2
Fore
SplineSet
98 689 m 1,0,-1
 98 744 l 1,1,-1
 303 697 l 1,2,-1
 508 744 l 1,3,-1
 508 689 l 1,4,-1
 303 599 l 1,5,-1
 98 689 l 1,0,-1
31 466 m 2,6,7
 31 495 31 495 52.5 516.5 c 128,-1,8
 74 538 74 538 102 538 c 2,9,-1
 508 538 l 2,10,11
 537 538 537 538 558.5 516.5 c 128,-1,12
 580 495 580 495 580 466 c 2,13,-1
 580 274 l 2,14,15
 580 245 580 245 558.5 224 c 128,-1,16
 537 203 537 203 508 203 c 2,17,-1
 246 203 l 1,18,-1
 246 155 l 1,19,-1
 580 155 l 1,20,-1
 508 0 l 1,21,-1
 102 0 l 2,22,23
 73 0 73 0 52 21.5 c 128,-1,24
 31 43 31 43 31 72 c 2,25,-1
 31 466 l 2,6,7
365 322 m 1,26,-1
 365 382 l 1,27,-1
 246 382 l 1,28,-1
 246 322 l 1,29,-1
 365 322 l 1,26,-1
EndSplineSet
EndChar

